<svg width="424" height="314" viewBox="0 0 424 314" fill="none" xmlns="http://www.w3.org/2000/svg">
<g filter="url(#filter0_d_2_48679)">
<rect x="8" y="4" width="408" height="298" rx="16" fill="#FAFAFA" shape-rendering="crispEdges"/>
<path d="M31.375 33.25L24.625 40L31.375 46.75" stroke="#797979" stroke-linecap="round" stroke-linejoin="round"/>
<path d="M176.852 34.4844H180.312V46H178.07V38.2109C178.07 37.987 178.073 37.6745 178.078 37.2734C178.083 36.8672 178.086 36.5547 178.086 36.3359L175.906 46H173.57L171.406 36.3359C171.406 36.5547 171.409 36.8672 171.414 37.2734C171.419 37.6745 171.422 37.987 171.422 38.2109V46H169.18V34.4844H172.68L174.773 43.5391L176.852 34.4844ZM187.062 41.8594C186.922 41.9479 186.779 42.0208 186.633 42.0781C186.492 42.1302 186.297 42.1797 186.047 42.2266L185.547 42.3203C185.078 42.4036 184.742 42.5052 184.539 42.625C184.195 42.8281 184.023 43.1432 184.023 43.5703C184.023 43.9505 184.128 44.2266 184.336 44.3984C184.549 44.5651 184.807 44.6484 185.109 44.6484C185.589 44.6484 186.029 44.5078 186.43 44.2266C186.836 43.9453 187.047 43.4323 187.062 42.6875V41.8594ZM185.711 40.8203C186.122 40.7682 186.417 40.7031 186.594 40.625C186.911 40.4896 187.07 40.2786 187.07 39.9922C187.07 39.6432 186.948 39.4036 186.703 39.2734C186.464 39.138 186.109 39.0703 185.641 39.0703C185.115 39.0703 184.742 39.2005 184.523 39.4609C184.367 39.6536 184.263 39.9141 184.211 40.2422H182.062C182.109 39.4974 182.318 38.8854 182.688 38.4062C183.276 37.6562 184.286 37.2812 185.719 37.2812C186.651 37.2812 187.479 37.4661 188.203 37.8359C188.927 38.2057 189.289 38.9036 189.289 39.9297V43.8359C189.289 44.1068 189.294 44.4349 189.305 44.8203C189.32 45.112 189.365 45.3099 189.438 45.4141C189.51 45.5182 189.62 45.6042 189.766 45.6719V46H187.344C187.276 45.8281 187.229 45.6667 187.203 45.5156C187.177 45.3646 187.156 45.1927 187.141 45C186.833 45.3333 186.479 45.6172 186.078 45.8516C185.599 46.1276 185.057 46.2656 184.453 46.2656C183.682 46.2656 183.044 46.0469 182.539 45.6094C182.039 45.1667 181.789 44.5417 181.789 43.7344C181.789 42.6875 182.193 41.9297 183 41.4609C183.443 41.2057 184.094 41.0234 184.953 40.9141L185.711 40.8203ZM195.898 37.2812C195.94 37.2812 195.974 37.2839 196 37.2891C196.031 37.2891 196.096 37.2917 196.195 37.2969V39.5781C196.055 39.5625 195.93 39.5521 195.82 39.5469C195.711 39.5417 195.622 39.5391 195.555 39.5391C194.659 39.5391 194.057 39.8307 193.75 40.4141C193.578 40.7422 193.492 41.2474 193.492 41.9297V46H191.25V37.4844H193.375V38.9688C193.719 38.401 194.018 38.013 194.273 37.8047C194.69 37.4557 195.232 37.2812 195.898 37.2812ZM202.594 40.5391C202.552 40.2214 202.445 39.9349 202.273 39.6797C202.023 39.3359 201.635 39.1641 201.109 39.1641C200.359 39.1641 199.846 39.5365 199.57 40.2812C199.424 40.6771 199.352 41.2031 199.352 41.8594C199.352 42.4844 199.424 42.987 199.57 43.3672C199.836 44.0755 200.336 44.4297 201.07 44.4297C201.591 44.4297 201.961 44.2891 202.18 44.0078C202.398 43.7266 202.531 43.362 202.578 42.9141H204.852C204.799 43.5911 204.555 44.2318 204.117 44.8359C203.419 45.8099 202.385 46.2969 201.016 46.2969C199.646 46.2969 198.638 45.8906 197.992 45.0781C197.346 44.2656 197.023 43.2109 197.023 41.9141C197.023 40.4505 197.38 39.3125 198.094 38.5C198.807 37.6875 199.792 37.2812 201.047 37.2812C202.115 37.2812 202.987 37.5208 203.664 38C204.346 38.4792 204.75 39.3255 204.875 40.5391H202.594ZM211.109 37.2656C211.635 37.2656 212.112 37.3568 212.539 37.5391C212.971 37.7214 213.326 38 213.602 38.375C213.836 38.6927 213.979 39.0208 214.031 39.3594C214.083 39.6927 214.109 40.2396 214.109 41V46H211.836V40.8203C211.836 40.362 211.758 39.9922 211.602 39.7109C211.398 39.3151 211.013 39.1172 210.445 39.1172C209.857 39.1172 209.409 39.3151 209.102 39.7109C208.799 40.1016 208.648 40.6615 208.648 41.3906V46H206.43V34.5234H208.648V38.5938C208.971 38.099 209.344 37.7552 209.766 37.5625C210.193 37.3646 210.641 37.2656 211.109 37.2656ZM220.109 46C220.13 45.1875 220.305 44.4453 220.633 43.7734C220.951 43.0182 221.701 42.2188 222.883 41.375C223.909 40.6406 224.573 40.1146 224.875 39.7969C225.339 39.3021 225.57 38.7604 225.57 38.1719C225.57 37.6927 225.438 37.2943 225.172 36.9766C224.906 36.6589 224.526 36.5 224.031 36.5C223.354 36.5 222.893 36.7526 222.648 37.2578C222.508 37.5495 222.424 38.013 222.398 38.6484H220.234C220.271 37.6849 220.445 36.9062 220.758 36.3125C221.352 35.1823 222.406 34.6172 223.922 34.6172C225.12 34.6172 226.073 34.9505 226.781 35.6172C227.49 36.2786 227.844 37.1562 227.844 38.25C227.844 39.0885 227.594 39.8333 227.094 40.4844C226.766 40.9167 226.227 41.3984 225.477 41.9297L224.586 42.5625C224.029 42.9583 223.646 43.2448 223.438 43.4219C223.234 43.599 223.062 43.8047 222.922 44.0391H227.867V46H220.109ZM231.289 40.4453C231.289 41.7474 231.396 42.7448 231.609 43.4375C231.823 44.125 232.26 44.4688 232.922 44.4688C233.583 44.4688 234.016 44.125 234.219 43.4375C234.427 42.7448 234.531 41.7474 234.531 40.4453C234.531 39.0807 234.427 38.0703 234.219 37.4141C234.016 36.7578 233.583 36.4297 232.922 36.4297C232.26 36.4297 231.823 36.7578 231.609 37.4141C231.396 38.0703 231.289 39.0807 231.289 40.4453ZM232.922 34.5938C234.365 34.5938 235.375 35.1016 235.953 36.1172C236.536 37.1328 236.828 38.5755 236.828 40.4453C236.828 42.3151 236.536 43.7552 235.953 44.7656C235.375 45.776 234.365 46.2812 232.922 46.2812C231.479 46.2812 230.466 45.776 229.883 44.7656C229.305 43.7552 229.016 42.3151 229.016 40.4453C229.016 38.5755 229.305 37.1328 229.883 36.1172C230.466 35.1016 231.479 34.5938 232.922 34.5938ZM237.922 46C237.943 45.1875 238.117 44.4453 238.445 43.7734C238.763 43.0182 239.513 42.2188 240.695 41.375C241.721 40.6406 242.385 40.1146 242.688 39.7969C243.151 39.3021 243.383 38.7604 243.383 38.1719C243.383 37.6927 243.25 37.2943 242.984 36.9766C242.719 36.6589 242.339 36.5 241.844 36.5C241.167 36.5 240.706 36.7526 240.461 37.2578C240.32 37.5495 240.237 38.013 240.211 38.6484H238.047C238.083 37.6849 238.258 36.9062 238.57 36.3125C239.164 35.1823 240.219 34.6172 241.734 34.6172C242.932 34.6172 243.885 34.9505 244.594 35.6172C245.302 36.2786 245.656 37.1562 245.656 38.25C245.656 39.0885 245.406 39.8333 244.906 40.4844C244.578 40.9167 244.039 41.3984 243.289 41.9297L242.398 42.5625C241.841 42.9583 241.458 43.2448 241.25 43.4219C241.047 43.599 240.875 43.8047 240.734 44.0391H245.68V46H237.922ZM254.695 43.5625H253.414V46H251.234V43.5625H246.75V41.6172L250.914 34.7422H253.414V41.8203H254.695V43.5625ZM251.234 41.8203V36.9297L248.398 41.8203H251.234Z" fill="#161616"/>
<path d="M392.625 46.75L399.375 40L392.625 33.25" stroke="#161616" stroke-linecap="round" stroke-linejoin="round"/>
<line x1="16" y1="67.5" x2="408" y2="67.5" stroke="#BBC2FA"/>
<path d="M17.1797 90.5234H19.4062L22.7031 100.227L25.9766 90.5234H28.1797V102H26.7031V95.2266C26.7031 94.9922 26.7083 94.6042 26.7188 94.0625C26.7292 93.5208 26.7344 92.9401 26.7344 92.3203L23.4609 102H21.9219L18.625 92.3203V92.6719C18.625 92.9531 18.6302 93.3828 18.6406 93.9609C18.6562 94.5339 18.6641 94.9557 18.6641 95.2266V102H17.1797V90.5234ZM33.6797 101.094C34.612 101.094 35.25 100.742 35.5938 100.039C35.9427 99.3307 36.1172 98.5443 36.1172 97.6797C36.1172 96.8984 35.9922 96.263 35.7422 95.7734C35.3464 95.0026 34.6641 94.6172 33.6953 94.6172C32.8359 94.6172 32.2109 94.9453 31.8203 95.6016C31.4297 96.2578 31.2344 97.0495 31.2344 97.9766C31.2344 98.8672 31.4297 99.6094 31.8203 100.203C32.2109 100.797 32.8307 101.094 33.6797 101.094ZM33.7344 93.3906C34.8125 93.3906 35.724 93.75 36.4688 94.4688C37.2135 95.1875 37.5859 96.2448 37.5859 97.6406C37.5859 98.9896 37.2578 100.104 36.6016 100.984C35.9453 101.865 34.9271 102.305 33.5469 102.305C32.3958 102.305 31.4818 101.917 30.8047 101.141C30.1276 100.359 29.7891 99.3125 29.7891 98C29.7891 96.5938 30.1458 95.474 30.8594 94.6406C31.5729 93.8073 32.5312 93.3906 33.7344 93.3906Z" fill="#3F3D56"/>
<path d="M90.4043 90.5234V91.8906H86.5371V102H84.959V91.8906H81.0918V90.5234H90.4043ZM92.459 93.6328V99.1875C92.459 99.6146 92.5267 99.9635 92.6621 100.234C92.9121 100.734 93.3783 100.984 94.0605 100.984C95.0397 100.984 95.7064 100.547 96.0605 99.6719C96.2533 99.2031 96.3496 98.5599 96.3496 97.7422V93.6328H97.7559V102H96.4277L96.4434 100.766C96.2611 101.083 96.0345 101.352 95.7637 101.57C95.2272 102.008 94.5762 102.227 93.8105 102.227C92.6178 102.227 91.8053 101.828 91.373 101.031C91.1387 100.604 91.0215 100.034 91.0215 99.3203V93.6328H92.459Z" fill="#3F3D56"/>
<path d="M143.643 90.5234L145.807 99.8594L148.4 90.5234H150.088L152.682 99.8594L154.846 90.5234H156.549L153.533 102H151.9L149.252 92.4844L146.588 102H144.955L141.955 90.5234H143.643ZM161.01 93.4453C161.604 93.4453 162.179 93.5859 162.736 93.8672C163.294 94.1432 163.718 94.5026 164.01 94.9453C164.291 95.3672 164.479 95.8594 164.572 96.4219C164.656 96.8073 164.697 97.4219 164.697 98.2656H158.564C158.59 99.1146 158.791 99.7969 159.166 100.312C159.541 100.823 160.122 101.078 160.908 101.078C161.643 101.078 162.229 100.836 162.666 100.352C162.916 100.07 163.093 99.7448 163.197 99.375H164.58C164.544 99.6823 164.421 100.026 164.213 100.406C164.01 100.781 163.781 101.089 163.525 101.328C163.098 101.745 162.57 102.026 161.939 102.172C161.601 102.255 161.218 102.297 160.791 102.297C159.749 102.297 158.867 101.919 158.143 101.164C157.419 100.404 157.057 99.3411 157.057 97.9766C157.057 96.6328 157.421 95.5417 158.15 94.7031C158.88 93.8646 159.833 93.4453 161.01 93.4453ZM163.252 97.1484C163.195 96.5391 163.062 96.0521 162.854 95.6875C162.468 95.0104 161.825 94.6719 160.924 94.6719C160.278 94.6719 159.736 94.9062 159.299 95.375C158.861 95.8385 158.63 96.4297 158.604 97.1484H163.252Z" fill="#3F3D56"/>
<path d="M217.07 90.5234V91.8906H213.203V102H211.625V91.8906H207.758V90.5234H217.07ZM218.312 90.4844H219.719V94.7656C220.052 94.3438 220.352 94.0469 220.617 93.875C221.07 93.5781 221.635 93.4297 222.312 93.4297C223.526 93.4297 224.349 93.8542 224.781 94.7031C225.016 95.1667 225.133 95.8099 225.133 96.6328V102H223.688V96.7266C223.688 96.112 223.609 95.6615 223.453 95.375C223.198 94.9167 222.719 94.6875 222.016 94.6875C221.432 94.6875 220.904 94.888 220.43 95.2891C219.956 95.6901 219.719 96.4479 219.719 97.5625V102H218.312V90.4844Z" fill="#3F3D56"/>
<path d="M269.701 90.5234H277.662V91.9297H271.256V95.4141H276.889V96.7812H271.256V102H269.701V90.5234ZM279.186 93.6328H280.521V95.0781C280.631 94.7969 280.899 94.4557 281.326 94.0547C281.753 93.6484 282.245 93.4453 282.803 93.4453C282.829 93.4453 282.873 93.4479 282.936 93.4531C282.998 93.4583 283.105 93.4688 283.256 93.4844V94.9688C283.173 94.9531 283.094 94.9427 283.021 94.9375C282.954 94.9323 282.878 94.9297 282.795 94.9297C282.087 94.9297 281.542 95.1589 281.162 95.6172C280.782 96.0703 280.592 96.5938 280.592 97.1875V102H279.186V93.6328Z" fill="#3F3D56"/>
<path d="M328.4 98.2969C328.437 98.9479 328.59 99.4766 328.861 99.8828C329.377 100.643 330.286 101.023 331.588 101.023C332.171 101.023 332.702 100.94 333.182 100.773C334.109 100.451 334.572 99.8724 334.572 99.0391C334.572 98.4141 334.377 97.9688 333.986 97.7031C333.59 97.4427 332.971 97.2161 332.127 97.0234L330.572 96.6719C329.557 96.4427 328.838 96.1901 328.416 95.9141C327.687 95.4349 327.322 94.7188 327.322 93.7656C327.322 92.7344 327.679 91.888 328.393 91.2266C329.106 90.5651 330.117 90.2344 331.424 90.2344C332.627 90.2344 333.648 90.526 334.486 91.1094C335.33 91.6875 335.752 92.6146 335.752 93.8906H334.291C334.213 93.276 334.046 92.8047 333.791 92.4766C333.317 91.8776 332.512 91.5781 331.377 91.5781C330.46 91.5781 329.801 91.7708 329.4 92.1562C328.999 92.5417 328.799 92.9896 328.799 93.5C328.799 94.0625 329.033 94.474 329.502 94.7344C329.809 94.901 330.505 95.1094 331.588 95.3594L333.197 95.7266C333.973 95.9036 334.572 96.1458 334.994 96.4531C335.723 96.9896 336.088 97.7682 336.088 98.7891C336.088 100.06 335.624 100.969 334.697 101.516C333.775 102.062 332.702 102.336 331.479 102.336C330.051 102.336 328.934 101.971 328.127 101.242C327.32 100.518 326.924 99.5365 326.939 98.2969H328.4ZM338.947 99.7734C338.947 100.18 339.096 100.5 339.393 100.734C339.689 100.969 340.041 101.086 340.447 101.086C340.942 101.086 341.421 100.971 341.885 100.742C342.666 100.362 343.057 99.7396 343.057 98.875V97.7422C342.885 97.8516 342.663 97.9427 342.393 98.0156C342.122 98.0885 341.856 98.1406 341.596 98.1719L340.744 98.2812C340.234 98.349 339.851 98.4557 339.596 98.6016C339.163 98.8464 338.947 99.237 338.947 99.7734ZM342.354 96.9297C342.676 96.888 342.893 96.7526 343.002 96.5234C343.064 96.3984 343.096 96.2188 343.096 95.9844C343.096 95.5052 342.924 95.1589 342.58 94.9453C342.242 94.7266 341.755 94.6172 341.119 94.6172C340.385 94.6172 339.864 94.8151 339.557 95.2109C339.385 95.4297 339.273 95.7552 339.221 96.1875H337.908C337.934 95.1562 338.268 94.4401 338.908 94.0391C339.554 93.6328 340.301 93.4297 341.15 93.4297C342.135 93.4297 342.934 93.6172 343.549 93.9922C344.158 94.3672 344.463 94.9505 344.463 95.7422V100.562C344.463 100.708 344.492 100.826 344.549 100.914C344.611 101.003 344.739 101.047 344.932 101.047C344.994 101.047 345.064 101.044 345.143 101.039C345.221 101.029 345.304 101.016 345.393 101V102.039C345.174 102.102 345.007 102.141 344.893 102.156C344.778 102.172 344.622 102.18 344.424 102.18C343.939 102.18 343.588 102.008 343.369 101.664C343.255 101.482 343.174 101.224 343.127 100.891C342.84 101.266 342.429 101.591 341.893 101.867C341.356 102.143 340.765 102.281 340.119 102.281C339.343 102.281 338.708 102.047 338.213 101.578C337.723 101.104 337.479 100.513 337.479 99.8047C337.479 99.0286 337.721 98.4271 338.205 98C338.689 97.5729 339.325 97.3099 340.111 97.2109L342.354 96.9297Z" fill="#3F3D56"/>
<path d="M390.234 98.2969C390.271 98.9479 390.424 99.4766 390.695 99.8828C391.211 100.643 392.12 101.023 393.422 101.023C394.005 101.023 394.536 100.94 395.016 100.773C395.943 100.451 396.406 99.8724 396.406 99.0391C396.406 98.4141 396.211 97.9688 395.82 97.7031C395.424 97.4427 394.805 97.2161 393.961 97.0234L392.406 96.6719C391.391 96.4427 390.672 96.1901 390.25 95.9141C389.521 95.4349 389.156 94.7188 389.156 93.7656C389.156 92.7344 389.513 91.888 390.227 91.2266C390.94 90.5651 391.951 90.2344 393.258 90.2344C394.461 90.2344 395.482 90.526 396.32 91.1094C397.164 91.6875 397.586 92.6146 397.586 93.8906H396.125C396.047 93.276 395.88 92.8047 395.625 92.4766C395.151 91.8776 394.346 91.5781 393.211 91.5781C392.294 91.5781 391.635 91.7708 391.234 92.1562C390.833 92.5417 390.633 92.9896 390.633 93.5C390.633 94.0625 390.867 94.474 391.336 94.7344C391.643 94.901 392.339 95.1094 393.422 95.3594L395.031 95.7266C395.807 95.9036 396.406 96.1458 396.828 96.4531C397.557 96.9896 397.922 97.7682 397.922 98.7891C397.922 100.06 397.458 100.969 396.531 101.516C395.609 102.062 394.536 102.336 393.312 102.336C391.885 102.336 390.768 101.971 389.961 101.242C389.154 100.518 388.758 99.5365 388.773 98.2969H390.234ZM401.109 93.6328V99.1875C401.109 99.6146 401.177 99.9635 401.312 100.234C401.562 100.734 402.029 100.984 402.711 100.984C403.69 100.984 404.357 100.547 404.711 99.6719C404.904 99.2031 405 98.5599 405 97.7422V93.6328H406.406V102H405.078L405.094 100.766C404.911 101.083 404.685 101.352 404.414 101.57C403.878 102.008 403.227 102.227 402.461 102.227C401.268 102.227 400.456 101.828 400.023 101.031C399.789 100.604 399.672 100.034 399.672 99.3203V93.6328H401.109Z" fill="#3F3D56"/>
<path d="M20.5 142C20.5521 141.036 20.75 140.198 21.0938 139.484C21.4427 138.771 22.1198 138.122 23.125 137.539L24.625 136.672C25.2969 136.281 25.7682 135.948 26.0391 135.672C26.4661 135.24 26.6797 134.745 26.6797 134.188C26.6797 133.536 26.4844 133.021 26.0938 132.641C25.7031 132.255 25.1823 132.062 24.5312 132.062C23.5677 132.062 22.901 132.427 22.5312 133.156C22.3333 133.547 22.224 134.089 22.2031 134.781H20.7734C20.7891 133.807 20.9688 133.013 21.3125 132.398C21.9219 131.315 22.9974 130.773 24.5391 130.773C25.8203 130.773 26.7552 131.12 27.3438 131.812C27.9375 132.505 28.2344 133.276 28.2344 134.125C28.2344 135.021 27.9193 135.786 27.2891 136.422C26.9245 136.792 26.2708 137.24 25.3281 137.766L24.2578 138.359C23.7474 138.641 23.3464 138.909 23.0547 139.164C22.5339 139.617 22.2057 140.12 22.0703 140.672H28.1797V142H20.5ZM33.5859 130.766C34.8359 130.766 35.7057 131.091 36.1953 131.742C36.6901 132.388 36.9375 133.055 36.9375 133.742H35.5469C35.4635 133.299 35.3307 132.953 35.1484 132.703C34.8099 132.234 34.2969 132 33.6094 132C32.8229 132 32.1979 132.365 31.7344 133.094C31.2708 133.818 31.013 134.857 30.9609 136.211C31.2839 135.737 31.6901 135.383 32.1797 135.148C32.6276 134.94 33.1276 134.836 33.6797 134.836C34.6172 134.836 35.4349 135.135 36.1328 135.734C36.8307 136.333 37.1797 137.227 37.1797 138.414C37.1797 139.43 36.849 140.331 36.1875 141.117C35.526 141.898 34.5833 142.289 33.3594 142.289C32.3125 142.289 31.4089 141.893 30.6484 141.102C29.888 140.305 29.5078 138.966 29.5078 137.086C29.5078 135.695 29.6771 134.516 30.0156 133.547C30.6667 131.693 31.8568 130.766 33.5859 130.766ZM33.4844 141.039C34.224 141.039 34.776 140.792 35.1406 140.297C35.5104 139.797 35.6953 139.208 35.6953 138.531C35.6953 137.958 35.5312 137.414 35.2031 136.898C34.875 136.378 34.2786 136.117 33.4141 136.117C32.8099 136.117 32.2786 136.318 31.8203 136.719C31.3672 137.12 31.1406 137.724 31.1406 138.531C31.1406 139.24 31.3464 139.836 31.7578 140.32C32.1745 140.799 32.75 141.039 33.4844 141.039Z" fill="#E9E9E9"/>
<mask id="path-15-inside-1_2_48679" fill="white">
<path d="M24.3281 163.812C25.776 163.812 26.8229 164.409 27.4688 165.602C27.9688 166.523 28.2188 167.786 28.2188 169.391C28.2188 170.911 27.9922 172.169 27.5391 173.164C26.8828 174.591 25.8099 175.305 24.3203 175.305C22.9766 175.305 21.9766 174.721 21.3203 173.555C20.7734 172.581 20.5 171.273 20.5 169.633C20.5 168.362 20.6641 167.271 20.9922 166.359C21.6068 164.661 22.7188 163.812 24.3281 163.812ZM24.3125 174.023C25.0417 174.023 25.6224 173.701 26.0547 173.055C26.487 172.409 26.7031 171.206 26.7031 169.445C26.7031 168.174 26.5469 167.13 26.2344 166.312C25.9219 165.49 25.3151 165.078 24.4141 165.078C23.5859 165.078 22.9792 165.469 22.5938 166.25C22.2135 167.026 22.0234 168.172 22.0234 169.688C22.0234 170.828 22.1458 171.745 22.3906 172.438C22.7656 173.495 23.4062 174.023 24.3125 174.023ZM34.1953 171.039V165.969L30.6094 171.039H34.1953ZM34.2188 175V172.266H29.3125V170.891L34.4375 163.781H35.625V171.039H37.2734V172.266H35.625V175H34.2188Z"/>
</mask>
<path d="M24.3281 163.812C25.776 163.812 26.8229 164.409 27.4688 165.602C27.9688 166.523 28.2188 167.786 28.2188 169.391C28.2188 170.911 27.9922 172.169 27.5391 173.164C26.8828 174.591 25.8099 175.305 24.3203 175.305C22.9766 175.305 21.9766 174.721 21.3203 173.555C20.7734 172.581 20.5 171.273 20.5 169.633C20.5 168.362 20.6641 167.271 20.9922 166.359C21.6068 164.661 22.7188 163.812 24.3281 163.812ZM24.3125 174.023C25.0417 174.023 25.6224 173.701 26.0547 173.055C26.487 172.409 26.7031 171.206 26.7031 169.445C26.7031 168.174 26.5469 167.13 26.2344 166.312C25.9219 165.49 25.3151 165.078 24.4141 165.078C23.5859 165.078 22.9792 165.469 22.5938 166.25C22.2135 167.026 22.0234 168.172 22.0234 169.688C22.0234 170.828 22.1458 171.745 22.3906 172.438C22.7656 173.495 23.4062 174.023 24.3125 174.023ZM34.1953 171.039V165.969L30.6094 171.039H34.1953ZM34.2188 175V172.266H29.3125V170.891L34.4375 163.781H35.625V171.039H37.2734V172.266H35.625V175H34.2188Z" fill="#161616"/>
<path d="M27.4688 165.602L26.5894 166.078L26.5897 166.078L27.4688 165.602ZM27.5391 173.164L28.4476 173.582L28.4491 173.579L27.5391 173.164ZM21.3203 173.555L20.4484 174.044L20.4487 174.045L21.3203 173.555ZM20.9922 166.359L20.0519 166.019L20.0513 166.021L20.9922 166.359ZM26.2344 166.312L25.2995 166.668L25.3003 166.669L26.2344 166.312ZM22.5938 166.25L21.6969 165.808L21.6957 165.81L22.5938 166.25ZM22.3906 172.438L21.4478 172.771L21.4482 172.772L22.3906 172.438ZM24.3281 164.812C24.9135 164.812 25.3594 164.932 25.7042 165.129C26.0456 165.323 26.3439 165.624 26.5894 166.078L28.3481 165.125C27.9477 164.386 27.3997 163.793 26.6942 163.391C25.9922 162.991 25.1907 162.812 24.3281 162.812V164.812ZM26.5897 166.078C26.9792 166.796 27.2188 167.872 27.2188 169.391H29.2188C29.2188 167.701 28.9583 166.25 28.3478 165.125L26.5897 166.078ZM27.2188 169.391C27.2188 170.821 27.0044 171.925 26.629 172.75L28.4491 173.579C28.9799 172.413 29.2188 171.002 29.2188 169.391H27.2188ZM26.6305 172.746C26.3629 173.328 26.0397 173.703 25.6884 173.937C25.3405 174.168 24.8996 174.305 24.3203 174.305V176.305C25.2306 176.305 26.071 176.084 26.796 175.602C27.5176 175.122 28.059 174.427 28.4476 173.582L26.6305 172.746ZM24.3203 174.305C23.7967 174.305 23.3903 174.192 23.0664 174.003C22.7426 173.815 22.4466 173.517 22.1919 173.064L20.4487 174.045C20.8502 174.759 21.3824 175.337 22.0586 175.731C22.7347 176.125 23.5002 176.305 24.3203 176.305V174.305ZM22.1923 173.065C21.7596 172.295 21.5 171.177 21.5 169.633H19.5C19.5 171.37 19.7872 172.867 20.4484 174.044L22.1923 173.065ZM21.5 169.633C21.5 168.443 21.6541 167.473 21.9331 166.698L20.0513 166.021C19.674 167.069 19.5 168.281 19.5 169.633H21.5ZM21.9325 166.7C22.1932 165.979 22.5289 165.523 22.8939 165.244C23.2501 164.972 23.7083 164.812 24.3281 164.812V162.812C23.3386 162.812 22.4361 163.077 21.6803 163.654C20.9333 164.225 20.4057 165.041 20.0519 166.019L21.9325 166.7ZM24.3125 175.023C25.4007 175.023 26.2823 174.512 26.8857 173.611L25.2237 172.498C24.9625 172.889 24.6827 173.023 24.3125 173.023V175.023ZM26.8857 173.611C27.2098 173.127 27.4053 172.513 27.5253 171.845C27.6473 171.166 27.7031 170.361 27.7031 169.445H25.7031C25.7031 170.29 25.6509 170.967 25.5568 171.491C25.4606 172.026 25.3318 172.337 25.2237 172.498L26.8857 173.611ZM27.7031 169.445C27.7031 168.103 27.5395 166.926 27.1685 165.956L25.3003 166.669C25.5543 167.334 25.7031 168.246 25.7031 169.445H27.7031ZM27.1692 165.957C26.9549 165.393 26.6115 164.902 26.1062 164.559C25.6026 164.218 25.0184 164.078 24.4141 164.078V166.078C24.7107 166.078 24.8805 166.144 24.9837 166.214C25.0851 166.283 25.2013 166.409 25.2995 166.668L27.1692 165.957ZM24.4141 164.078C23.8371 164.078 23.2842 164.216 22.7966 164.53C22.312 164.842 21.9532 165.288 21.6969 165.808L23.4906 166.692C23.6197 166.431 23.7571 166.291 23.8792 166.212C23.9984 166.135 24.1629 166.078 24.4141 166.078V164.078ZM21.6957 165.81C21.2155 166.79 21.0234 168.118 21.0234 169.688H23.0234C23.0234 168.226 23.2116 167.262 23.4918 166.69L21.6957 165.81ZM21.0234 169.688C21.0234 170.886 21.1502 171.929 21.4478 172.771L23.3335 172.104C23.1414 171.561 23.0234 170.77 23.0234 169.688H21.0234ZM21.4482 172.772C21.6757 173.413 22.0151 173.985 22.5159 174.398C23.0321 174.824 23.6498 175.023 24.3125 175.023V173.023C24.069 173.023 23.9132 172.958 23.7888 172.856C23.6489 172.74 23.4806 172.519 23.3331 172.103L21.4482 172.772ZM34.1953 171.039V172.039H35.1953V171.039H34.1953ZM34.1953 165.969H35.1953V162.823L33.3789 165.391L34.1953 165.969ZM30.6094 171.039L29.7929 170.462L28.6773 172.039H30.6094V171.039ZM34.2188 175H33.2188V176H34.2188V175ZM34.2188 172.266H35.2188V171.266H34.2188V172.266ZM29.3125 172.266H28.3125V173.266H29.3125V172.266ZM29.3125 170.891L28.5013 170.306L28.3125 170.568V170.891H29.3125ZM34.4375 163.781V162.781H33.9256L33.6263 163.196L34.4375 163.781ZM35.625 163.781H36.625V162.781H35.625V163.781ZM35.625 171.039H34.625V172.039H35.625V171.039ZM37.2734 171.039H38.2734V170.039H37.2734V171.039ZM37.2734 172.266V173.266H38.2734V172.266H37.2734ZM35.625 172.266V171.266H34.625V172.266H35.625ZM35.625 175V176H36.625V175H35.625ZM35.1953 171.039V165.969H33.1953V171.039H35.1953ZM33.3789 165.391L29.7929 170.462L31.4258 171.616L35.0118 166.546L33.3789 165.391ZM30.6094 172.039H34.1953V170.039H30.6094V172.039ZM35.2188 175V172.266H33.2188V175H35.2188ZM34.2188 171.266H29.3125V173.266H34.2188V171.266ZM30.3125 172.266V170.891H28.3125V172.266H30.3125ZM30.1237 171.475L35.2487 164.366L33.6263 163.196L28.5013 170.306L30.1237 171.475ZM34.4375 164.781H35.625V162.781H34.4375V164.781ZM34.625 163.781V171.039H36.625V163.781H34.625ZM35.625 172.039H37.2734V170.039H35.625V172.039ZM36.2734 171.039V172.266H38.2734V171.039H36.2734ZM37.2734 171.266H35.625V173.266H37.2734V171.266ZM34.625 172.266V175H36.625V172.266H34.625ZM35.625 174H34.2188V176H35.625V174Z" fill="#161616" mask="url(#path-15-inside-1_2_48679)"/>
<circle cx="29" cy="180" r="1" fill="#161616"/>
<path d="M22.0312 200.078V199C23.0469 198.901 23.7552 198.737 24.1562 198.508C24.5573 198.273 24.8568 197.724 25.0547 196.859H26.1641V208H24.6641V200.078H22.0312ZM29.75 200.078V199C30.7656 198.901 31.474 198.737 31.875 198.508C32.276 198.273 32.5755 197.724 32.7734 196.859H33.8828V208H32.3828V200.078H29.75Z" fill="#161616"/>
<path d="M21.5312 232.078V231C22.5469 230.901 23.2552 230.737 23.6562 230.508C24.0573 230.273 24.3568 229.724 24.5547 228.859H25.6641V240H24.1641V232.078H21.5312ZM33.2578 233.5C33.8776 233.5 34.362 233.328 34.7109 232.984C35.0599 232.635 35.2344 232.221 35.2344 231.742C35.2344 231.326 35.0677 230.943 34.7344 230.594C34.401 230.245 33.8932 230.07 33.2109 230.07C32.5339 230.07 32.0443 230.245 31.7422 230.594C31.4401 230.943 31.2891 231.352 31.2891 231.82C31.2891 232.346 31.4844 232.758 31.875 233.055C32.2656 233.352 32.7266 233.5 33.2578 233.5ZM33.3438 239.039C33.9948 239.039 34.5339 238.865 34.9609 238.516C35.3932 238.161 35.6094 237.635 35.6094 236.938C35.6094 236.214 35.388 235.664 34.9453 235.289C34.5026 234.914 33.9349 234.727 33.2422 234.727C32.5703 234.727 32.0208 234.919 31.5938 235.305C31.1719 235.685 30.9609 236.214 30.9609 236.891C30.9609 237.474 31.1536 237.979 31.5391 238.406C31.9297 238.828 32.5312 239.039 33.3438 239.039ZM31.3438 234.039C30.9531 233.872 30.6484 233.677 30.4297 233.453C30.0182 233.036 29.8125 232.495 29.8125 231.828C29.8125 230.995 30.1146 230.279 30.7188 229.68C31.3229 229.081 32.1797 228.781 33.2891 228.781C34.362 228.781 35.2031 229.065 35.8125 229.633C36.4219 230.195 36.7266 230.854 36.7266 231.609C36.7266 232.307 36.5495 232.872 36.1953 233.305C35.9974 233.549 35.6901 233.789 35.2734 234.023C35.737 234.237 36.1016 234.482 36.3672 234.758C36.862 235.279 37.1094 235.956 37.1094 236.789C37.1094 237.773 36.7786 238.609 36.1172 239.297C35.4557 239.979 34.5208 240.32 33.3125 240.32C32.224 240.32 31.3021 240.026 30.5469 239.438C29.7969 238.844 29.4219 237.984 29.4219 236.859C29.4219 236.198 29.5833 235.628 29.9062 235.148C30.2292 234.664 30.7083 234.294 31.3438 234.039Z" fill="#161616"/>
<path d="M20.5 272C20.5521 271.036 20.75 270.198 21.0938 269.484C21.4427 268.771 22.1198 268.122 23.125 267.539L24.625 266.672C25.2969 266.281 25.7682 265.948 26.0391 265.672C26.4661 265.24 26.6797 264.745 26.6797 264.188C26.6797 263.536 26.4844 263.021 26.0938 262.641C25.7031 262.255 25.1823 262.062 24.5312 262.062C23.5677 262.062 22.901 262.427 22.5312 263.156C22.3333 263.547 22.224 264.089 22.2031 264.781H20.7734C20.7891 263.807 20.9688 263.013 21.3125 262.398C21.9219 261.315 22.9974 260.773 24.5391 260.773C25.8203 260.773 26.7552 261.12 27.3438 261.812C27.9375 262.505 28.2344 263.276 28.2344 264.125C28.2344 265.021 27.9193 265.786 27.2891 266.422C26.9245 266.792 26.2708 267.24 25.3281 267.766L24.2578 268.359C23.7474 268.641 23.3464 268.909 23.0547 269.164C22.5339 269.617 22.2057 270.12 22.0703 270.672H28.1797V272H20.5ZM30.8828 269.148C30.9766 269.951 31.349 270.505 32 270.812C32.3333 270.969 32.7188 271.047 33.1562 271.047C33.9896 271.047 34.6068 270.781 35.0078 270.25C35.4089 269.719 35.6094 269.13 35.6094 268.484C35.6094 267.703 35.3698 267.099 34.8906 266.672C34.4167 266.245 33.8464 266.031 33.1797 266.031C32.6953 266.031 32.2786 266.125 31.9297 266.312C31.5859 266.5 31.2917 266.76 31.0469 267.094L29.8281 267.023L30.6797 261H36.4922V262.359H31.7344L31.2578 265.469C31.5182 265.271 31.7656 265.122 32 265.023C32.4167 264.852 32.8984 264.766 33.4453 264.766C34.4714 264.766 35.3411 265.096 36.0547 265.758C36.7682 266.419 37.125 267.258 37.125 268.273C37.125 269.331 36.7969 270.263 36.1406 271.07C35.4896 271.878 34.4479 272.281 33.0156 272.281C32.1042 272.281 31.2969 272.026 30.5938 271.516C29.8958 271 29.5052 270.211 29.4219 269.148H30.8828Z" fill="#161616"/>
<path d="M85.5 142C85.5521 141.036 85.75 140.198 86.0938 139.484C86.4427 138.771 87.1198 138.122 88.125 137.539L89.625 136.672C90.2969 136.281 90.7682 135.948 91.0391 135.672C91.4661 135.24 91.6797 134.745 91.6797 134.188C91.6797 133.536 91.4844 133.021 91.0938 132.641C90.7031 132.255 90.1823 132.062 89.5312 132.062C88.5677 132.062 87.901 132.427 87.5312 133.156C87.3333 133.547 87.224 134.089 87.2031 134.781H85.7734C85.7891 133.807 85.9688 133.013 86.3125 132.398C86.9219 131.315 87.9974 130.773 89.5391 130.773C90.8203 130.773 91.7552 131.12 92.3438 131.812C92.9375 132.505 93.2344 133.276 93.2344 134.125C93.2344 135.021 92.9193 135.786 92.2891 136.422C91.9245 136.792 91.2708 137.24 90.3281 137.766L89.2578 138.359C88.7474 138.641 88.3464 138.909 88.0547 139.164C87.5339 139.617 87.2057 140.12 87.0703 140.672H93.1797V142H85.5ZM102.273 131V132.227C101.914 132.576 101.435 133.182 100.836 134.047C100.242 134.911 99.7161 135.844 99.2578 136.844C98.8047 137.818 98.4609 138.706 98.2266 139.508C98.0755 140.023 97.8802 140.854 97.6406 142H96.0859C96.4401 139.865 97.2214 137.74 98.4297 135.625C99.1432 134.385 99.8932 133.315 100.68 132.414H94.4922V131H102.273Z" fill="#E9E9E9"/>
<rect x="81" y="156" width="26" height="24" rx="12" fill="#BBC2FA"/>
<path d="M89.3281 162.812C90.776 162.812 91.8229 163.409 92.4688 164.602C92.9688 165.523 93.2188 166.786 93.2188 168.391C93.2188 169.911 92.9922 171.169 92.5391 172.164C91.8828 173.591 90.8099 174.305 89.3203 174.305C87.9766 174.305 86.9766 173.721 86.3203 172.555C85.7734 171.581 85.5 170.273 85.5 168.633C85.5 167.362 85.6641 166.271 85.9922 165.359C86.6068 163.661 87.7188 162.812 89.3281 162.812ZM89.3125 173.023C90.0417 173.023 90.6224 172.701 91.0547 172.055C91.487 171.409 91.7031 170.206 91.7031 168.445C91.7031 167.174 91.5469 166.13 91.2344 165.312C90.9219 164.49 90.3151 164.078 89.4141 164.078C88.5859 164.078 87.9792 164.469 87.5938 165.25C87.2135 166.026 87.0234 167.172 87.0234 168.688C87.0234 169.828 87.1458 170.745 87.3906 171.438C87.7656 172.495 88.4062 173.023 89.3125 173.023ZM95.8828 171.148C95.9766 171.951 96.349 172.505 97 172.812C97.3333 172.969 97.7188 173.047 98.1562 173.047C98.9896 173.047 99.6068 172.781 100.008 172.25C100.409 171.719 100.609 171.13 100.609 170.484C100.609 169.703 100.37 169.099 99.8906 168.672C99.4167 168.245 98.8464 168.031 98.1797 168.031C97.6953 168.031 97.2786 168.125 96.9297 168.312C96.5859 168.5 96.2917 168.76 96.0469 169.094L94.8281 169.023L95.6797 163H101.492V164.359H96.7344L96.2578 167.469C96.5182 167.271 96.7656 167.122 97 167.023C97.4167 166.852 97.8984 166.766 98.4453 166.766C99.4714 166.766 100.341 167.096 101.055 167.758C101.768 168.419 102.125 169.258 102.125 170.273C102.125 171.331 101.797 172.263 101.141 173.07C100.49 173.878 99.4479 174.281 98.0156 174.281C97.1042 174.281 96.2969 174.026 95.5938 173.516C94.8958 173 94.5052 172.211 94.4219 171.148H95.8828Z" fill="#161616"/>
<path d="M86.5312 198.078V197C87.5469 196.901 88.2552 196.737 88.6562 196.508C89.0573 196.273 89.3568 195.724 89.5547 194.859H90.6641V206H89.1641V198.078H86.5312ZM94.4062 206C94.4583 205.036 94.6562 204.198 95 203.484C95.349 202.771 96.026 202.122 97.0312 201.539L98.5312 200.672C99.2031 200.281 99.6745 199.948 99.9453 199.672C100.372 199.24 100.586 198.745 100.586 198.188C100.586 197.536 100.391 197.021 100 196.641C99.6094 196.255 99.0885 196.062 98.4375 196.062C97.474 196.062 96.8073 196.427 96.4375 197.156C96.2396 197.547 96.1302 198.089 96.1094 198.781H94.6797C94.6953 197.807 94.875 197.013 95.2188 196.398C95.8281 195.315 96.9036 194.773 98.4453 194.773C99.7266 194.773 100.661 195.12 101.25 195.812C101.844 196.505 102.141 197.276 102.141 198.125C102.141 199.021 101.826 199.786 101.195 200.422C100.831 200.792 100.177 201.24 99.2344 201.766L98.1641 202.359C97.6536 202.641 97.2526 202.909 96.9609 203.164C96.4401 203.617 96.112 204.12 95.9766 204.672H102.086V206H94.4062Z" fill="#161616"/>
<path d="M86.5312 230.078V229C87.5469 228.901 88.2552 228.737 88.6562 228.508C89.0573 228.273 89.3568 227.724 89.5547 226.859H90.6641V238H89.1641V230.078H86.5312ZM96.0312 235.297C96.0729 236.073 96.3724 236.609 96.9297 236.906C97.2161 237.062 97.5391 237.141 97.8984 237.141C98.5703 237.141 99.1432 236.862 99.6172 236.305C100.091 235.742 100.427 234.604 100.625 232.891C100.312 233.385 99.9245 233.734 99.4609 233.938C99.0026 234.135 98.5078 234.234 97.9766 234.234C96.8984 234.234 96.0443 233.898 95.4141 233.227C94.7891 232.555 94.4766 231.69 94.4766 230.633C94.4766 229.617 94.7865 228.724 95.4062 227.953C96.026 227.182 96.9401 226.797 98.1484 226.797C99.7786 226.797 100.904 227.531 101.523 229C101.867 229.807 102.039 230.818 102.039 232.031C102.039 233.401 101.833 234.615 101.422 235.672C100.74 237.432 99.5833 238.312 97.9531 238.312C96.8594 238.312 96.0286 238.026 95.4609 237.453C94.8932 236.88 94.6094 236.161 94.6094 235.297H96.0312ZM98.1641 233C98.7214 233 99.2292 232.818 99.6875 232.453C100.151 232.083 100.383 231.44 100.383 230.523C100.383 229.701 100.174 229.089 99.7578 228.688C99.3464 228.281 98.8203 228.078 98.1797 228.078C97.4922 228.078 96.9453 228.31 96.5391 228.773C96.138 229.232 95.9375 229.846 95.9375 230.617C95.9375 231.346 96.1146 231.927 96.4688 232.359C96.8229 232.786 97.388 233 98.1641 233Z" fill="#161616"/>
<path d="M85.5 270C85.5521 269.036 85.75 268.198 86.0938 267.484C86.4427 266.771 87.1198 266.122 88.125 265.539L89.625 264.672C90.2969 264.281 90.7682 263.948 91.0391 263.672C91.4661 263.24 91.6797 262.745 91.6797 262.188C91.6797 261.536 91.4844 261.021 91.0938 260.641C90.7031 260.255 90.1823 260.062 89.5312 260.062C88.5677 260.062 87.901 260.427 87.5312 261.156C87.3333 261.547 87.224 262.089 87.2031 262.781H85.7734C85.7891 261.807 85.9688 261.013 86.3125 260.398C86.9219 259.315 87.9974 258.773 89.5391 258.773C90.8203 258.773 91.7552 259.12 92.3438 259.812C92.9375 260.505 93.2344 261.276 93.2344 262.125C93.2344 263.021 92.9193 263.786 92.2891 264.422C91.9245 264.792 91.2708 265.24 90.3281 265.766L89.2578 266.359C88.7474 266.641 88.3464 266.909 88.0547 267.164C87.5339 267.617 87.2057 268.12 87.0703 268.672H93.1797V270H85.5ZM98.5859 258.766C99.8359 258.766 100.706 259.091 101.195 259.742C101.69 260.388 101.938 261.055 101.938 261.742H100.547C100.464 261.299 100.331 260.953 100.148 260.703C99.8099 260.234 99.2969 260 98.6094 260C97.8229 260 97.1979 260.365 96.7344 261.094C96.2708 261.818 96.013 262.857 95.9609 264.211C96.2839 263.737 96.6901 263.383 97.1797 263.148C97.6276 262.94 98.1276 262.836 98.6797 262.836C99.6172 262.836 100.435 263.135 101.133 263.734C101.831 264.333 102.18 265.227 102.18 266.414C102.18 267.43 101.849 268.331 101.188 269.117C100.526 269.898 99.5833 270.289 98.3594 270.289C97.3125 270.289 96.4089 269.893 95.6484 269.102C94.888 268.305 94.5078 266.966 94.5078 265.086C94.5078 263.695 94.6771 262.516 95.0156 261.547C95.6667 259.693 96.8568 258.766 98.5859 258.766ZM98.4844 269.039C99.224 269.039 99.776 268.792 100.141 268.297C100.51 267.797 100.695 267.208 100.695 266.531C100.695 265.958 100.531 265.414 100.203 264.898C99.875 264.378 99.2786 264.117 98.4141 264.117C97.8099 264.117 97.2786 264.318 96.8203 264.719C96.3672 265.12 96.1406 265.724 96.1406 266.531C96.1406 267.24 96.3464 267.836 96.7578 268.32C97.1745 268.799 97.75 269.039 98.4844 269.039Z" fill="#161616"/>
<path d="M146.5 142C146.552 141.036 146.75 140.198 147.094 139.484C147.443 138.771 148.12 138.122 149.125 137.539L150.625 136.672C151.297 136.281 151.768 135.948 152.039 135.672C152.466 135.24 152.68 134.745 152.68 134.188C152.68 133.536 152.484 133.021 152.094 132.641C151.703 132.255 151.182 132.062 150.531 132.062C149.568 132.062 148.901 132.427 148.531 133.156C148.333 133.547 148.224 134.089 148.203 134.781H146.773C146.789 133.807 146.969 133.013 147.312 132.398C147.922 131.315 148.997 130.773 150.539 130.773C151.82 130.773 152.755 131.12 153.344 131.812C153.938 132.505 154.234 133.276 154.234 134.125C154.234 135.021 153.919 135.786 153.289 136.422C152.924 136.792 152.271 137.24 151.328 137.766L150.258 138.359C149.747 138.641 149.346 138.909 149.055 139.164C148.534 139.617 148.206 140.12 148.07 140.672H154.18V142H146.5ZM159.258 135.5C159.878 135.5 160.362 135.328 160.711 134.984C161.06 134.635 161.234 134.221 161.234 133.742C161.234 133.326 161.068 132.943 160.734 132.594C160.401 132.245 159.893 132.07 159.211 132.07C158.534 132.07 158.044 132.245 157.742 132.594C157.44 132.943 157.289 133.352 157.289 133.82C157.289 134.346 157.484 134.758 157.875 135.055C158.266 135.352 158.727 135.5 159.258 135.5ZM159.344 141.039C159.995 141.039 160.534 140.865 160.961 140.516C161.393 140.161 161.609 139.635 161.609 138.938C161.609 138.214 161.388 137.664 160.945 137.289C160.503 136.914 159.935 136.727 159.242 136.727C158.57 136.727 158.021 136.919 157.594 137.305C157.172 137.685 156.961 138.214 156.961 138.891C156.961 139.474 157.154 139.979 157.539 140.406C157.93 140.828 158.531 141.039 159.344 141.039ZM157.344 136.039C156.953 135.872 156.648 135.677 156.43 135.453C156.018 135.036 155.812 134.495 155.812 133.828C155.812 132.995 156.115 132.279 156.719 131.68C157.323 131.081 158.18 130.781 159.289 130.781C160.362 130.781 161.203 131.065 161.812 131.633C162.422 132.195 162.727 132.854 162.727 133.609C162.727 134.307 162.549 134.872 162.195 135.305C161.997 135.549 161.69 135.789 161.273 136.023C161.737 136.237 162.102 136.482 162.367 136.758C162.862 137.279 163.109 137.956 163.109 138.789C163.109 139.773 162.779 140.609 162.117 141.297C161.456 141.979 160.521 142.32 159.312 142.32C158.224 142.32 157.302 142.026 156.547 141.438C155.797 140.844 155.422 139.984 155.422 138.859C155.422 138.198 155.583 137.628 155.906 137.148C156.229 136.664 156.708 136.294 157.344 136.039Z" fill="#E9E9E9"/>
<path d="M150.328 162.812C151.776 162.812 152.823 163.409 153.469 164.602C153.969 165.523 154.219 166.786 154.219 168.391C154.219 169.911 153.992 171.169 153.539 172.164C152.883 173.591 151.81 174.305 150.32 174.305C148.977 174.305 147.977 173.721 147.32 172.555C146.773 171.581 146.5 170.273 146.5 168.633C146.5 167.362 146.664 166.271 146.992 165.359C147.607 163.661 148.719 162.812 150.328 162.812ZM150.312 173.023C151.042 173.023 151.622 172.701 152.055 172.055C152.487 171.409 152.703 170.206 152.703 168.445C152.703 167.174 152.547 166.13 152.234 165.312C151.922 164.49 151.315 164.078 150.414 164.078C149.586 164.078 148.979 164.469 148.594 165.25C148.214 166.026 148.023 167.172 148.023 168.688C148.023 169.828 148.146 170.745 148.391 171.438C148.766 172.495 149.406 173.023 150.312 173.023ZM159.586 162.766C160.836 162.766 161.706 163.091 162.195 163.742C162.69 164.388 162.938 165.055 162.938 165.742H161.547C161.464 165.299 161.331 164.953 161.148 164.703C160.81 164.234 160.297 164 159.609 164C158.823 164 158.198 164.365 157.734 165.094C157.271 165.818 157.013 166.857 156.961 168.211C157.284 167.737 157.69 167.383 158.18 167.148C158.628 166.94 159.128 166.836 159.68 166.836C160.617 166.836 161.435 167.135 162.133 167.734C162.831 168.333 163.18 169.227 163.18 170.414C163.18 171.43 162.849 172.331 162.188 173.117C161.526 173.898 160.583 174.289 159.359 174.289C158.312 174.289 157.409 173.893 156.648 173.102C155.888 172.305 155.508 170.966 155.508 169.086C155.508 167.695 155.677 166.516 156.016 165.547C156.667 163.693 157.857 162.766 159.586 162.766ZM159.484 173.039C160.224 173.039 160.776 172.792 161.141 172.297C161.51 171.797 161.695 171.208 161.695 170.531C161.695 169.958 161.531 169.414 161.203 168.898C160.875 168.378 160.279 168.117 159.414 168.117C158.81 168.117 158.279 168.318 157.82 168.719C157.367 169.12 157.141 169.724 157.141 170.531C157.141 171.24 157.346 171.836 157.758 172.32C158.174 172.799 158.75 173.039 159.484 173.039Z" fill="#161616"/>
<path d="M147.531 198.078V197C148.547 196.901 149.255 196.737 149.656 196.508C150.057 196.273 150.357 195.724 150.555 194.859H151.664V206H150.164V198.078H147.531ZM159.062 206.305C157.74 206.305 156.779 205.943 156.18 205.219C155.586 204.49 155.289 203.604 155.289 202.562H156.758C156.82 203.286 156.956 203.812 157.164 204.141C157.529 204.729 158.188 205.023 159.141 205.023C159.88 205.023 160.474 204.826 160.922 204.43C161.37 204.034 161.594 203.523 161.594 202.898C161.594 202.128 161.357 201.589 160.883 201.281C160.414 200.974 159.76 200.82 158.922 200.82C158.828 200.82 158.732 200.823 158.633 200.828C158.539 200.828 158.443 200.831 158.344 200.836V199.594C158.49 199.609 158.612 199.62 158.711 199.625C158.81 199.63 158.917 199.633 159.031 199.633C159.557 199.633 159.99 199.549 160.328 199.383C160.922 199.091 161.219 198.57 161.219 197.82C161.219 197.263 161.021 196.833 160.625 196.531C160.229 196.229 159.768 196.078 159.242 196.078C158.305 196.078 157.656 196.391 157.297 197.016C157.099 197.359 156.987 197.849 156.961 198.484H155.57C155.57 197.651 155.737 196.943 156.07 196.359C156.643 195.318 157.651 194.797 159.094 194.797C160.234 194.797 161.117 195.052 161.742 195.562C162.367 196.068 162.68 196.802 162.68 197.766C162.68 198.453 162.495 199.01 162.125 199.438C161.896 199.703 161.599 199.911 161.234 200.062C161.823 200.224 162.281 200.536 162.609 201C162.943 201.458 163.109 202.021 163.109 202.688C163.109 203.755 162.758 204.625 162.055 205.297C161.352 205.969 160.354 206.305 159.062 206.305Z" fill="#161616"/>
<path d="M146.5 238C146.552 237.036 146.75 236.198 147.094 235.484C147.443 234.771 148.12 234.122 149.125 233.539L150.625 232.672C151.297 232.281 151.768 231.948 152.039 231.672C152.466 231.24 152.68 230.745 152.68 230.188C152.68 229.536 152.484 229.021 152.094 228.641C151.703 228.255 151.182 228.062 150.531 228.062C149.568 228.062 148.901 228.427 148.531 229.156C148.333 229.547 148.224 230.089 148.203 230.781H146.773C146.789 229.807 146.969 229.013 147.312 228.398C147.922 227.315 148.997 226.773 150.539 226.773C151.82 226.773 152.755 227.12 153.344 227.812C153.938 228.505 154.234 229.276 154.234 230.125C154.234 231.021 153.919 231.786 153.289 232.422C152.924 232.792 152.271 233.24 151.328 233.766L150.258 234.359C149.747 234.641 149.346 234.909 149.055 235.164C148.534 235.617 148.206 236.12 148.07 236.672H154.18V238H146.5ZM159.234 226.812C160.682 226.812 161.729 227.409 162.375 228.602C162.875 229.523 163.125 230.786 163.125 232.391C163.125 233.911 162.898 235.169 162.445 236.164C161.789 237.591 160.716 238.305 159.227 238.305C157.883 238.305 156.883 237.721 156.227 236.555C155.68 235.581 155.406 234.273 155.406 232.633C155.406 231.362 155.57 230.271 155.898 229.359C156.513 227.661 157.625 226.812 159.234 226.812ZM159.219 237.023C159.948 237.023 160.529 236.701 160.961 236.055C161.393 235.409 161.609 234.206 161.609 232.445C161.609 231.174 161.453 230.13 161.141 229.312C160.828 228.49 160.221 228.078 159.32 228.078C158.492 228.078 157.885 228.469 157.5 229.25C157.12 230.026 156.93 231.172 156.93 232.688C156.93 233.828 157.052 234.745 157.297 235.438C157.672 236.495 158.312 237.023 159.219 237.023Z" fill="#161616"/>
<path d="M146.5 270C146.552 269.036 146.75 268.198 147.094 267.484C147.443 266.771 148.12 266.122 149.125 265.539L150.625 264.672C151.297 264.281 151.768 263.948 152.039 263.672C152.466 263.24 152.68 262.745 152.68 262.188C152.68 261.536 152.484 261.021 152.094 260.641C151.703 260.255 151.182 260.062 150.531 260.062C149.568 260.062 148.901 260.427 148.531 261.156C148.333 261.547 148.224 262.089 148.203 262.781H146.773C146.789 261.807 146.969 261.013 147.312 260.398C147.922 259.315 148.997 258.773 150.539 258.773C151.82 258.773 152.755 259.12 153.344 259.812C153.938 260.505 154.234 261.276 154.234 262.125C154.234 263.021 153.919 263.786 153.289 264.422C152.924 264.792 152.271 265.24 151.328 265.766L150.258 266.359C149.747 266.641 149.346 266.909 149.055 267.164C148.534 267.617 148.206 268.12 148.07 268.672H154.18V270H146.5ZM163.273 259V260.227C162.914 260.576 162.435 261.182 161.836 262.047C161.242 262.911 160.716 263.844 160.258 264.844C159.805 265.818 159.461 266.706 159.227 267.508C159.076 268.023 158.88 268.854 158.641 270H157.086C157.44 267.865 158.221 265.74 159.43 263.625C160.143 262.385 160.893 261.315 161.68 260.414H155.492V259H163.273Z" fill="#161616"/>
<path d="M207.5 142C207.552 141.036 207.75 140.198 208.094 139.484C208.443 138.771 209.12 138.122 210.125 137.539L211.625 136.672C212.297 136.281 212.768 135.948 213.039 135.672C213.466 135.24 213.68 134.745 213.68 134.188C213.68 133.536 213.484 133.021 213.094 132.641C212.703 132.255 212.182 132.062 211.531 132.062C210.568 132.062 209.901 132.427 209.531 133.156C209.333 133.547 209.224 134.089 209.203 134.781H207.773C207.789 133.807 207.969 133.013 208.312 132.398C208.922 131.315 209.997 130.773 211.539 130.773C212.82 130.773 213.755 131.12 214.344 131.812C214.938 132.505 215.234 133.276 215.234 134.125C215.234 135.021 214.919 135.786 214.289 136.422C213.924 136.792 213.271 137.24 212.328 137.766L211.258 138.359C210.747 138.641 210.346 138.909 210.055 139.164C209.534 139.617 209.206 140.12 209.07 140.672H215.18V142H207.5ZM218.031 139.297C218.073 140.073 218.372 140.609 218.93 140.906C219.216 141.062 219.539 141.141 219.898 141.141C220.57 141.141 221.143 140.862 221.617 140.305C222.091 139.742 222.427 138.604 222.625 136.891C222.312 137.385 221.924 137.734 221.461 137.938C221.003 138.135 220.508 138.234 219.977 138.234C218.898 138.234 218.044 137.898 217.414 137.227C216.789 136.555 216.477 135.69 216.477 134.633C216.477 133.617 216.786 132.724 217.406 131.953C218.026 131.182 218.94 130.797 220.148 130.797C221.779 130.797 222.904 131.531 223.523 133C223.867 133.807 224.039 134.818 224.039 136.031C224.039 137.401 223.833 138.615 223.422 139.672C222.74 141.432 221.583 142.312 219.953 142.312C218.859 142.312 218.029 142.026 217.461 141.453C216.893 140.88 216.609 140.161 216.609 139.297H218.031ZM220.164 137C220.721 137 221.229 136.818 221.688 136.453C222.151 136.083 222.383 135.44 222.383 134.523C222.383 133.701 222.174 133.089 221.758 132.688C221.346 132.281 220.82 132.078 220.18 132.078C219.492 132.078 218.945 132.31 218.539 132.773C218.138 133.232 217.938 133.846 217.938 134.617C217.938 135.346 218.115 135.927 218.469 136.359C218.823 136.786 219.388 137 220.164 137Z" fill="#E9E9E9"/>
<path d="M211.328 162.812C212.776 162.812 213.823 163.409 214.469 164.602C214.969 165.523 215.219 166.786 215.219 168.391C215.219 169.911 214.992 171.169 214.539 172.164C213.883 173.591 212.81 174.305 211.32 174.305C209.977 174.305 208.977 173.721 208.32 172.555C207.773 171.581 207.5 170.273 207.5 168.633C207.5 167.362 207.664 166.271 207.992 165.359C208.607 163.661 209.719 162.812 211.328 162.812ZM211.312 173.023C212.042 173.023 212.622 172.701 213.055 172.055C213.487 171.409 213.703 170.206 213.703 168.445C213.703 167.174 213.547 166.13 213.234 165.312C212.922 164.49 212.315 164.078 211.414 164.078C210.586 164.078 209.979 164.469 209.594 165.25C209.214 166.026 209.023 167.172 209.023 168.688C209.023 169.828 209.146 170.745 209.391 171.438C209.766 172.495 210.406 173.023 211.312 173.023ZM224.273 163V164.227C223.914 164.576 223.435 165.182 222.836 166.047C222.242 166.911 221.716 167.844 221.258 168.844C220.805 169.818 220.461 170.706 220.227 171.508C220.076 172.023 219.88 172.854 219.641 174H218.086C218.44 171.865 219.221 169.74 220.43 167.625C221.143 166.385 221.893 165.315 222.68 164.414H216.492V163H224.273Z" fill="#161616"/>
<rect x="203" y="188" width="26" height="24" rx="12" fill="#BBC2FA"/>
<path d="M208.531 198.078V197C209.547 196.901 210.255 196.737 210.656 196.508C211.057 196.273 211.357 195.724 211.555 194.859H212.664V206H211.164V198.078H208.531ZM221.195 202.039V196.969L217.609 202.039H221.195ZM221.219 206V203.266H216.312V201.891L221.438 194.781H222.625V202.039H224.273V203.266H222.625V206H221.219Z" fill="#161616"/>
<path d="M207.5 238C207.552 237.036 207.75 236.198 208.094 235.484C208.443 234.771 209.12 234.122 210.125 233.539L211.625 232.672C212.297 232.281 212.768 231.948 213.039 231.672C213.466 231.24 213.68 230.745 213.68 230.188C213.68 229.536 213.484 229.021 213.094 228.641C212.703 228.255 212.182 228.062 211.531 228.062C210.568 228.062 209.901 228.427 209.531 229.156C209.333 229.547 209.224 230.089 209.203 230.781H207.773C207.789 229.807 207.969 229.013 208.312 228.398C208.922 227.315 209.997 226.773 211.539 226.773C212.82 226.773 213.755 227.12 214.344 227.812C214.938 228.505 215.234 229.276 215.234 230.125C215.234 231.021 214.919 231.786 214.289 232.422C213.924 232.792 213.271 233.24 212.328 233.766L211.258 234.359C210.747 234.641 210.346 234.909 210.055 235.164C209.534 235.617 209.206 236.12 209.07 236.672H215.18V238H207.5ZM217.438 230.078V229C218.453 228.901 219.161 228.737 219.562 228.508C219.964 228.273 220.263 227.724 220.461 226.859H221.57V238H220.07V230.078H217.438Z" fill="#161616"/>
<path d="M207.5 270C207.552 269.036 207.75 268.198 208.094 267.484C208.443 266.771 209.12 266.122 210.125 265.539L211.625 264.672C212.297 264.281 212.768 263.948 213.039 263.672C213.466 263.24 213.68 262.745 213.68 262.188C213.68 261.536 213.484 261.021 213.094 260.641C212.703 260.255 212.182 260.062 211.531 260.062C210.568 260.062 209.901 260.427 209.531 261.156C209.333 261.547 209.224 262.089 209.203 262.781H207.773C207.789 261.807 207.969 261.013 208.312 260.398C208.922 259.315 209.997 258.773 211.539 258.773C212.82 258.773 213.755 259.12 214.344 259.812C214.938 260.505 215.234 261.276 215.234 262.125C215.234 263.021 214.919 263.786 214.289 264.422C213.924 264.792 213.271 265.24 212.328 265.766L211.258 266.359C210.747 266.641 210.346 266.909 210.055 267.164C209.534 267.617 209.206 268.12 209.07 268.672H215.18V270H207.5ZM220.258 263.5C220.878 263.5 221.362 263.328 221.711 262.984C222.06 262.635 222.234 262.221 222.234 261.742C222.234 261.326 222.068 260.943 221.734 260.594C221.401 260.245 220.893 260.07 220.211 260.07C219.534 260.07 219.044 260.245 218.742 260.594C218.44 260.943 218.289 261.352 218.289 261.82C218.289 262.346 218.484 262.758 218.875 263.055C219.266 263.352 219.727 263.5 220.258 263.5ZM220.344 269.039C220.995 269.039 221.534 268.865 221.961 268.516C222.393 268.161 222.609 267.635 222.609 266.938C222.609 266.214 222.388 265.664 221.945 265.289C221.503 264.914 220.935 264.727 220.242 264.727C219.57 264.727 219.021 264.919 218.594 265.305C218.172 265.685 217.961 266.214 217.961 266.891C217.961 267.474 218.154 267.979 218.539 268.406C218.93 268.828 219.531 269.039 220.344 269.039ZM218.344 264.039C217.953 263.872 217.648 263.677 217.43 263.453C217.018 263.036 216.812 262.495 216.812 261.828C216.812 260.995 217.115 260.279 217.719 259.68C218.323 259.081 219.18 258.781 220.289 258.781C221.362 258.781 222.203 259.065 222.812 259.633C223.422 260.195 223.727 260.854 223.727 261.609C223.727 262.307 223.549 262.872 223.195 263.305C222.997 263.549 222.69 263.789 222.273 264.023C222.737 264.237 223.102 264.482 223.367 264.758C223.862 265.279 224.109 265.956 224.109 266.789C224.109 267.773 223.779 268.609 223.117 269.297C222.456 269.979 221.521 270.32 220.312 270.32C219.224 270.32 218.302 270.026 217.547 269.438C216.797 268.844 216.422 267.984 216.422 266.859C216.422 266.198 216.583 265.628 216.906 265.148C217.229 264.664 217.708 264.294 218.344 264.039Z" fill="#161616"/>
<path d="M276.328 130.812C277.776 130.812 278.823 131.409 279.469 132.602C279.969 133.523 280.219 134.786 280.219 136.391C280.219 137.911 279.992 139.169 279.539 140.164C278.883 141.591 277.81 142.305 276.32 142.305C274.977 142.305 273.977 141.721 273.32 140.555C272.773 139.581 272.5 138.273 272.5 136.633C272.5 135.362 272.664 134.271 272.992 133.359C273.607 131.661 274.719 130.812 276.328 130.812ZM276.312 141.023C277.042 141.023 277.622 140.701 278.055 140.055C278.487 139.409 278.703 138.206 278.703 136.445C278.703 135.174 278.547 134.13 278.234 133.312C277.922 132.49 277.315 132.078 276.414 132.078C275.586 132.078 274.979 132.469 274.594 133.25C274.214 134.026 274.023 135.172 274.023 136.688C274.023 137.828 274.146 138.745 274.391 139.438C274.766 140.495 275.406 141.023 276.312 141.023ZM282.438 134.078V133C283.453 132.901 284.161 132.737 284.562 132.508C284.964 132.273 285.263 131.724 285.461 130.859H286.57V142H285.07V134.078H282.438Z" fill="#161616"/>
<path d="M276.328 162.812C277.776 162.812 278.823 163.409 279.469 164.602C279.969 165.523 280.219 166.786 280.219 168.391C280.219 169.911 279.992 171.169 279.539 172.164C278.883 173.591 277.81 174.305 276.32 174.305C274.977 174.305 273.977 173.721 273.32 172.555C272.773 171.581 272.5 170.273 272.5 168.633C272.5 167.362 272.664 166.271 272.992 165.359C273.607 163.661 274.719 162.812 276.328 162.812ZM276.312 173.023C277.042 173.023 277.622 172.701 278.055 172.055C278.487 171.409 278.703 170.206 278.703 168.445C278.703 167.174 278.547 166.13 278.234 165.312C277.922 164.49 277.315 164.078 276.414 164.078C275.586 164.078 274.979 164.469 274.594 165.25C274.214 166.026 274.023 167.172 274.023 168.688C274.023 169.828 274.146 170.745 274.391 171.438C274.766 172.495 275.406 173.023 276.312 173.023ZM285.258 167.5C285.878 167.5 286.362 167.328 286.711 166.984C287.06 166.635 287.234 166.221 287.234 165.742C287.234 165.326 287.068 164.943 286.734 164.594C286.401 164.245 285.893 164.07 285.211 164.07C284.534 164.07 284.044 164.245 283.742 164.594C283.44 164.943 283.289 165.352 283.289 165.82C283.289 166.346 283.484 166.758 283.875 167.055C284.266 167.352 284.727 167.5 285.258 167.5ZM285.344 173.039C285.995 173.039 286.534 172.865 286.961 172.516C287.393 172.161 287.609 171.635 287.609 170.938C287.609 170.214 287.388 169.664 286.945 169.289C286.503 168.914 285.935 168.727 285.242 168.727C284.57 168.727 284.021 168.919 283.594 169.305C283.172 169.685 282.961 170.214 282.961 170.891C282.961 171.474 283.154 171.979 283.539 172.406C283.93 172.828 284.531 173.039 285.344 173.039ZM283.344 168.039C282.953 167.872 282.648 167.677 282.43 167.453C282.018 167.036 281.812 166.495 281.812 165.828C281.812 164.995 282.115 164.279 282.719 163.68C283.323 163.081 284.18 162.781 285.289 162.781C286.362 162.781 287.203 163.065 287.812 163.633C288.422 164.195 288.727 164.854 288.727 165.609C288.727 166.307 288.549 166.872 288.195 167.305C287.997 167.549 287.69 167.789 287.273 168.023C287.737 168.237 288.102 168.482 288.367 168.758C288.862 169.279 289.109 169.956 289.109 170.789C289.109 171.773 288.779 172.609 288.117 173.297C287.456 173.979 286.521 174.32 285.312 174.32C284.224 174.32 283.302 174.026 282.547 173.438C281.797 172.844 281.422 171.984 281.422 170.859C281.422 170.198 281.583 169.628 281.906 169.148C282.229 168.664 282.708 168.294 283.344 168.039Z" fill="#161616"/>
<path d="M273.531 198.078V197C274.547 196.901 275.255 196.737 275.656 196.508C276.057 196.273 276.357 195.724 276.555 194.859H277.664V206H276.164V198.078H273.531ZM282.883 203.148C282.977 203.951 283.349 204.505 284 204.812C284.333 204.969 284.719 205.047 285.156 205.047C285.99 205.047 286.607 204.781 287.008 204.25C287.409 203.719 287.609 203.13 287.609 202.484C287.609 201.703 287.37 201.099 286.891 200.672C286.417 200.245 285.846 200.031 285.18 200.031C284.695 200.031 284.279 200.125 283.93 200.312C283.586 200.5 283.292 200.76 283.047 201.094L281.828 201.023L282.68 195H288.492V196.359H283.734L283.258 199.469C283.518 199.271 283.766 199.122 284 199.023C284.417 198.852 284.898 198.766 285.445 198.766C286.471 198.766 287.341 199.096 288.055 199.758C288.768 200.419 289.125 201.258 289.125 202.273C289.125 203.331 288.797 204.263 288.141 205.07C287.49 205.878 286.448 206.281 285.016 206.281C284.104 206.281 283.297 206.026 282.594 205.516C281.896 205 281.505 204.211 281.422 203.148H282.883Z" fill="#161616"/>
<rect x="268" y="220" width="26" height="24" rx="12" fill="#BBC2FA"/>
<path d="M272.5 238C272.552 237.036 272.75 236.198 273.094 235.484C273.443 234.771 274.12 234.122 275.125 233.539L276.625 232.672C277.297 232.281 277.768 231.948 278.039 231.672C278.466 231.24 278.68 230.745 278.68 230.188C278.68 229.536 278.484 229.021 278.094 228.641C277.703 228.255 277.182 228.062 276.531 228.062C275.568 228.062 274.901 228.427 274.531 229.156C274.333 229.547 274.224 230.089 274.203 230.781H272.773C272.789 229.807 272.969 229.013 273.312 228.398C273.922 227.315 274.997 226.773 276.539 226.773C277.82 226.773 278.755 227.12 279.344 227.812C279.938 228.505 280.234 229.276 280.234 230.125C280.234 231.021 279.919 231.786 279.289 232.422C278.924 232.792 278.271 233.24 277.328 233.766L276.258 234.359C275.747 234.641 275.346 234.909 275.055 235.164C274.534 235.617 274.206 236.12 274.07 236.672H280.18V238H272.5ZM281.406 238C281.458 237.036 281.656 236.198 282 235.484C282.349 234.771 283.026 234.122 284.031 233.539L285.531 232.672C286.203 232.281 286.674 231.948 286.945 231.672C287.372 231.24 287.586 230.745 287.586 230.188C287.586 229.536 287.391 229.021 287 228.641C286.609 228.255 286.089 228.062 285.438 228.062C284.474 228.062 283.807 228.427 283.438 229.156C283.24 229.547 283.13 230.089 283.109 230.781H281.68C281.695 229.807 281.875 229.013 282.219 228.398C282.828 227.315 283.904 226.773 285.445 226.773C286.727 226.773 287.661 227.12 288.25 227.812C288.844 228.505 289.141 229.276 289.141 230.125C289.141 231.021 288.826 231.786 288.195 232.422C287.831 232.792 287.177 233.24 286.234 233.766L285.164 234.359C284.654 234.641 284.253 234.909 283.961 235.164C283.44 235.617 283.112 236.12 282.977 236.672H289.086V238H281.406Z" fill="#161616"/>
<path d="M272.5 270C272.552 269.036 272.75 268.198 273.094 267.484C273.443 266.771 274.12 266.122 275.125 265.539L276.625 264.672C277.297 264.281 277.768 263.948 278.039 263.672C278.466 263.24 278.68 262.745 278.68 262.188C278.68 261.536 278.484 261.021 278.094 260.641C277.703 260.255 277.182 260.062 276.531 260.062C275.568 260.062 274.901 260.427 274.531 261.156C274.333 261.547 274.224 262.089 274.203 262.781H272.773C272.789 261.807 272.969 261.013 273.312 260.398C273.922 259.315 274.997 258.773 276.539 258.773C277.82 258.773 278.755 259.12 279.344 259.812C279.938 260.505 280.234 261.276 280.234 262.125C280.234 263.021 279.919 263.786 279.289 264.422C278.924 264.792 278.271 265.24 277.328 265.766L276.258 266.359C275.747 266.641 275.346 266.909 275.055 267.164C274.534 267.617 274.206 268.12 274.07 268.672H280.18V270H272.5ZM283.031 267.297C283.073 268.073 283.372 268.609 283.93 268.906C284.216 269.062 284.539 269.141 284.898 269.141C285.57 269.141 286.143 268.862 286.617 268.305C287.091 267.742 287.427 266.604 287.625 264.891C287.312 265.385 286.924 265.734 286.461 265.938C286.003 266.135 285.508 266.234 284.977 266.234C283.898 266.234 283.044 265.898 282.414 265.227C281.789 264.555 281.477 263.69 281.477 262.633C281.477 261.617 281.786 260.724 282.406 259.953C283.026 259.182 283.94 258.797 285.148 258.797C286.779 258.797 287.904 259.531 288.523 261C288.867 261.807 289.039 262.818 289.039 264.031C289.039 265.401 288.833 266.615 288.422 267.672C287.74 269.432 286.583 270.312 284.953 270.312C283.859 270.312 283.029 270.026 282.461 269.453C281.893 268.88 281.609 268.161 281.609 267.297H283.031ZM285.164 265C285.721 265 286.229 264.818 286.688 264.453C287.151 264.083 287.383 263.44 287.383 262.523C287.383 261.701 287.174 261.089 286.758 260.688C286.346 260.281 285.82 260.078 285.18 260.078C284.492 260.078 283.945 260.31 283.539 260.773C283.138 261.232 282.938 261.846 282.938 262.617C282.938 263.346 283.115 263.927 283.469 264.359C283.823 264.786 284.388 265 285.164 265Z" fill="#161616"/>
<path d="M337.328 130.812C338.776 130.812 339.823 131.409 340.469 132.602C340.969 133.523 341.219 134.786 341.219 136.391C341.219 137.911 340.992 139.169 340.539 140.164C339.883 141.591 338.81 142.305 337.32 142.305C335.977 142.305 334.977 141.721 334.32 140.555C333.773 139.581 333.5 138.273 333.5 136.633C333.5 135.362 333.664 134.271 333.992 133.359C334.607 131.661 335.719 130.812 337.328 130.812ZM337.312 141.023C338.042 141.023 338.622 140.701 339.055 140.055C339.487 139.409 339.703 138.206 339.703 136.445C339.703 135.174 339.547 134.13 339.234 133.312C338.922 132.49 338.315 132.078 337.414 132.078C336.586 132.078 335.979 132.469 335.594 133.25C335.214 134.026 335.023 135.172 335.023 136.688C335.023 137.828 335.146 138.745 335.391 139.438C335.766 140.495 336.406 141.023 337.312 141.023ZM342.406 142C342.458 141.036 342.656 140.198 343 139.484C343.349 138.771 344.026 138.122 345.031 137.539L346.531 136.672C347.203 136.281 347.674 135.948 347.945 135.672C348.372 135.24 348.586 134.745 348.586 134.188C348.586 133.536 348.391 133.021 348 132.641C347.609 132.255 347.089 132.062 346.438 132.062C345.474 132.062 344.807 132.427 344.438 133.156C344.24 133.547 344.13 134.089 344.109 134.781H342.68C342.695 133.807 342.875 133.013 343.219 132.398C343.828 131.315 344.904 130.773 346.445 130.773C347.727 130.773 348.661 131.12 349.25 131.812C349.844 132.505 350.141 133.276 350.141 134.125C350.141 135.021 349.826 135.786 349.195 136.422C348.831 136.792 348.177 137.24 347.234 137.766L346.164 138.359C345.654 138.641 345.253 138.909 344.961 139.164C344.44 139.617 344.112 140.12 343.977 140.672H350.086V142H342.406Z" fill="#161616"/>
<path d="M337.328 162.812C338.776 162.812 339.823 163.409 340.469 164.602C340.969 165.523 341.219 166.786 341.219 168.391C341.219 169.911 340.992 171.169 340.539 172.164C339.883 173.591 338.81 174.305 337.32 174.305C335.977 174.305 334.977 173.721 334.32 172.555C333.773 171.581 333.5 170.273 333.5 168.633C333.5 167.362 333.664 166.271 333.992 165.359C334.607 163.661 335.719 162.812 337.328 162.812ZM337.312 173.023C338.042 173.023 338.622 172.701 339.055 172.055C339.487 171.409 339.703 170.206 339.703 168.445C339.703 167.174 339.547 166.13 339.234 165.312C338.922 164.49 338.315 164.078 337.414 164.078C336.586 164.078 335.979 164.469 335.594 165.25C335.214 166.026 335.023 167.172 335.023 168.688C335.023 169.828 335.146 170.745 335.391 171.438C335.766 172.495 336.406 173.023 337.312 173.023ZM344.031 171.297C344.073 172.073 344.372 172.609 344.93 172.906C345.216 173.062 345.539 173.141 345.898 173.141C346.57 173.141 347.143 172.862 347.617 172.305C348.091 171.742 348.427 170.604 348.625 168.891C348.312 169.385 347.924 169.734 347.461 169.938C347.003 170.135 346.508 170.234 345.977 170.234C344.898 170.234 344.044 169.898 343.414 169.227C342.789 168.555 342.477 167.69 342.477 166.633C342.477 165.617 342.786 164.724 343.406 163.953C344.026 163.182 344.94 162.797 346.148 162.797C347.779 162.797 348.904 163.531 349.523 165C349.867 165.807 350.039 166.818 350.039 168.031C350.039 169.401 349.833 170.615 349.422 171.672C348.74 173.432 347.583 174.312 345.953 174.312C344.859 174.312 344.029 174.026 343.461 173.453C342.893 172.88 342.609 172.161 342.609 171.297H344.031ZM346.164 169C346.721 169 347.229 168.818 347.688 168.453C348.151 168.083 348.383 167.44 348.383 166.523C348.383 165.701 348.174 165.089 347.758 164.688C347.346 164.281 346.82 164.078 346.18 164.078C345.492 164.078 344.945 164.31 344.539 164.773C344.138 165.232 343.938 165.846 343.938 166.617C343.938 167.346 344.115 167.927 344.469 168.359C344.823 168.786 345.388 169 346.164 169Z" fill="#161616"/>
<path d="M334.531 198.078V197C335.547 196.901 336.255 196.737 336.656 196.508C337.057 196.273 337.357 195.724 337.555 194.859H338.664V206H337.164V198.078H334.531ZM346.586 194.766C347.836 194.766 348.706 195.091 349.195 195.742C349.69 196.388 349.938 197.055 349.938 197.742H348.547C348.464 197.299 348.331 196.953 348.148 196.703C347.81 196.234 347.297 196 346.609 196C345.823 196 345.198 196.365 344.734 197.094C344.271 197.818 344.013 198.857 343.961 200.211C344.284 199.737 344.69 199.383 345.18 199.148C345.628 198.94 346.128 198.836 346.68 198.836C347.617 198.836 348.435 199.135 349.133 199.734C349.831 200.333 350.18 201.227 350.18 202.414C350.18 203.43 349.849 204.331 349.188 205.117C348.526 205.898 347.583 206.289 346.359 206.289C345.312 206.289 344.409 205.893 343.648 205.102C342.888 204.305 342.508 202.966 342.508 201.086C342.508 199.695 342.677 198.516 343.016 197.547C343.667 195.693 344.857 194.766 346.586 194.766ZM346.484 205.039C347.224 205.039 347.776 204.792 348.141 204.297C348.51 203.797 348.695 203.208 348.695 202.531C348.695 201.958 348.531 201.414 348.203 200.898C347.875 200.378 347.279 200.117 346.414 200.117C345.81 200.117 345.279 200.318 344.82 200.719C344.367 201.12 344.141 201.724 344.141 202.531C344.141 203.24 344.346 203.836 344.758 204.32C345.174 204.799 345.75 205.039 346.484 205.039Z" fill="#161616"/>
<path d="M333.5 238C333.552 237.036 333.75 236.198 334.094 235.484C334.443 234.771 335.12 234.122 336.125 233.539L337.625 232.672C338.297 232.281 338.768 231.948 339.039 231.672C339.466 231.24 339.68 230.745 339.68 230.188C339.68 229.536 339.484 229.021 339.094 228.641C338.703 228.255 338.182 228.062 337.531 228.062C336.568 228.062 335.901 228.427 335.531 229.156C335.333 229.547 335.224 230.089 335.203 230.781H333.773C333.789 229.807 333.969 229.013 334.312 228.398C334.922 227.315 335.997 226.773 337.539 226.773C338.82 226.773 339.755 227.12 340.344 227.812C340.938 228.505 341.234 229.276 341.234 230.125C341.234 231.021 340.919 231.786 340.289 232.422C339.924 232.792 339.271 233.24 338.328 233.766L337.258 234.359C336.747 234.641 336.346 234.909 336.055 235.164C335.534 235.617 335.206 236.12 335.07 236.672H341.18V238H333.5ZM346.062 238.305C344.74 238.305 343.779 237.943 343.18 237.219C342.586 236.49 342.289 235.604 342.289 234.562H343.758C343.82 235.286 343.956 235.812 344.164 236.141C344.529 236.729 345.188 237.023 346.141 237.023C346.88 237.023 347.474 236.826 347.922 236.43C348.37 236.034 348.594 235.523 348.594 234.898C348.594 234.128 348.357 233.589 347.883 233.281C347.414 232.974 346.76 232.82 345.922 232.82C345.828 232.82 345.732 232.823 345.633 232.828C345.539 232.828 345.443 232.831 345.344 232.836V231.594C345.49 231.609 345.612 231.62 345.711 231.625C345.81 231.63 345.917 231.633 346.031 231.633C346.557 231.633 346.99 231.549 347.328 231.383C347.922 231.091 348.219 230.57 348.219 229.82C348.219 229.263 348.021 228.833 347.625 228.531C347.229 228.229 346.768 228.078 346.242 228.078C345.305 228.078 344.656 228.391 344.297 229.016C344.099 229.359 343.987 229.849 343.961 230.484H342.57C342.57 229.651 342.737 228.943 343.07 228.359C343.643 227.318 344.651 226.797 346.094 226.797C347.234 226.797 348.117 227.052 348.742 227.562C349.367 228.068 349.68 228.802 349.68 229.766C349.68 230.453 349.495 231.01 349.125 231.438C348.896 231.703 348.599 231.911 348.234 232.062C348.823 232.224 349.281 232.536 349.609 233C349.943 233.458 350.109 234.021 350.109 234.688C350.109 235.755 349.758 236.625 349.055 237.297C348.352 237.969 347.354 238.305 346.062 238.305Z" fill="#161616"/>
<path d="M337.156 270.305C335.833 270.305 334.872 269.943 334.273 269.219C333.68 268.49 333.383 267.604 333.383 266.562H334.852C334.914 267.286 335.049 267.812 335.258 268.141C335.622 268.729 336.281 269.023 337.234 269.023C337.974 269.023 338.568 268.826 339.016 268.43C339.464 268.034 339.688 267.523 339.688 266.898C339.688 266.128 339.451 265.589 338.977 265.281C338.508 264.974 337.854 264.82 337.016 264.82C336.922 264.82 336.826 264.823 336.727 264.828C336.633 264.828 336.536 264.831 336.438 264.836V263.594C336.583 263.609 336.706 263.62 336.805 263.625C336.904 263.63 337.01 263.633 337.125 263.633C337.651 263.633 338.083 263.549 338.422 263.383C339.016 263.091 339.312 262.57 339.312 261.82C339.312 261.263 339.115 260.833 338.719 260.531C338.323 260.229 337.862 260.078 337.336 260.078C336.398 260.078 335.75 260.391 335.391 261.016C335.193 261.359 335.081 261.849 335.055 262.484H333.664C333.664 261.651 333.831 260.943 334.164 260.359C334.737 259.318 335.745 258.797 337.188 258.797C338.328 258.797 339.211 259.052 339.836 259.562C340.461 260.068 340.773 260.802 340.773 261.766C340.773 262.453 340.589 263.01 340.219 263.438C339.99 263.703 339.693 263.911 339.328 264.062C339.917 264.224 340.375 264.536 340.703 265C341.036 265.458 341.203 266.021 341.203 266.688C341.203 267.755 340.852 268.625 340.148 269.297C339.445 269.969 338.448 270.305 337.156 270.305ZM346.234 258.812C347.682 258.812 348.729 259.409 349.375 260.602C349.875 261.523 350.125 262.786 350.125 264.391C350.125 265.911 349.898 267.169 349.445 268.164C348.789 269.591 347.716 270.305 346.227 270.305C344.883 270.305 343.883 269.721 343.227 268.555C342.68 267.581 342.406 266.273 342.406 264.633C342.406 263.362 342.57 262.271 342.898 261.359C343.513 259.661 344.625 258.812 346.234 258.812ZM346.219 269.023C346.948 269.023 347.529 268.701 347.961 268.055C348.393 267.409 348.609 266.206 348.609 264.445C348.609 263.174 348.453 262.13 348.141 261.312C347.828 260.49 347.221 260.078 346.32 260.078C345.492 260.078 344.885 260.469 344.5 261.25C344.12 262.026 343.93 263.172 343.93 264.688C343.93 265.828 344.052 266.745 344.297 267.438C344.672 268.495 345.312 269.023 346.219 269.023Z" fill="#161616"/>
<path d="M394.328 130.812C395.776 130.812 396.823 131.409 397.469 132.602C397.969 133.523 398.219 134.786 398.219 136.391C398.219 137.911 397.992 139.169 397.539 140.164C396.883 141.591 395.81 142.305 394.32 142.305C392.977 142.305 391.977 141.721 391.32 140.555C390.773 139.581 390.5 138.273 390.5 136.633C390.5 135.362 390.664 134.271 390.992 133.359C391.607 131.661 392.719 130.812 394.328 130.812ZM394.312 141.023C395.042 141.023 395.622 140.701 396.055 140.055C396.487 139.409 396.703 138.206 396.703 136.445C396.703 135.174 396.547 134.13 396.234 133.312C395.922 132.49 395.315 132.078 394.414 132.078C393.586 132.078 392.979 132.469 392.594 133.25C392.214 134.026 392.023 135.172 392.023 136.688C392.023 137.828 392.146 138.745 392.391 139.438C392.766 140.495 393.406 141.023 394.312 141.023ZM403.062 142.305C401.74 142.305 400.779 141.943 400.18 141.219C399.586 140.49 399.289 139.604 399.289 138.562H400.758C400.82 139.286 400.956 139.812 401.164 140.141C401.529 140.729 402.188 141.023 403.141 141.023C403.88 141.023 404.474 140.826 404.922 140.43C405.37 140.034 405.594 139.523 405.594 138.898C405.594 138.128 405.357 137.589 404.883 137.281C404.414 136.974 403.76 136.82 402.922 136.82C402.828 136.82 402.732 136.823 402.633 136.828C402.539 136.828 402.443 136.831 402.344 136.836V135.594C402.49 135.609 402.612 135.62 402.711 135.625C402.81 135.63 402.917 135.633 403.031 135.633C403.557 135.633 403.99 135.549 404.328 135.383C404.922 135.091 405.219 134.57 405.219 133.82C405.219 133.263 405.021 132.833 404.625 132.531C404.229 132.229 403.768 132.078 403.242 132.078C402.305 132.078 401.656 132.391 401.297 133.016C401.099 133.359 400.987 133.849 400.961 134.484H399.57C399.57 133.651 399.737 132.943 400.07 132.359C400.643 131.318 401.651 130.797 403.094 130.797C404.234 130.797 405.117 131.052 405.742 131.562C406.367 132.068 406.68 132.802 406.68 133.766C406.68 134.453 406.495 135.01 406.125 135.438C405.896 135.703 405.599 135.911 405.234 136.062C405.823 136.224 406.281 136.536 406.609 137C406.943 137.458 407.109 138.021 407.109 138.688C407.109 139.755 406.758 140.625 406.055 141.297C405.352 141.969 404.354 142.305 403.062 142.305Z" fill="#161616"/>
<path d="M391.531 166.078V165C392.547 164.901 393.255 164.737 393.656 164.508C394.057 164.273 394.357 163.724 394.555 162.859H395.664V174H394.164V166.078H391.531ZM403.234 162.812C404.682 162.812 405.729 163.409 406.375 164.602C406.875 165.523 407.125 166.786 407.125 168.391C407.125 169.911 406.898 171.169 406.445 172.164C405.789 173.591 404.716 174.305 403.227 174.305C401.883 174.305 400.883 173.721 400.227 172.555C399.68 171.581 399.406 170.273 399.406 168.633C399.406 167.362 399.57 166.271 399.898 165.359C400.513 163.661 401.625 162.812 403.234 162.812ZM403.219 173.023C403.948 173.023 404.529 172.701 404.961 172.055C405.393 171.409 405.609 170.206 405.609 168.445C405.609 167.174 405.453 166.13 405.141 165.312C404.828 164.49 404.221 164.078 403.32 164.078C402.492 164.078 401.885 164.469 401.5 165.25C401.12 166.026 400.93 167.172 400.93 168.688C400.93 169.828 401.052 170.745 401.297 171.438C401.672 172.495 402.312 173.023 403.219 173.023Z" fill="#161616"/>
<path d="M391.531 198.078V197C392.547 196.901 393.255 196.737 393.656 196.508C394.057 196.273 394.357 195.724 394.555 194.859H395.664V206H394.164V198.078H391.531ZM407.273 195V196.227C406.914 196.576 406.435 197.182 405.836 198.047C405.242 198.911 404.716 199.844 404.258 200.844C403.805 201.818 403.461 202.706 403.227 203.508C403.076 204.023 402.88 204.854 402.641 206H401.086C401.44 203.865 402.221 201.74 403.43 199.625C404.143 198.385 404.893 197.315 405.68 196.414H399.492V195H407.273Z" fill="#161616"/>
<path d="M390.5 238C390.552 237.036 390.75 236.198 391.094 235.484C391.443 234.771 392.12 234.122 393.125 233.539L394.625 232.672C395.297 232.281 395.768 231.948 396.039 231.672C396.466 231.24 396.68 230.745 396.68 230.188C396.68 229.536 396.484 229.021 396.094 228.641C395.703 228.255 395.182 228.062 394.531 228.062C393.568 228.062 392.901 228.427 392.531 229.156C392.333 229.547 392.224 230.089 392.203 230.781H390.773C390.789 229.807 390.969 229.013 391.312 228.398C391.922 227.315 392.997 226.773 394.539 226.773C395.82 226.773 396.755 227.12 397.344 227.812C397.938 228.505 398.234 229.276 398.234 230.125C398.234 231.021 397.919 231.786 397.289 232.422C396.924 232.792 396.271 233.24 395.328 233.766L394.258 234.359C393.747 234.641 393.346 234.909 393.055 235.164C392.534 235.617 392.206 236.12 392.07 236.672H398.18V238H390.5ZM404.195 234.039V228.969L400.609 234.039H404.195ZM404.219 238V235.266H399.312V233.891L404.438 226.781H405.625V234.039H407.273V235.266H405.625V238H404.219Z" fill="#161616"/>
<path d="M394.156 270.305C392.833 270.305 391.872 269.943 391.273 269.219C390.68 268.49 390.383 267.604 390.383 266.562H391.852C391.914 267.286 392.049 267.812 392.258 268.141C392.622 268.729 393.281 269.023 394.234 269.023C394.974 269.023 395.568 268.826 396.016 268.43C396.464 268.034 396.688 267.523 396.688 266.898C396.688 266.128 396.451 265.589 395.977 265.281C395.508 264.974 394.854 264.82 394.016 264.82C393.922 264.82 393.826 264.823 393.727 264.828C393.633 264.828 393.536 264.831 393.438 264.836V263.594C393.583 263.609 393.706 263.62 393.805 263.625C393.904 263.63 394.01 263.633 394.125 263.633C394.651 263.633 395.083 263.549 395.422 263.383C396.016 263.091 396.312 262.57 396.312 261.82C396.312 261.263 396.115 260.833 395.719 260.531C395.323 260.229 394.862 260.078 394.336 260.078C393.398 260.078 392.75 260.391 392.391 261.016C392.193 261.359 392.081 261.849 392.055 262.484H390.664C390.664 261.651 390.831 260.943 391.164 260.359C391.737 259.318 392.745 258.797 394.188 258.797C395.328 258.797 396.211 259.052 396.836 259.562C397.461 260.068 397.773 260.802 397.773 261.766C397.773 262.453 397.589 263.01 397.219 263.438C396.99 263.703 396.693 263.911 396.328 264.062C396.917 264.224 397.375 264.536 397.703 265C398.036 265.458 398.203 266.021 398.203 266.688C398.203 267.755 397.852 268.625 397.148 269.297C396.445 269.969 395.448 270.305 394.156 270.305ZM400.438 262.078V261C401.453 260.901 402.161 260.737 402.562 260.508C402.964 260.273 403.263 259.724 403.461 258.859H404.57V270H403.07V262.078H400.438Z" fill="#161616"/>
</g>
<defs>
<filter id="filter0_d_2_48679" x="0" y="0" width="424" height="314" filterUnits="userSpaceOnUse" color-interpolation-filters="sRGB">
<feFlood flood-opacity="0" result="BackgroundImageFix"/>
<feColorMatrix in="SourceAlpha" type="matrix" values="0 0 0 0 0 0 0 0 0 0 0 0 0 0 0 0 0 0 127 0" result="hardAlpha"/>
<feOffset dy="4"/>
<feGaussianBlur stdDeviation="4"/>
<feComposite in2="hardAlpha" operator="out"/>
<feColorMatrix type="matrix" values="0 0 0 0 0.589294 0 0 0 0 0.628353 0 0 0 0 0.992904 0 0 0 0.3 0"/>
<feBlend mode="normal" in2="BackgroundImageFix" result="effect1_dropShadow_2_48679"/>
<feBlend mode="normal" in="SourceGraphic" in2="effect1_dropShadow_2_48679" result="shape"/>
</filter>
</defs>
</svg>
