<svg width="346" height="367" viewBox="0 0 346 367" fill="none" xmlns="http://www.w3.org/2000/svg">
<path d="M216.873 166.375C239.53 190.843 253.337 222.632 255.581 255.489C257.825 288.344 248.344 319.88 229.02 343.903C228.553 344.481 228.082 345.052 227.604 345.62L227.599 345.623L227.538 345.696C225.625 347.985 223.618 350.197 221.516 352.332L220.609 353.242C213.361 360.446 205.216 366.598 196.363 371.559L195.504 372.035C168.81 386.64 137.052 389.727 106.468 380.673C75.8821 371.619 48.6846 351.077 30.2321 323.078C11.7796 295.079 3.41471 261.659 6.77434 229.394C10.1339 197.13 24.973 168.361 48.3591 148.732C71.7443 129.103 101.997 120.022 133.176 123.282C164.358 126.541 194.216 141.908 216.873 166.375Z" fill="#3F3D56" stroke="#2F2E41"/>
<path d="M177.759 165.066C182.983 169.364 187.303 174.788 190.386 180.923C193.306 186.735 195.043 193.037 195.483 199.396C193.82 198.349 191.721 197.974 189.513 197.997C186.882 198.025 184.025 198.615 181.408 199.381C178.781 200.15 176.168 201.05 173.563 201.686C170.97 202.319 168.46 202.668 166.106 202.344C164.129 202.072 162.416 201.34 160.779 200.428C159.959 199.971 159.162 199.471 158.359 198.961C157.56 198.453 156.751 197.933 155.923 197.448C154.057 196.241 151.988 195.462 149.865 195.172C148.067 194.926 146.27 195.036 144.565 195.494C146.488 190.087 151.645 184.992 157.758 182.592L157.844 182.684L158.165 183.03L158.529 182.73C162.652 179.327 164.953 174.635 165.294 170.175C165.607 166.096 164.277 162.178 161.164 159.663C167.665 158.468 173.415 161.469 177.757 165.064L177.759 165.066Z" fill="#5666ED" stroke="#2F2E41"/>
<path d="M149.657 153.294L149.656 153.293C148.258 153.477 146.854 153.658 145.447 153.836L145.446 153.836C140.266 154.505 134.656 155.282 129.909 158.236C128.493 159.117 127.15 160.27 126.176 161.552C125.206 162.828 124.569 164.281 124.66 165.745L124.66 165.746C124.749 167.118 125.437 168.204 126.34 169.09C127.236 169.969 128.375 170.683 129.43 171.31C130.32 171.847 131.206 172.375 132.101 172.907L132.1 172.908C133.704 173.867 135.313 174.87 136.589 176.066C137.859 177.255 138.765 178.605 139.011 180.25L139.011 180.25C139.465 183.275 137.368 186.976 134.035 189.296C130.803 191.517 126.869 192.484 122.844 192.041C121.151 191.819 119.591 191.324 118.05 190.738C116.544 190.165 114.967 189.467 113.401 188.91C109.811 187.486 105.952 187.368 102.477 188.59L102.468 188.594L102.459 188.596C101.25 189.073 100.143 189.736 99.0772 190.407C98.0007 191.085 96.9768 191.765 95.8875 192.326C94.8169 192.878 93.5923 193.28 92.4797 193.387C91.3548 193.494 90.4361 193.293 89.8616 192.76C89.4148 192.342 89.2259 191.809 89.1992 191.146C89.1718 190.464 89.3173 189.685 89.5135 188.826C89.7043 187.989 89.9451 187.069 90.0585 186.193C90.1726 185.313 90.1698 184.406 89.8316 183.58L89.8311 183.579C89.265 182.202 87.7824 181.525 86.2619 181.434C84.7245 181.342 82.9948 181.829 81.7373 182.96C80.4743 184.096 79.9441 185.653 80.1124 187.048C80.2575 188.25 80.9285 189.336 82.0833 189.886C81.3565 190.864 80.131 191.603 78.8229 191.942C77.2904 192.339 75.8394 192.146 75.0507 191.387L74.8287 191.174L74.5372 191.276C73.2059 191.746 71.8779 192.214 70.5487 192.687C71.0225 185.245 71.5822 177.785 74.1066 170.351L74.1078 170.349L74.3814 169.556C77.2856 161.399 82.4431 154.497 89.2341 149.681C90.654 148.698 92.1849 147.779 93.7408 146.859C95.2918 145.943 96.8709 145.024 98.3634 144.052C101.343 142.112 104.05 139.915 105.608 136.971C106.824 134.672 107.422 132.79 107.385 130.982C107.35 129.281 106.754 127.705 105.701 125.968L105.484 125.618C105.341 125.392 105.113 125.158 104.885 124.944C104.648 124.724 104.375 124.493 104.118 124.277C103.972 124.155 103.832 124.036 103.703 123.926C110.645 122.896 117.344 122.232 124.445 122.514C124.883 122.823 125.408 122.97 125.865 123.077C126.417 123.206 126.859 123.279 127.229 123.438C129.67 124.503 132.518 124.679 135.369 124.7C138.255 124.721 141.131 124.585 143.788 124.964C144.126 125.013 144.462 125.071 144.796 125.138L144.797 125.139C149.813 126.145 153.479 128.055 157.191 130.905L157.192 130.906C164.585 136.559 172.02 142.318 176.628 149.825C167.639 150.983 158.649 152.14 149.657 153.294Z" fill="#5666ED" stroke="#2F2E41"/>
<path d="M80.4503 205.185C80.3752 215.96 80.3004 226.735 80.2252 237.511L80.2246 237.528L80.2253 237.545C80.3033 238.799 80.0864 240.021 79.5995 241.107C78.3862 242.981 76.5278 244.259 74.3737 244.706C72.2672 245.139 70.0828 245.231 67.8939 244.978L67.8702 244.975C51.3752 243.856 34.8929 241.075 18.6479 236.677C28.3763 234.951 37.3649 230.671 44.7975 224.2L44.7984 224.199L45.342 223.716C48.04 221.288 50.4665 218.63 52.9197 216.059C55.5448 213.307 58.2099 210.645 61.3196 208.39C64.413 206.147 68.2785 204.434 71.9179 203.791C75.2627 203.2 78.3245 203.527 80.4511 205.061L80.4503 205.185Z" fill="#5666ED" stroke="#2F2E41"/>
<path d="M152.133 171.004C151.521 173.539 150.748 176.173 148.486 177.85L148.485 177.851C147.431 178.632 146.118 179.065 144.872 179.127C143.619 179.189 142.495 178.874 141.772 178.24C141.163 177.707 140.797 176.994 140.566 176.159C140.333 175.318 140.246 174.388 140.17 173.439L139.715 167.758L139.713 167.734L139.709 167.71L139.65 167.329C139.4 165.435 139.816 163.575 140.808 162.102C142.217 160.537 144.142 159.593 146.247 159.427L146.672 159.404C148.728 159.397 150.802 159.758 152.804 160.474L152.831 160.484L152.859 160.49L154.573 160.89C153.76 164.261 152.946 167.633 152.133 171.004Z" fill="#5666ED" stroke="#2F2E41"/>
<path d="M238.698 283.611C239.393 284.821 239.641 286.221 239.403 287.524L239.4 287.536L239.399 287.547C239.122 289.583 238.067 291.575 236.806 293.639C235.564 295.671 234.113 297.785 233.186 299.96C230.463 306.342 232.402 312.578 234.28 318.119L234.281 318.12C235.665 322.186 237.046 326.257 238.425 330.332C235.684 334.954 232.644 339.358 229.326 343.515C222.664 338.291 214.882 335.023 206.862 334.098L206.106 334.011L206.326 334.738C206.973 336.888 207.62 339.039 208.267 341.189C202.192 343.947 195.175 343.738 190.779 340.787L190.353 340.486C189.888 340.14 189.446 339.76 188.996 339.366C188.551 338.975 188.093 338.565 187.618 338.18C186.664 337.406 185.599 336.697 184.249 336.328L184.248 336.329C181.833 335.676 178.991 336.259 176.44 336.803C171.932 337.759 167.424 338.714 162.917 339.67L162.916 339.67C160.49 340.187 157.938 340.668 155.592 340.724C153.387 340.777 151.431 340.451 149.945 339.485L149.655 339.283C147.099 337.394 146.839 333.623 148.266 330.097C149.691 326.58 152.464 323.372 155.244 320.174L154.615 319.413C151.111 321.437 146.728 321.55 144.076 319.851L143.825 319.681C141.327 317.889 140.634 314.361 142.253 311.164L142.418 310.855C143.079 309.666 144.01 308.564 144.985 307.42C145.947 306.29 146.955 305.118 147.694 303.836C148.455 302.515 148.779 300.928 148.514 299.594C148.381 298.922 148.094 298.297 147.617 297.813C147.136 297.325 146.489 297.008 145.688 296.918L145.687 296.917C144.644 296.805 143.597 297.101 142.621 297.448C141.606 297.808 140.69 298.212 139.75 298.438L139.735 298.442L139.721 298.447C138.579 298.798 137.324 298.758 136.129 298.322C134.946 297.89 133.883 297.091 133.089 296.03C132.521 294.935 132.159 293.75 132.026 292.545C131.892 291.328 131.995 290.119 132.323 288.992L132.326 288.982L132.328 288.973L132.475 288.412C134.044 282.639 137.296 277.658 141.794 274.138L141.807 274.129L141.819 274.118L142.22 273.771C144.248 272.073 146.64 270.888 149.233 270.302C150.542 270.083 151.858 270.206 152.905 270.625C153.953 271.044 154.687 271.738 154.947 272.645L155.053 273.015L155.438 273.007C157.264 272.966 158.664 271.703 159.389 270.238C160.107 268.789 160.248 266.962 159.328 265.695C158.471 264.515 157.175 263.798 155.806 263.261C155.118 262.991 154.395 262.761 153.682 262.543C152.965 262.323 152.262 262.115 151.586 261.884L151.585 261.884C150.258 261.434 148.983 260.751 148.128 259.876C147.286 259.014 146.871 257.993 147.153 256.791L147.436 255.588L146.397 256.256C145.924 256.559 145.334 256.646 144.748 256.485C144.16 256.323 143.626 255.921 143.274 255.358C143.249 255.318 143.227 255.277 143.205 255.236C142.871 253.886 142.799 252.504 142.994 251.174L142.999 251.141L142.999 251.108C143.063 245.905 139.359 241.616 134.088 240.243C137.628 239.408 141.307 238.724 144.687 238.628C148.829 238.51 152.412 239.276 154.755 241.597L154.755 241.598C155.725 242.556 156.409 243.731 157.209 244.95C157.993 246.146 158.877 247.358 160.215 248.216L160.215 248.216C162.618 249.755 166.095 249.465 169.083 248.184C172.079 246.9 174.786 244.536 175.594 241.659L175.989 240.249L174.814 241.123C173.343 242.216 171.681 243.241 170.002 243.911C168.319 244.582 166.66 244.88 165.172 244.576C162.413 244.011 161.746 239.929 164.709 238.57L164.312 237.653C163.932 237.807 163.499 237.83 163.071 237.708C162.643 237.585 162.242 237.322 161.934 236.951C161.626 236.58 161.43 236.125 161.374 235.654C161.317 235.184 161.404 234.728 161.611 234.35L161.618 234.337L161.624 234.324L161.716 234.142C162.201 233.239 163.051 232.459 164.093 231.864C165.2 231.232 166.488 230.829 167.692 230.71C169.988 230.602 172.323 230.972 174.563 231.802L174.59 231.812C179.236 233.23 183.857 234.652 187.639 237.041L188.003 237.275C191.843 239.806 194.664 243.521 194.758 247.997C194.782 249.192 194.613 250.423 194.454 251.707C194.298 252.971 194.151 254.281 194.25 255.561C194.247 256.216 194.365 256.874 194.596 257.498C194.832 258.133 195.18 258.723 195.622 259.235C196.064 259.747 196.593 260.172 197.178 260.485C197.691 260.758 198.239 260.942 198.8 261.025L199.041 261.054L199.19 261.067L199.194 261.067C200.898 261.165 202.551 260.51 204.121 259.749C205.73 258.969 207.234 258.092 208.796 257.576C211.477 256.699 214.102 257.291 215.85 258.665C217.248 259.765 218.077 261.352 217.957 263.112C217.321 262.311 216.379 261.75 215.325 261.449C213.754 261 211.869 261.097 210.158 261.835C208.453 262.568 207.036 263.83 206.087 265.275C205.141 266.715 204.638 268.376 204.818 269.911L204.817 269.913C205.128 272.481 206.92 274.165 209.19 275.304C211.455 276.441 214.288 277.085 216.876 277.547L216.877 277.546C222.278 278.5 227.68 279.461 233.082 280.426L233.089 280.427L233.097 280.428C233.969 280.556 234.835 280.761 235.686 281.042C236.924 281.487 238.004 282.403 238.698 283.611Z" fill="#5666ED" stroke="#2F2E41"/>
<path d="M143.918 378.078C144.467 378.578 144.563 379.338 144.28 380.353C144.034 381.237 143.527 382.202 142.966 383.104L142.723 383.487C142.171 384.33 141.62 385.173 141.051 386.002C134.504 386.026 127.925 385.505 121.371 384.444C121.067 383.008 120.163 381.884 119.046 380.972C117.838 379.986 116.333 379.209 114.949 378.522L114.949 378.522C113.506 377.807 112.059 376.994 110.996 375.988C109.943 374.99 109.303 373.841 109.375 372.434C109.452 370.982 110.343 369.5 111.735 368.227C113.117 366.962 114.938 365.953 116.752 365.438C120.26 364.644 123.942 364.604 127.588 365.32L127.618 365.325C129.51 365.578 131.413 365.846 133.158 366.319C134.903 366.791 136.453 367.458 137.655 368.482C140.002 370.486 140.444 374.491 137.565 377.043L137.257 377.316L137.466 377.671L138.602 379.594L139.111 380.458L139.495 379.531C139.801 378.79 140.629 378.158 141.589 377.858C142.565 377.553 143.456 377.655 143.916 378.077L143.918 378.078Z" fill="#5666ED" stroke="#2F2E41"/>
<path d="M136.335 251.257C135.469 252.431 134.886 253.815 134.628 255.303C134.358 256.859 134.451 258.485 134.893 260.05L134.892 260.051C135.056 260.743 135.254 261.424 135.452 262.092C135.651 262.764 135.851 263.42 136.026 264.084C136.375 265.407 136.616 266.72 136.543 268.099L136.544 268.1C136.417 270.52 135.356 272.939 133.869 275.375C132.378 277.816 130.507 280.202 128.786 282.605C127.069 285.002 125.468 287.718 124.621 290.372C123.818 292.889 123.674 295.423 124.851 297.569C121.128 301.459 114.84 302.505 109.525 302.264C108.168 302.202 106.811 302.086 105.44 301.971C104.073 301.856 102.693 301.742 101.306 301.685C98.5294 301.571 95.7002 301.685 92.8097 302.494C91.1767 302.951 89.5777 303.621 88.0221 304.236C86.453 304.856 84.9186 305.426 83.3583 305.724C80.2093 306.325 77.2653 305.539 75.2186 303.943C73.176 302.351 72.0307 299.962 72.4223 297.304C72.7412 295.14 73.8812 293.007 75.5174 291.006C77.1513 289.007 79.2582 287.166 81.4652 285.588C83.6791 284.006 86.0307 282.595 88.386 281.144C90.7338 279.697 93.081 278.213 95.2488 276.5C97.4229 274.783 99.4438 272.718 100.888 270.508C102.33 268.302 103.222 265.909 103.069 263.552C102.947 261.677 102.173 260.024 101.47 258.47C100.754 256.888 100.106 255.4 100.065 253.731C100.013 251.635 101.005 249.407 102.676 247.416C104.343 245.432 106.651 243.727 109.141 242.679C113.79 240.769 119.042 240.574 124.089 242.136C128.264 243.618 132.25 245.752 135.909 248.463L136.335 251.257Z" fill="#5666ED" stroke="#2F2E41"/>
<path d="M160.112 225.926C160.261 226.696 160.238 227.476 160.045 228.201C159.846 228.948 159.475 229.609 158.969 230.134L158.744 230.35C157.936 231.008 157.252 231.813 156.72 232.73L156.7 232.766L156.686 232.804C156.568 233.113 156.508 233.478 156.455 233.694C156.399 233.928 156.332 234.099 156.216 234.247C155.937 234.477 155.613 234.642 155.261 234.73C154.892 234.822 154.499 234.829 154.107 234.748L154.071 234.74L154.033 234.739C152.835 234.674 151.635 234.48 150.452 234.158L150.445 234.155L150.437 234.154C149.972 234.044 149.521 233.834 149.116 233.535C148.959 233.419 148.811 233.291 148.672 233.152C149.135 233.084 149.583 232.943 149.999 232.724C150.726 232.342 151.32 231.75 151.72 231.017L151.74 230.981L151.754 230.942C151.948 230.386 152.103 229.813 152.219 229.227C152.354 228.724 152.671 228.325 153.09 228.102C153.494 227.918 153.916 227.977 154.516 228.079C155.071 228.174 155.807 228.314 156.54 227.975C157.049 227.739 157.391 227.348 157.663 227.009C157.918 226.692 158.106 226.431 158.339 226.221L158.453 226.124L158.464 226.115L158.556 226.04C158.777 225.874 159.044 225.777 159.33 225.762C159.589 225.748 159.858 225.803 160.112 225.926Z" fill="#5666ED" stroke="#2F2E41"/>
<mask id="path-10-inside-1_238_24942" fill="white">
<path d="M166.422 211.635L166.436 211.651C166.614 211.721 166.796 211.777 166.981 211.818L166.422 211.635Z"/>
</mask>
<path d="M166.422 211.635L166.436 211.651C166.614 211.721 166.796 211.777 166.981 211.818L166.422 211.635Z" fill="#5666ED"/>
<path d="M166.422 211.635L166.735 210.685L163.519 209.627L165.644 212.262L166.422 211.635ZM166.436 211.651L165.658 212.279L165.824 212.485L166.07 212.582L166.436 211.651ZM166.981 211.818L166.764 212.794L167.293 210.868L166.981 211.818ZM165.644 212.262L165.658 212.279L167.214 211.024L167.201 211.007L165.644 212.262ZM166.07 212.582C166.296 212.671 166.528 212.742 166.764 212.794L167.197 210.842C167.064 210.812 166.932 210.772 166.801 210.721L166.07 212.582ZM167.293 210.868L166.735 210.685L166.11 212.585L166.668 212.768L167.293 210.868Z" fill="#2F2E41" mask="url(#path-10-inside-1_238_24942)"/>
<path d="M166.133 212.049C166.557 212.629 166.481 213.677 165.722 214.498L165.553 214.666L165.543 214.675C165.112 215.092 164.572 215.366 163.978 215.468C163.404 215.566 162.797 215.498 162.218 215.269C161.896 215.008 161.621 214.684 161.414 214.314C161.196 213.923 161.059 213.494 161.012 213.059L161.009 213.025L161.001 212.993L159.995 208.906L159.988 208.878L159.978 208.851L159.966 208.801C159.964 208.785 159.964 208.77 159.966 208.756C159.967 208.747 159.969 208.739 159.971 208.732C160.061 208.668 160.167 208.63 160.282 208.624L160.307 208.622L160.331 208.618C160.991 208.512 161.652 208.407 162.313 208.301L162.337 208.298L162.361 208.292C162.727 208.195 163.122 208.195 163.512 208.296C163.666 208.371 163.769 208.508 163.857 208.773C163.904 208.915 163.94 209.075 163.979 209.26C164.015 209.436 164.056 209.643 164.11 209.837L164.112 209.845L164.115 209.852C164.277 210.372 164.56 210.851 164.936 211.244C165.276 211.599 165.686 211.874 166.133 212.049Z" fill="#5666ED" stroke="#2F2E41"/>
<path d="M142.126 336.622C142.38 337.008 142.483 337.467 142.421 337.894L142.42 337.894C142.232 339.104 141.82 340.24 141.207 341.24L141.198 341.256L141.189 341.273C140.675 342.27 140.161 343.267 139.647 344.265L139.64 344.279L139.633 344.294C139.368 344.9 138.985 345.428 138.51 345.851C137.753 346.368 136.83 346.594 135.881 346.484L135.871 346.483L135.862 346.483C135.274 346.438 134.705 346.281 134.308 346.033C133.935 345.801 133.761 345.526 133.761 345.202C133.846 344.825 133.997 344.476 134.208 344.176C134.426 343.864 134.703 343.607 135.022 343.419L135.044 343.406L135.064 343.392L135.345 343.195C135.631 343.002 135.933 342.82 136.248 342.628C136.66 342.378 137.095 342.111 137.501 341.801L137.515 341.791L137.526 341.78L137.852 341.484C139.407 340.016 140.545 338.125 141.163 335.994L141.26 335.921C141.599 336.047 141.907 336.29 142.126 336.622Z" fill="#5666ED" stroke="#2F2E41"/>
<path d="M153.249 350.477C153.023 350.689 152.751 350.837 152.448 350.909C151.425 351.121 150.361 351.162 149.295 351.027L149.294 351.026L149.282 351.025C148.009 350.895 146.752 351.169 145.678 351.815L145.619 351.85L145.572 351.9C145.03 352.474 144.375 352.916 143.648 353.205C143.392 353.226 143.214 353.131 143.063 352.954C142.885 352.743 142.757 352.422 142.692 352.082L142.69 352.072L142.687 352.062L142.649 351.883C142.48 350.991 142.607 350.099 142.999 349.358C143.26 348.9 143.627 348.53 144.067 348.277C144.5 348.029 144.994 347.9 145.509 347.903C145.786 347.946 146.029 348.059 146.372 348.207C146.704 348.349 147.118 348.515 147.621 348.509L147.659 348.509L147.698 348.502C148.398 348.384 149.083 348.202 149.745 347.959C150.099 347.878 150.478 347.886 150.851 347.989C151.221 348.092 151.575 348.286 151.881 348.557C152.401 349.117 152.806 349.784 153.064 350.508L153.249 350.477Z" fill="#5666ED" stroke="#2F2E41"/>
<path d="M149.833 364.277C150.984 366.333 151.809 368.551 152.271 370.838C152.496 372.721 152.293 374.592 151.681 376.295C151.264 377.456 150.666 378.514 149.915 379.434C149.931 379.055 149.91 378.671 149.851 378.289C149.697 377.295 149.293 376.344 148.684 375.535L148.679 375.527L148.672 375.519C148.501 375.309 148.304 375.094 148.137 374.904C147.962 374.706 147.807 374.52 147.682 374.333C147.443 373.976 147.342 373.66 147.419 373.307C147.671 372.706 147.998 372.148 148.392 371.649L148.412 371.624L148.428 371.596L148.577 371.329C149.268 369.985 149.217 368.554 149.229 367.317C149.24 366.179 149.3 365.177 149.833 364.277Z" fill="#5666ED" stroke="#2F2E41"/>
<mask id="path-16-inside-2_238_24942" fill="white">
<path d="M107.085 309.25L107.077 309.261L107.328 309.265L107.085 309.25Z"/>
</mask>
<path d="M107.085 309.25L107.077 309.261L107.328 309.265L107.085 309.25Z" fill="#5666ED"/>
<path d="M107.085 309.25L107.147 308.252L106.588 308.217L106.267 308.675L107.085 309.25ZM107.077 309.261L106.259 308.687L105.173 310.234L107.063 310.261L107.077 309.261ZM107.328 309.265L107.314 310.265L107.39 308.267L107.328 309.265ZM106.267 308.675L106.259 308.687L107.896 309.835L107.904 309.824L106.267 308.675ZM107.063 310.261L107.314 310.265L107.343 308.265L107.091 308.261L107.063 310.261ZM107.39 308.267L107.147 308.252L107.023 310.248L107.267 310.263L107.39 308.267Z" fill="#2F2E41" mask="url(#path-16-inside-2_238_24942)"/>
<path d="M106.036 309.746C104.622 311.292 102.784 312.351 100.727 312.79C98.402 313.274 96.0023 313.439 93.5861 313.279L93.5607 313.277L93.5345 313.278C93.0882 313.295 92.6335 313.234 92.1891 313.095L92.1793 313.092L92.1687 313.088C92.0729 313.063 91.9754 312.999 91.903 312.899C91.8342 312.804 91.7998 312.691 91.8002 312.585C91.8301 312.392 91.9883 312.162 92.3445 311.909C92.6994 311.656 93.1634 311.444 93.6116 311.272L93.6197 311.269L93.6288 311.265C95.1814 310.602 96.8064 310.11 98.4795 309.796C99.5433 309.669 100.622 309.629 101.706 309.675L101.718 309.675C103.157 309.699 104.597 309.722 106.036 309.746Z" fill="#5666ED" stroke="#2F2E41"/>
<path d="M206.386 224.086C206.756 225.599 207.126 227.112 207.496 228.625L207.503 228.654L207.513 228.681C207.674 229.114 207.729 229.572 207.676 230.009C207.625 230.434 207.473 230.823 207.241 231.145C206.952 231.438 206.607 231.665 206.226 231.813C205.839 231.963 205.42 232.029 204.991 232.007C204.198 231.934 203.411 231.703 202.672 231.321L202.645 231.308L202.619 231.298C201.568 230.901 200.572 230.321 199.676 229.583C199.306 229.262 199.023 228.84 198.863 228.369C198.706 227.909 198.677 227.427 198.771 226.981C199.115 226.134 199.632 225.394 200.285 224.807C200.949 224.212 201.739 223.788 202.602 223.562L202.618 223.558L202.633 223.553C203.452 223.282 204.316 223.142 205.197 223.141C205.537 223.143 205.874 223.183 206.184 223.256L206.386 224.086Z" fill="#5666ED" stroke="#2F2E41"/>
<path d="M223.333 244.932C223.709 245.362 223.997 245.919 224.233 246.503L223.758 246.659L223.245 246.825L223.451 247.325C223.523 247.499 223.498 247.786 223.269 248.137C223.048 248.477 222.686 248.79 222.281 248.963L222.279 248.963C221.907 249.124 221.499 249.198 221.078 249.179C220.658 249.16 220.234 249.047 219.836 248.845L219.824 248.839C219.384 248.631 219.014 248.254 218.799 247.784C218.585 247.317 218.546 246.806 218.674 246.354C218.903 245.733 219.283 245.203 219.775 244.814C220.27 244.422 220.864 244.181 221.502 244.116C222.299 244.08 222.875 244.407 223.333 244.932Z" fill="#5666ED" stroke="#2F2E41"/>
<path d="M334.986 360.823C337.865 364.756 340.065 368.164 341.386 370.866C342.047 372.218 342.479 373.373 342.671 374.315C342.865 375.267 342.8 375.931 342.566 376.363C341.086 379.088 338.3 380.891 334.115 381.702C329.923 382.513 324.376 382.316 317.48 381.072C308.273 379.249 299.159 376.662 290.224 373.338L290.217 373.336C283.354 370.877 275.794 367.873 267.749 364.409C225.989 346.422 173.425 317.087 119.743 281.801C66.0592 246.515 17.6683 209.493 -16.5173 177.561C-33.2209 161.958 -45.6333 148.404 -53.4243 137.274L-53.4252 137.272C-55.1753 134.798 -56.7922 132.228 -58.2691 129.577C-62.8841 121.184 -63.8741 114.883 -61.5633 110.629C-61.3493 110.235 -60.8845 109.88 -60.0667 109.615C-59.2547 109.352 -58.1605 109.2 -56.7964 109.162C-54.0707 109.085 -50.3746 109.464 -45.9481 110.207C-37.1022 111.692 -25.4352 114.614 -12.9766 118.144C11.6979 125.135 39.4173 134.498 54.3285 139.765L53.923 141.396C39.9809 136.492 12.4992 127.9 -11.9366 121.072C-24.3075 117.616 -35.9075 114.609 -44.5793 112.761C-48.9127 111.837 -52.5302 111.199 -55.152 110.942C-56.4595 110.814 -57.5431 110.777 -58.353 110.855C-58.757 110.893 -59.1175 110.962 -59.4116 111.076C-59.7001 111.187 -59.9849 111.366 -60.1453 111.661C-61.5235 114.2 -61.4354 117.631 -60.0837 121.746C-58.7281 125.872 -56.0746 130.775 -52.1827 136.333C-44.4556 147.371 -32.1259 160.818 -15.5549 176.297C18.5651 208.168 66.8644 245.115 120.444 280.333C174.023 315.55 226.486 344.835 268.17 362.79C276.179 366.238 283.705 369.228 290.539 371.677L290.539 371.676C299.383 374.967 308.405 377.53 317.522 379.338L317.522 379.338L317.53 379.34C323.826 380.477 329.021 380.728 332.984 380.083C336.944 379.439 339.761 377.884 341.148 375.331C341.51 374.664 341.463 373.785 341.205 372.831C340.941 371.857 340.427 370.697 339.707 369.384C338.266 366.754 335.955 363.428 333.007 359.605C327.106 351.956 318.601 342.258 309.246 332.071C290.71 311.886 268.799 289.736 257.101 277.717L258.169 276.56C270.705 289.445 292.918 312.056 311.456 332.667C320.818 343.075 329.232 352.962 334.986 360.823Z" fill="#3F3D56" stroke="#2F2E41"/>
</svg>
