<svg width="632" height="602" viewBox="0 0 632 602" fill="none" xmlns="http://www.w3.org/2000/svg">
<path d="M224.975 581.043L236.261 579.765L236.692 535.773L220.035 537.658L224.975 581.043Z" fill="#FFB6B6"/>
<path d="M259.217 587.749L223.747 591.76L222.191 578.102L243.957 575.64C247.592 575.229 251.241 576.274 254.103 578.545C256.965 580.816 258.804 584.126 259.217 587.749Z" fill="#2F2E41"/>
<path d="M108.906 580.341H120.265L125.668 536.676L108.904 536.678L108.906 580.341Z" fill="#FFB6B6"/>
<path d="M142.171 590.851L106.473 590.852L106.473 577.106L128.378 577.105C132.036 577.105 135.544 578.553 138.131 581.131C140.718 583.709 142.171 587.205 142.171 590.851Z" fill="#2F2E41"/>
<path d="M190.401 385.078L196.886 406.102L232.092 482.031L241.357 554.053L220.048 554.976L207.077 488.494L162.607 440.48L123.695 566.057L106.092 564.21C106.092 564.21 120.915 401.699 141.298 385.078C141.298 385.078 174.651 369.381 190.401 385.078Z" fill="#2F2E41"/>
<path d="M161.632 294.361C174.199 294.361 184.387 284.208 184.387 271.683C184.387 259.157 174.199 249.004 161.632 249.004C149.065 249.004 138.877 259.157 138.877 271.683C138.877 284.208 149.065 294.361 161.632 294.361Z" fill="#FFB6B6"/>
<path d="M192.718 389.235C192.718 389.235 195.497 295.052 156.586 301.515C117.674 307.979 133.887 398.93 133.887 398.93C133.887 398.93 142.225 415.55 162.608 397.083C182.99 378.616 192.718 389.235 192.718 389.235Z" fill="#CACACA"/>
<path opacity="0.2" d="M138.982 341.219L148.139 376.198L162.089 390.102L142.688 383.693L138.982 341.219Z" fill="#161616"/>
<path d="M193.005 429.066C191.725 428.603 190.561 427.866 189.598 426.907C188.634 425.948 187.893 424.79 187.427 423.514C186.961 422.239 186.781 420.877 186.9 419.525C187.019 418.173 187.434 416.863 188.116 415.688L166.475 390.717L183.535 388.504L201.471 412.556C203.375 413.828 204.745 415.753 205.321 417.965C205.897 420.177 205.639 422.523 204.596 424.558C203.552 426.593 201.796 428.176 199.66 429.007C197.523 429.838 195.156 429.859 193.005 429.066Z" fill="#FFB6B6"/>
<path d="M166.655 320.697L169.092 368.458L197.813 405.392L185.768 414.626L146.856 375.844C146.856 375.844 132.959 328.753 143.151 314.903C146.972 309.709 151.185 308.28 154.958 308.524C158.062 308.782 160.964 310.161 163.119 312.403C165.273 314.646 166.531 317.595 166.655 320.697Z" fill="#CACACA"/>
<path d="M158.927 295.512C159.036 295.415 159.12 295.294 159.174 295.159C159.228 295.024 159.249 294.878 159.236 294.733C159.223 294.588 159.176 294.448 159.1 294.324C159.023 294.2 158.919 294.096 158.795 294.02C156.774 292.772 155.128 291.006 154.029 288.905C152.93 286.805 152.418 284.448 152.549 282.083C152.679 279.718 153.446 277.431 154.77 275.464C156.093 273.496 157.924 271.92 160.07 270.901C166.76 267.722 175.825 270.195 180.771 264.086C181.777 262.779 182.488 261.271 182.856 259.666C183.224 258.06 183.241 256.394 182.904 254.781C181.837 249.011 177.485 244.727 172.611 241.79C166.623 238.183 159.742 236.319 152.746 236.409C145.75 236.5 138.92 238.542 133.029 242.303C127.137 246.064 122.421 251.395 119.414 257.691C116.406 263.987 115.228 270.996 116.013 277.925C116.643 283.478 118.362 289.705 115.049 294.214C112.133 298.182 106.629 298.926 101.794 299.912C91.4237 302.027 81.4192 306.905 74.3818 314.786C67.3444 322.666 63.5902 333.722 65.712 344.057C67.8338 354.393 76.346 363.476 86.8083 365.078C95.3241 366.382 104.117 362.777 110.371 356.871C116.624 350.964 120.577 342.988 123.071 334.768C126.03 325.013 127.197 314.5 132.54 305.81C137.768 297.306 149.035 291.21 157.865 295.639C158.034 295.727 158.226 295.762 158.416 295.739C158.605 295.717 158.784 295.638 158.927 295.512Z" fill="#2F2E41"/>
<path d="M335.354 591.999H50.9265C50.6808 591.999 50.4451 591.902 50.2713 591.729C50.0976 591.555 50 591.321 50 591.076C50 590.831 50.0976 590.596 50.2713 590.423C50.4451 590.25 50.6808 590.152 50.9265 590.152H335.354C335.6 590.152 335.835 590.25 336.009 590.423C336.183 590.596 336.28 590.831 336.28 591.076C336.28 591.321 336.183 591.555 336.009 591.729C335.835 591.902 335.6 591.999 335.354 591.999Z" fill="#3F3D56"/>
<path d="M562.668 213.862C562.608 244.431 551.076 273.872 530.34 296.396C509.604 318.921 481.164 332.9 450.61 335.586C420.057 338.271 389.601 329.469 365.229 310.909C340.857 292.349 324.334 265.374 318.906 235.288C313.478 205.201 319.539 174.18 335.898 148.321C352.256 122.463 377.729 103.638 407.307 95.5488C436.886 87.4592 468.431 90.6896 495.741 104.605C523.05 118.52 544.15 142.114 554.89 170.747C555.158 171.466 555.419 172.185 555.673 172.911V172.918C556.807 176.109 557.806 179.36 558.669 182.67C561.333 192.854 562.677 203.337 562.668 213.862Z" fill="#3F3D56"/>
<path d="M425.459 130.697C419.901 127.702 413.73 126.011 407.417 125.753C401.103 125.496 394.814 126.679 389.029 129.212C383.936 131.421 378.572 135.384 376.873 142.541C383.745 138.499 392.641 144.886 394.41 155.131L393.997 155.244C393.063 162.341 395.148 170.067 399.185 174.467C399.485 172.482 400.225 170.588 401.351 168.923C402.478 167.258 403.962 165.864 405.696 164.843C408.662 162.899 411.943 161.488 414.207 158.148C416.891 154.188 417.572 148.401 418.638 143.122C419.704 137.842 421.727 132.168 425.459 130.697Z" fill="#5666ED"/>
<path d="M386.99 191.086C385.086 193.935 382.544 195.722 380.263 197.948C377.63 200.335 375.902 203.554 375.371 207.063C375.082 209.541 375.529 212.061 375.467 214.568C375.405 217.074 374.567 219.896 372.856 220.519C370.156 221.491 368.094 216.492 365.319 216.143C363.113 215.869 361.127 219.327 361.766 222.327C362.405 225.326 365.408 226.654 367.132 224.696C368.692 227.305 367.593 232.037 365.25 232.838C365.002 234.482 364.755 236.118 364.515 237.762C358.592 233.632 352.607 229.435 347.571 223.388C341.969 216.72 338.495 208.536 337.594 199.886C336.941 192.935 337.91 184.985 334.708 179.637C332.145 175.357 329.957 174.233 326 174.5C325.278 174.548 323.6 175.5 323.1 175.5C325.434 168.513 327.942 161.953 331.5 155.5C332.305 155.155 332.834 154.068 333.5 153.5C337.183 150.384 338.913 144.184 341.902 139.822C342.095 139.541 342.294 139.267 342.5 139C345.558 135.021 348.752 132.687 352.71 130.783C361.471 126.544 370.485 122.251 379.734 122.84L377.102 123.093C374.031 131.667 370.957 140.24 367.881 148.814C367.414 150.129 366.942 151.446 366.466 152.765C364.721 157.641 362.92 162.832 363.188 168.289C363.346 171.522 364.473 174.973 366.617 176.082C368.616 177.11 370.801 175.849 372.732 174.603C373.55 174.083 374.361 173.562 375.178 173.035C378.112 171.152 381.362 169.221 384.461 170.481C387.299 171.631 389.394 175.473 389.793 179.616C390.158 183.643 389.172 187.678 386.99 191.086Z" fill="#5666ED"/>
<path d="M404.441 249.621C395.873 244.362 387.304 239.104 378.735 233.846L378.88 233.473C373.553 235.495 371.341 244.933 372.221 252.652C373.102 260.371 376.087 267.271 377.595 274.792C379.629 285.084 378.862 295.731 375.372 305.627C386.64 293.027 396.612 279.333 405.138 264.75C406.329 262.912 407.236 260.906 407.83 258.8C408.459 256.555 408.235 254.157 407.201 252.067C406.499 251.036 405.551 250.195 404.441 249.621Z" fill="#5666ED"/>
<path d="M370.622 153.956C369.616 156.11 369.461 158.562 370.188 160.824C371.033 162.646 372.567 164.062 374.455 164.763L379.19 167.102C380.765 167.88 382.463 168.666 384.068 168.025C386.005 167.253 387.348 164.227 387.001 161.418C386.631 158.429 384.74 156.372 382.992 154.621C380.544 152.171 378.097 149.72 375.65 147.27L374.271 148.953C372.78 150.403 371.546 152.095 370.622 153.956Z" fill="#5666ED"/>
<path d="M537.288 185.916C539.418 186.416 541.548 186.916 543.678 187.415C543.307 194.585 539.741 201.221 534.959 203.625C532.966 204.624 530.747 204.994 529.098 206.864C527.607 208.562 526.851 211.205 526.157 213.732C524.941 218.142 523.725 222.552 522.509 226.962C521.203 231.715 519.527 236.995 516.132 238.707C513.219 240.179 509.887 238.378 507.647 235.358C505.407 232.338 504.039 228.277 502.713 224.319C502.796 228.633 500.783 232.865 497.931 234.365C495.073 235.865 491.596 234.509 489.686 231.16C488.312 228.757 487.741 225.586 486.394 223.148C485.048 220.71 482.224 219.313 480.753 221.6C479.785 223.121 479.908 225.449 479.427 227.38C479.185 228.662 478.548 229.837 477.605 230.742C476.662 231.646 475.459 232.235 474.164 232.427C472.974 232.4 471.801 232.131 470.718 231.638C469.635 231.145 468.663 230.437 467.863 229.558C463.656 225.268 460.916 219.763 460.037 213.828C459.441 210.983 459.516 208.038 460.257 205.227C461.102 202.563 463.143 200.509 465.17 201.016C466.503 198.208 463.871 194.483 461.501 194.811C459.123 195.14 457.261 197.681 455.31 199.632C453.366 201.584 450.645 203.001 448.686 201.063C448.73 201.772 448.49 202.469 448.018 203.002C447.546 203.534 446.881 203.857 446.17 203.901C446.099 203.905 446.029 203.907 445.959 203.905C444.656 203.533 443.447 202.894 442.406 202.029C437.919 199.242 432.223 201.091 429.035 206.364C431.028 197.913 433.948 188.217 440.07 186.231C442.571 185.416 445.299 186.087 447.663 184.676C451.847 182.177 452.692 172.733 449.078 168.837C449.538 172.521 449.449 176.822 447.498 179.342C445.546 181.862 441.451 180.218 441.699 176.493C441.643 177.017 441.422 177.51 441.069 177.901C440.715 178.293 440.246 178.563 439.729 178.672C439.211 178.781 438.673 178.725 438.19 178.511C437.707 178.296 437.304 177.935 437.04 177.479C435.741 175.507 435.851 172.282 436.772 169.926C437.721 167.792 439.082 165.866 440.778 164.256C444.042 160.77 447.353 157.244 451.133 155.052C454.918 152.861 459.288 152.121 463.081 154.299C465.081 155.449 466.84 157.367 468.88 158.38C469.36 158.677 469.893 158.876 470.45 158.967C471.007 159.058 471.577 159.039 472.126 158.911C472.676 158.783 473.194 158.548 473.653 158.22C474.111 157.892 474.5 157.477 474.798 156.999C474.821 156.962 474.843 156.925 474.865 156.887C476.384 154.23 475.669 150.286 476.232 146.965C477.242 141.096 483.131 138.35 486.395 142.226C483.955 141.603 481.434 144.479 481.131 147.965C480.822 151.45 482.588 154.97 484.952 156.025C488.923 157.778 492.812 153.367 495.815 149.286C498.948 145.013 502.086 140.742 505.228 136.474C505.73 135.747 506.293 135.064 506.911 134.433C507.896 133.477 509.208 132.929 510.582 132.902C511.956 132.874 513.289 133.367 514.312 134.282C517.486 136.864 518.977 142.158 521.581 145.801C525.36 151.094 531.015 152.381 536.278 153.409C540.201 154.169 544.127 154.933 548.055 155.703C550.674 160.557 552.958 165.584 554.892 170.748C547.689 174.021 541.579 179.285 537.288 185.916Z" fill="#5666ED"/>
<path d="M549.973 268.311C547.029 274.268 543.605 279.977 539.735 285.382C537.262 284.328 534.602 286.211 532.287 287.978C529.868 289.827 526.962 291.628 524.481 289.943C521.946 288.218 521.128 283.39 521.932 279.562C522.856 276.03 524.472 272.716 526.687 269.81C528.748 266.742 530.954 263.558 533.819 262.366C536.691 261.175 540.381 262.859 541.219 266.927L543.253 266.859C542.112 265.297 542.71 262.065 544.243 261.497C546.008 260.833 547.541 263.25 548.585 265.386C549.052 266.352 549.526 267.324 549.973 268.311Z" fill="#5666ED"/>
<path d="M472.08 239.384C467.708 239.658 464.245 234.294 461.944 229.018C459.643 223.741 457.544 217.707 453.599 215.021C451.345 213.487 448.776 213.276 446.331 212.532C444.945 212.183 443.662 211.51 442.588 210.568C441.515 209.626 440.682 208.443 440.159 207.116L437.386 206C433.507 207.932 429.955 210.457 426.857 213.482C423.318 217.229 421.113 222.032 420.584 227.151C420.054 232.683 422.01 238.852 425.665 240.93C428.553 242.572 431.916 241.537 434.841 243.04C438.496 244.918 440.666 250.374 441.487 255.761C442.309 261.148 442.101 266.746 442.688 272.194C443.276 277.642 444.896 283.311 448.248 286.103C452.442 289.597 458.597 286.694 460.479 280.334C461.402 277.214 461.37 273.694 462.061 270.456C463.276 264.753 466.557 260.522 469.16 255.844C471.762 251.166 473.81 244.813 472.08 239.384Z" fill="#5666ED"/>
<path d="M428.882 183.347C429.29 183.721 429.67 184.123 430.02 184.551C430.383 185.174 430.568 185.884 430.556 186.604C430.543 187.324 430.334 188.027 429.95 188.637C430.477 188.607 430.992 188.469 431.462 188.231C431.932 187.993 432.348 187.66 432.682 187.254C433.48 186.348 434.182 185.363 434.777 184.313C435.056 183.954 435.256 183.539 435.362 183.097C435.469 182.655 435.48 182.195 435.394 181.748C435.188 181.161 434.699 180.91 434.357 180.469C433.882 179.605 433.558 178.667 433.399 177.695C433.209 176.784 432.768 175.944 432.126 175.269C431.483 174.595 430.664 174.112 429.762 173.875L429.981 173.917C429.608 174.137 429.314 174.469 429.139 174.864C428.964 175.26 428.918 175.7 429.007 176.123C429.14 176.977 429.691 177.687 429.636 178.558C429.557 179.812 428.301 180.4 428.223 181.653C428.211 182.282 428.448 182.89 428.882 183.347Z" fill="#5666ED"/>
<path d="M421.391 162.049L421.41 162.045C421.544 161.923 421.669 161.79 421.783 161.648L421.391 162.049Z" fill="#5666ED"/>
<path d="M422.7 167.932C423.226 167.473 423.614 166.879 423.823 166.214C424.033 165.55 424.055 164.841 423.887 164.165C423.57 162.74 422.446 161.782 421.409 162.045C421.108 162.349 420.735 162.572 420.324 162.693C419.913 162.813 419.478 162.828 419.06 162.735C418.419 162.57 417.716 162.147 417.16 162.628C416.842 162.987 416.619 163.421 416.512 163.888C416.307 164.517 416.101 165.147 415.895 165.776C415.797 166.002 415.772 166.252 415.822 166.492C415.861 166.588 415.925 166.673 416.007 166.737C416.088 166.802 416.185 166.845 416.288 166.861L419.992 167.95C420.417 168.145 420.88 168.244 421.348 168.241C421.816 168.238 422.278 168.133 422.7 167.932Z" fill="#5666ED"/>
<path d="M515.9 249.148C515.329 248.217 514.758 247.286 514.188 246.355C513.627 245.276 512.861 244.317 511.932 243.531C511.525 243.192 511 243.028 510.472 243.074C509.944 243.121 509.456 243.374 509.116 243.779L509.086 243.816L509.155 244.347C510.684 245.98 511.725 248.005 512.162 250.195C512.292 251.146 512.247 252.131 512.361 253.087C512.373 253.53 512.473 253.967 512.654 254.372C512.836 254.776 513.095 255.141 513.419 255.446C514.317 256.044 515.372 255.162 516.012 254.086C516.584 253.202 516.84 252.152 516.74 251.105C516.597 250.402 516.311 249.736 515.9 249.148Z" fill="#5666ED"/>
<path d="M524.853 250.361C524.961 249.489 524.89 248.604 524.644 247.761C524.603 246.62 524.906 245.493 525.515 244.525C526.12 243.613 526.578 242.612 526.873 241.559C526.997 241.079 526.975 240.573 526.808 240.106C526.619 239.683 526.161 239.49 525.899 239.825L526.46 240.185C525.702 240.05 524.923 240.088 524.181 240.295C523.758 240.457 523.38 240.717 523.08 241.055C522.779 241.393 522.564 241.798 522.454 242.236C522.361 242.919 522.21 243.593 522.001 244.25C521.666 244.936 521.017 245.164 520.61 245.767C520.332 246.301 520.192 246.895 520.202 247.497C520.212 248.098 520.372 248.688 520.667 249.212C521.179 250.07 521.992 250.708 522.95 251.001C523.636 251.246 524.539 251.259 524.853 250.361Z" fill="#5666ED"/>
<path d="M540.795 255.154C541.043 255.797 541.375 256.405 541.783 256.961C542.546 257.727 543.583 257.256 544.509 257.07C545.349 256.938 546.21 257.035 546.999 257.35C547.789 257.666 548.478 258.188 548.994 258.863C548.634 257.078 547.851 255.405 546.708 253.985C545.566 252.564 544.098 251.438 542.429 250.7C540.259 249.951 537.973 249.595 535.677 249.648L535.285 249.748C536.284 252.646 539.422 252.581 540.795 255.154Z" fill="#5666ED"/>
<path d="M473.273 261.081L473.279 261.093L473.392 260.875L473.273 261.081Z" fill="#5666ED"/>
<path d="M470.855 265.749C470.328 266.703 469.874 267.696 469.498 268.719C469.001 270.376 468.671 272.079 468.515 273.802C468.392 274.782 468.354 276.033 468.97 276.51C469.147 276.627 469.36 276.676 469.571 276.647C469.781 276.619 469.974 276.515 470.113 276.355C470.455 275.995 470.735 275.58 470.941 275.128C472.151 273.051 473.091 270.828 473.737 268.514C474.412 266.059 474.251 263.45 473.279 261.096C472.471 262.647 471.663 264.198 470.855 265.749Z" fill="#5666ED"/>
<path d="M447.523 141.448C447.908 141.822 448.393 142.076 448.921 142.179C449.448 142.281 449.994 142.228 450.491 142.025C451.52 141.576 452.465 140.955 453.283 140.187C453.96 139.687 454.535 139.063 454.976 138.347C455.218 137.919 455.374 137.448 455.433 136.96C455.493 136.472 455.455 135.977 455.322 135.504C455.133 135.05 454.831 134.652 454.444 134.348C454.058 134.043 453.6 133.842 453.113 133.762C451.743 133.357 450.373 132.952 449.002 132.548L449.994 131.657C448.974 131.112 447.846 132.124 447.208 133.377C446.799 134.196 446.514 135.07 446.362 135.972C446.146 136.914 446.137 137.892 446.338 138.837C446.538 139.783 446.943 140.674 447.523 141.448Z" fill="#5666ED"/>
<path d="M471.716 133.352C472.102 133.776 472.636 134.038 473.209 134.084C473.782 134.131 474.351 133.958 474.801 133.602C475.189 133.312 475.51 132.944 475.745 132.522C475.98 132.1 476.124 131.633 476.166 131.152C476.263 130.078 475.73 128.884 474.969 128.791L475.143 127.785C473.677 127.521 471.872 127.469 471.087 129.243C470.822 129.923 470.74 130.66 470.851 131.381C470.961 132.102 471.26 132.782 471.716 133.352Z" fill="#5666ED"/>
<path d="M372.034 205.703C377.085 205.703 381.181 200.23 381.181 193.478C381.181 186.727 377.085 181.254 372.034 181.254C366.982 181.254 362.887 186.727 362.887 193.478C362.887 200.23 366.982 205.703 372.034 205.703Z" fill="#FFC245"/>
<path d="M539.184 357.074C543.551 355.915 546.435 352.521 545.626 349.494C544.817 346.466 540.621 344.951 536.254 346.11C531.888 347.269 529.003 350.663 529.813 353.691C530.622 356.719 534.817 358.233 539.184 357.074Z" fill="#FFC245"/>
<path d="M485.702 358.059C490.069 356.899 492.953 353.506 492.144 350.478C491.335 347.45 487.139 345.936 482.772 347.095C478.405 348.254 475.521 351.648 476.33 354.675C477.139 357.703 481.335 359.218 485.702 358.059Z" fill="#FFC245"/>
<path d="M548.688 312.725C553.055 311.566 555.939 308.172 555.13 305.144C554.321 302.116 550.125 300.602 545.758 301.761C541.392 302.92 538.507 306.314 539.316 309.341C540.125 312.369 544.321 313.884 548.688 312.725Z" fill="#FFC245"/>
<path d="M564.462 293.872C566.433 293.629 567.747 291.141 567.396 288.316C567.044 285.492 565.161 283.399 563.189 283.643C561.217 283.886 559.904 286.374 560.255 289.199C560.607 292.024 562.49 294.116 564.462 293.872Z" fill="#FFC245"/>
<path d="M568.456 260.409C570.428 260.166 571.741 257.678 571.39 254.854C571.038 252.029 569.155 249.936 567.183 250.18C565.212 250.424 563.898 252.911 564.25 255.736C564.601 258.561 566.484 260.653 568.456 260.409Z" fill="#FFC245"/>
<path d="M514.542 324.732C516.514 324.488 517.827 322.001 517.476 319.176C517.124 316.351 515.241 314.259 513.269 314.502C511.298 314.746 509.984 317.233 510.336 320.058C510.687 322.883 512.57 324.975 514.542 324.732Z" fill="#FFC245"/>
<path d="M541.583 334.488C543.555 334.244 544.868 331.756 544.517 328.932C544.165 326.107 542.282 324.014 540.31 324.258C538.339 324.502 537.025 326.989 537.377 329.814C537.728 332.639 539.611 334.731 541.583 334.488Z" fill="#FFC245"/>
<path d="M508.747 362.116C510.719 361.873 512.032 359.385 511.681 356.561C511.329 353.736 509.446 351.643 507.474 351.887C505.503 352.131 504.189 354.618 504.541 357.443C504.892 360.268 506.775 362.36 508.747 362.116Z" fill="#FFC245"/>
<path d="M273.323 312.307C277.69 311.148 280.574 307.754 279.765 304.726C278.956 301.698 274.76 300.184 270.393 301.343C266.026 302.502 263.142 305.896 263.951 308.923C264.76 311.951 268.956 313.466 273.323 312.307Z" fill="#FFC245"/>
<path d="M219.837 313.297C224.203 312.138 227.088 308.744 226.279 305.716C225.47 302.689 221.274 301.174 216.907 302.333C212.54 303.492 209.656 306.886 210.465 309.914C211.274 312.941 215.47 314.456 219.837 313.297Z" fill="#FFC245"/>
<path d="M282.829 267.959C287.196 266.8 290.08 263.406 289.271 260.378C288.462 257.351 284.266 255.836 279.899 256.995C275.532 258.154 272.648 261.548 273.457 264.576C274.266 267.603 278.462 269.118 282.829 267.959Z" fill="#FFC245"/>
<path d="M298.6 249.105C300.572 248.861 301.886 246.374 301.534 243.549C301.183 240.724 299.3 238.632 297.328 238.875C295.356 239.119 294.043 241.606 294.394 244.431C294.746 247.256 296.629 249.348 298.6 249.105Z" fill="#FFC245"/>
<path d="M302.595 215.644C304.566 215.4 305.88 212.913 305.528 210.088C305.177 207.263 303.294 205.171 301.322 205.414C299.35 205.658 298.037 208.145 298.388 210.97C298.74 213.795 300.623 215.887 302.595 215.644Z" fill="#FFC245"/>
<path d="M248.679 279.968C250.65 279.724 251.964 277.237 251.612 274.412C251.261 271.587 249.378 269.495 247.406 269.739C245.434 269.982 244.121 272.47 244.472 275.294C244.824 278.119 246.707 280.212 248.679 279.968Z" fill="#FFC245"/>
<path d="M275.72 289.722C277.691 289.478 279.005 286.991 278.653 284.166C278.302 281.341 276.419 279.249 274.447 279.492C272.475 279.736 271.162 282.224 271.513 285.048C271.865 287.873 273.748 289.966 275.72 289.722Z" fill="#FFC245"/>
<path d="M242.886 317.353C244.857 317.109 246.171 314.622 245.819 311.797C245.468 308.972 243.585 306.88 241.613 307.123C239.641 307.367 238.328 309.854 238.679 312.679C239.031 315.504 240.914 317.596 242.886 317.353Z" fill="#FFC245"/>
<path d="M598.282 107.336C602.649 106.177 605.533 102.783 604.724 99.7553C603.915 96.7277 599.719 95.213 595.352 96.3721C590.985 97.5311 588.101 100.925 588.91 103.953C589.719 106.98 593.915 108.495 598.282 107.336Z" fill="#FFC245"/>
<path d="M544.794 108.322C549.16 107.163 552.045 103.769 551.236 100.742C550.427 97.714 546.231 96.1993 541.864 97.3584C537.497 98.5174 534.613 101.911 535.422 104.939C536.231 107.967 540.427 109.481 544.794 108.322Z" fill="#FFC245"/>
<path d="M607.784 62.9804C612.151 61.8214 615.035 58.4274 614.226 55.3998C613.417 52.3722 609.221 50.8575 604.854 52.0165C600.487 53.1756 597.603 56.5696 598.412 59.5972C599.221 62.6248 603.417 64.1395 607.784 62.9804Z" fill="#FFC245"/>
<path d="M623.559 44.1321C625.531 43.8885 626.845 41.401 626.493 38.5762C626.142 35.7514 624.259 33.659 622.287 33.9026C620.315 34.1462 619.002 36.6337 619.353 39.4585C619.704 42.2833 621.588 44.3758 623.559 44.1321Z" fill="#FFC245"/>
<path d="M627.552 10.6712C629.523 10.4276 630.837 7.94008 630.485 5.11528C630.134 2.29047 628.251 0.198023 626.279 0.441662C624.307 0.685301 622.994 3.17276 623.345 5.99757C623.697 8.82238 625.58 10.9148 627.552 10.6712Z" fill="#FFC245"/>
<path d="M573.636 74.9935C575.607 74.7498 576.921 72.2624 576.569 69.4376C576.218 66.6128 574.335 64.5203 572.363 64.7639C570.391 65.0076 569.078 67.495 569.429 70.3199C569.781 73.1447 571.664 75.2371 573.636 74.9935Z" fill="#FFC245"/>
<path d="M600.677 84.7493C602.648 84.5057 603.962 82.0182 603.61 79.1934C603.259 76.3686 601.376 74.2762 599.404 74.5198C597.432 74.7634 596.119 77.2509 596.47 80.0757C596.822 82.9005 598.705 84.9929 600.677 84.7493Z" fill="#FFC245"/>
<path d="M567.845 112.378C569.816 112.135 571.13 109.647 570.778 106.822C570.427 103.997 568.544 101.905 566.572 102.149C564.6 102.392 563.287 104.88 563.638 107.705C563.99 110.529 565.873 112.622 567.845 112.378Z" fill="#FFC245"/>
<path d="M257.252 319.891C248.501 319.891 242.812 317.724 240.294 313.415C235.329 304.92 243.645 290.013 265.012 269.11L266.807 270.932C246.959 290.35 238.33 304.981 242.508 312.13C245.152 316.652 253.02 318.273 265.267 316.815C277.425 315.369 293.538 311.057 313.157 304.001C353.547 289.473 404.22 264.967 455.842 234.998C507.463 205.03 553.847 173.187 586.453 145.337C592.715 139.987 598.399 134.84 603.346 130.04C609.839 123.893 615.83 117.239 621.26 110.141C628.574 100.244 631.042 92.6223 628.399 88.0995C623.983 80.5455 605.435 81.2558 576.167 90.1024L575.424 87.6585C606.825 78.1685 625.393 77.8838 630.613 86.8144C633.856 92.363 631.403 100.721 623.324 111.656C617.81 118.866 611.727 125.625 605.133 131.87C600.148 136.707 594.424 141.89 588.12 147.276C555.401 175.224 508.882 207.161 457.132 237.205C405.38 267.249 354.558 291.824 314.027 306.403C294.225 313.525 277.922 317.882 265.571 319.351C262.811 319.694 260.033 319.874 257.252 319.891Z" fill="#3F3D56"/>
</svg>
