<svg width="241" height="240" viewBox="0 0 241 240" fill="none" xmlns="http://www.w3.org/2000/svg">
<path d="M10.2657 40H155.734C161.404 40 166 44.7009 166 50.5C166 56.2991 161.404 61 155.734 61H10.2657C4.59598 61 0 56.2991 0 50.5C0 44.7009 4.59598 40 10.2657 40Z" fill="#2F2E41"/>
<path d="M134.312 30H164.688C165.414 30 166 30.4477 166 31C166 31.5523 165.414 32 164.688 32H134.312C133.586 32 133 31.5523 133 31C133 30.4477 133.586 30 134.312 30Z" fill="#BBC2FA"/>
<path d="M1.31248 0H31.6875C32.4138 0 33 0.67153 33 1.49999C33 2.32846 32.4138 2.99999 31.6875 2.99999H1.31248C0.586157 3.00363 0 2.33211 0 1.49999C0 0.67153 0.586157 0 1.31248 0Z" fill="#BBC2FA"/>
<path d="M1.30131 11H89.6987C90.4188 11 91 11.6707 91 12.5018C91 13.3293 90.4188 14 89.6987 14H1.30131C0.581167 14 0 13.3293 0 12.5018C0 11.6744 0.581167 11 1.30131 11Z" fill="#BBC2FA"/>
<path d="M74 82.2426C74 89.0036 79.4683 94.4851 86.2131 94.4851C88.2559 94.4851 90.1798 93.9834 91.8691 93.0959L103.704 111.911C104.429 113.062 105.978 113.351 107.067 112.535C108.083 111.773 108.302 110.337 107.561 109.302L94.5438 91.1924C96.9308 88.9565 98.4261 85.7736 98.4261 82.2426C98.4261 75.4816 92.9578 70 86.2131 70C79.4683 70 74 75.4816 74 82.2426ZM75.6768 82.2426C75.6768 76.4098 80.3943 71.6777 86.2162 71.6777C92.038 71.6777 96.7556 76.4066 96.7556 82.2426C96.7556 88.0753 92.038 92.8074 86.2162 92.8074C80.3975 92.8074 75.6768 88.0785 75.6768 82.2426Z" fill="#2F2E41"/>
<path d="M204.324 60.3024C204.324 60.3024 196.627 61.1685 196.13 73.0655C195.715 82.9804 194.869 88.5052 198.912 90.5733C200.356 91.3124 202.054 91.3759 203.598 90.8719L220.091 85.4591C220.091 85.4591 220.338 67.6154 214.627 63.2776C208.916 58.9399 204.324 60.3024 204.324 60.3024Z" fill="#3F3D56"/>
<path d="M213.416 87.6467L205.068 90.3867V78.3926H212.641L213.416 87.6467Z" fill="#FFB6B6"/>
<path d="M187.898 155.729C187.445 158.477 185.609 160.448 183.799 160.131C181.985 159.813 180.886 157.327 181.338 154.58C181.503 153.478 181.94 152.437 182.61 151.545L184.678 139.928L190.306 141.104L187.67 152.43C188.017 153.501 188.096 154.632 187.898 155.729Z" fill="#FFB6B6"/>
<path d="M207.009 232.977H199.193L194.656 191.279H206.743L207.009 232.977Z" fill="#FFB6B6"/>
<path d="M191.579 239.677C190.757 239.677 190.024 239.659 189.474 239.606C187.398 239.416 185.416 237.885 184.421 236.993C183.976 236.594 183.83 235.952 184.062 235.399C184.231 235.003 184.563 234.709 184.979 234.589L190.465 233.025L199.351 227.041L199.452 227.22C199.489 227.287 200.36 228.855 200.652 229.915C200.764 230.319 200.734 230.655 200.566 230.916C200.45 231.095 200.286 231.2 200.155 231.259C200.315 231.427 200.82 231.767 202.372 232.013C204.642 232.372 205.114 230.027 205.136 229.93L205.151 229.852L205.218 229.807C206.295 229.113 206.961 228.799 207.189 228.866C207.331 228.908 207.571 228.982 208.214 235.366C208.278 235.567 208.73 237.034 208.423 238.442C208.091 239.972 201.4 239.446 200.061 239.323C200.024 239.326 195.016 239.681 191.583 239.681H191.579V239.677Z" fill="#3F3D56"/>
<path d="M224.673 232.977H216.853L212.32 191.279H224.404L224.673 232.977Z" fill="#FFB6B6"/>
<path d="M209.241 239.677C208.419 239.677 207.686 239.659 207.136 239.606C205.06 239.416 203.078 237.885 202.083 236.993C201.638 236.594 201.493 235.952 201.724 235.399C201.893 235.003 202.226 234.709 202.641 234.589L208.127 233.025L217.013 227.041L217.114 227.22C217.151 227.287 218.022 228.855 218.314 229.915C218.426 230.319 218.396 230.655 218.228 230.916C218.112 231.095 217.948 231.2 217.817 231.259C217.978 231.427 218.482 231.767 220.035 232.013C222.305 232.372 222.776 230.027 222.798 229.93L222.813 229.852L222.881 229.807C223.961 229.113 224.623 228.799 224.851 228.866C224.993 228.908 225.233 228.982 225.876 235.366C225.94 235.567 226.392 237.034 226.086 238.442C225.753 239.972 219.062 239.446 217.723 239.323C217.686 239.326 212.678 239.681 209.245 239.681H209.241V239.677Z" fill="#3F3D56"/>
<path d="M226.919 130.561H188.934L202.588 85.7051H217.734L226.919 130.561Z" fill="#E9E9E9"/>
<path d="M204.978 85.7099C204.978 85.7099 195.543 85.4635 194.552 87.9422C193.561 90.4209 181.889 149.406 181.889 149.406H189.585L204.978 85.7136V85.7099Z" fill="#E9E9E9"/>
<path d="M206.101 81.7118C210.694 81.7118 214.418 77.9948 214.418 73.4096C214.418 68.8244 210.694 65.1074 206.101 65.1074C201.507 65.1074 197.783 68.8244 197.783 73.4096C197.783 77.9948 201.507 81.7118 206.101 81.7118Z" fill="#FFB6B6"/>
<path d="M201.826 61.4004C201.826 61.4004 197.249 79.9533 202.339 88.6251L195.169 87.1058C195.169 87.1058 192.391 66.802 197.978 63.1101L201.826 61.4004Z" fill="#3F3D56"/>
<path d="M219.026 130.561H194.096L180.457 186.44C180.206 188.799 181.706 191.001 184.002 191.617C191.486 193.618 209.444 196.452 236.621 188.556C239.236 187.798 240.72 185.044 239.901 182.449L219.026 130.561Z" fill="#3F3D56"/>
<path d="M208.947 85.7049L216.7 85.3652C220.058 85.6191 223.095 87.4408 224.894 90.2816C230.373 98.9272 240.623 117.148 231.472 119.645C219.408 122.934 213.562 104.624 213.562 104.624L208.947 85.7049Z" fill="#E9E9E9"/>
<path d="M206.288 91.133C204.695 88.8484 204.639 86.157 206.157 85.1229C207.679 84.0889 210.204 85.108 211.797 87.3926C212.447 88.296 212.859 89.3487 213.001 90.4536L219.624 100.227L214.766 103.299L208.753 93.3392C207.754 92.8129 206.909 92.0551 206.288 91.133Z" fill="#FFB6B6"/>
<path d="M210.207 99.0363L215.678 94.0117L226.498 104.065L216.438 110.93L210.207 99.0363Z" fill="#E9E9E9"/>
<path d="M6 239.5C6 239.777 6.16733 240 6.3757 240H236.624C236.833 240 237 239.777 237 239.5C237 239.223 236.833 239 236.624 239H6.3757C6.16733 239 6 239.223 6 239.5Z" fill="#3F3D56"/>
</svg>
