<svg width="294" height="250" viewBox="0 0 294 250" fill="none" xmlns="http://www.w3.org/2000/svg">
<g clip-path="url(#clip0_271_49871)">
<path d="M33.2565 63.252C32.9936 64.8482 33.0839 66.4827 33.521 68.0402C33.9581 69.5978 34.7314 71.0405 35.7864 72.2669C36.8414 73.4932 38.1525 74.4734 39.6273 75.1382C41.1021 75.8031 42.7047 76.1365 44.3223 76.1149L71.429 154.988L88.725 143.101L55.3362 64.1054C55.1199 61.3903 53.9151 58.8489 51.9503 56.9628C49.9854 55.0767 47.397 53.9768 44.6754 53.8716C41.9538 53.7664 39.2881 54.6632 37.1835 56.3921C35.079 58.1209 33.6817 60.5618 33.2565 63.252Z" fill="#FFB6B6"/>
<path d="M174.737 89.9409C162.7 103.636 133.018 127.772 108.566 144.391C103.281 147.983 98.2369 151.219 93.6701 153.926C90.5853 155.755 87.7166 157.338 85.1343 158.629C83.4011 159.492 81.5083 159.989 79.5745 160.086C77.6406 160.184 75.7074 159.882 73.8958 159.198C72.0843 158.514 70.4335 157.464 69.0468 156.112C67.6601 154.761 66.5674 153.137 65.8371 151.344L48.9062 110.383L54.7642 106.5L69.2082 96.9192L72.4889 94.7488L86.0336 127.008L100.317 115.543L109.184 108.424L149.607 75.9842L153.094 74.9492L161.228 82.8871L166.98 88.504L172.391 89.4434C173.2 89.5841 173.984 89.7499 174.737 89.9409Z" fill="#5666ED"/>
<path d="M261.734 206.749C263.059 207.036 264.404 207.299 265.753 207.566C267.362 214.212 268.564 220.95 269.354 227.742C269.016 227.767 268.678 227.792 268.34 227.817C268.291 227.826 268.242 227.832 268.192 227.835C266.931 227.926 265.672 228.027 264.411 228.118L264.408 228.114C261.911 226.427 259.641 224.425 257.655 222.159C257.986 221.727 258.177 221.203 258.201 220.659C258.225 220.114 258.081 219.576 257.789 219.116C257.496 218.656 257.069 218.297 256.566 218.088C256.063 217.879 255.507 217.83 254.975 217.947C254.72 217.852 254.538 217.781 254.279 217.682C254.245 217.632 254.211 217.575 254.176 217.525C250.787 212.186 255.556 205.402 261.734 206.749Z" fill="#FFC245"/>
<path d="M270.042 243.332C269.872 245.088 269.646 246.837 269.363 248.58C268.622 249.34 267.874 250.093 267.121 250.839C267.226 250.305 267.326 249.768 267.422 249.229C267.948 246.23 268.305 243.204 268.492 240.165C268.647 237.672 268.69 235.18 268.621 232.688C268.243 219.15 264.657 205.895 258.158 194.012C254.514 191.109 251.848 187.159 250.518 182.693C250.037 181.087 249.788 179.42 249.781 177.743C250.226 177.883 250.682 178 251.131 178.109C251.271 178.142 251.418 178.173 251.558 178.207L251.612 178.222C252.107 178.331 252.624 178.295 253.099 178.118C253.575 177.941 253.989 177.63 254.292 177.223C254.595 176.816 254.774 176.33 254.808 175.824C254.841 175.318 254.728 174.813 254.481 174.369C254.33 174.091 254.172 173.815 254.019 173.542C253.788 173.114 253.547 172.699 253.31 172.274C253.284 172.232 253.26 172.189 253.238 172.145C252.969 171.66 252.695 171.184 252.432 170.697C253.227 169.836 254.21 169.17 255.304 168.75C259.088 167.344 263.584 169.563 265.523 173.105C267.466 176.649 267.172 181.091 265.627 184.818C264.307 188.012 262.164 190.775 259.845 193.359C259.99 193.628 260.147 193.893 260.289 194.167C262.927 199.14 265.07 204.361 266.688 209.753C266.95 204.133 269.147 197.688 271.665 193.73C274.536 189.221 279.033 185.784 283.099 182.164C287.977 177.812 295.792 181.454 295.372 187.978C295.368 188.043 295.367 188.104 295.359 188.167C294.817 188.359 294.281 188.571 293.753 188.803C293.089 189.096 292.529 189.583 292.146 190.2C291.763 190.817 291.575 191.535 291.608 192.261C291.64 192.986 291.89 193.685 292.326 194.265C292.762 194.846 293.363 195.281 294.051 195.515L294.123 195.538C293.634 197.289 293.014 199.001 292.268 200.659C290.133 205.276 287.068 209.402 283.264 212.778C279.461 216.154 275 218.708 270.163 220.281C269.848 220.381 269.54 220.478 269.225 220.567C269.899 224.557 270.29 228.589 270.395 232.634C270.498 236.204 270.38 239.777 270.042 243.332Z" fill="#FFC245"/>
<path d="M194.95 133.851L193.433 238.053L70.8672 234.536L90.4407 191.33C90.3 189.943 99.0317 180.212 98.9814 178.77C98.8307 174.545 101.986 170.631 102.498 166.21C103.543 157.092 97.5597 122.657 100.318 115.543C101.493 112.366 102.998 109.322 104.809 106.46C106.377 104.088 107.984 102.491 109.522 101.913L114.053 91.3526L118.073 85.3238L149.608 75.9842L153.095 74.9492L161.229 82.8871L166.981 88.504L172.392 89.4434C173.201 89.5841 173.985 89.7499 174.738 89.9408C178.368 90.7778 181.751 92.4537 184.615 94.8342C194.061 102.857 195.161 117.95 194.95 133.851Z" fill="#5666ED"/>
<path d="M265.337 237.27C261.881 241.605 258.218 245.762 254.35 249.739L241.096 249.749L169.821 249.83L156.99 249.845L148.459 249.855L135.768 249.865L126.007 249.875L107.976 249.895L97.3399 249.91L74.9429 249.93L64.2519 249.945L34.6254 249.975L16.0165 249.995L11.0226 250C9.91234 248.865 8.81879 247.713 7.74198 246.544C5.05917 243.635 2.4785 240.636 0 237.546L10.3394 237.536L17.383 237.531L33.6909 237.511L65.1612 237.481L75.797 237.47L80.0975 237.465H80.1126L83.4887 237.46L85.001 237.455L88.8745 237.45H90.5123L101.997 237.44L126.77 237.41L137.673 237.4L148.112 237.39L157.899 237.38L171.941 237.365L246.939 237.29L265.337 237.27Z" fill="#CACACA"/>
<path d="M95.7664 80.8068L95.7391 80.8095C94.2898 80.9443 92.8462 80.4979 91.726 79.5684C90.6058 78.6389 89.9007 77.3025 89.7658 75.8532L86.9088 45.3578C86.3916 39.8947 86.9782 34.3834 88.6336 29.1516C91.8785 18.9405 98.9386 10.3756 108.343 5.24164C113.198 2.59774 118.539 0.964382 124.043 0.440007C146.561 -1.70524 154.789 2.98445 168.699 37.3269C182.608 71.6693 171.56 67.8687 171.56 67.8687C171.63 68.6037 171.551 69.3451 171.328 70.0489C170.89 71.4219 169.939 72.5726 168.672 73.2608C168.023 73.6131 167.309 73.8312 166.573 73.9021C139.953 80.6687 113.092 87.7913 95.7618 80.8073L95.7664 80.8068Z" fill="#2F2E41"/>
<path d="M145.309 29.335C148.651 34.2792 150.453 40.1028 150.486 46.0702C150.52 52.0376 148.785 57.8812 145.5 62.863C142.214 67.8448 137.526 71.7412 132.028 74.0603C126.53 76.3793 120.467 77.017 114.607 75.8926C110.727 75.1609 107.031 73.6667 103.733 71.4965C100.435 69.3262 97.6009 66.5232 95.394 63.2496C92.0594 58.3071 90.2629 52.4879 90.2309 46.5258C90.1989 40.5636 91.9329 34.7255 95.2142 29.7475C98.4956 24.7694 103.177 20.8744 108.669 18.5534C114.161 16.2324 120.217 15.5895 126.074 16.7056C129.957 17.433 133.656 18.924 136.958 21.0921C140.26 23.2603 143.099 26.0625 145.31 29.3362L145.309 29.335Z" fill="#FFB6B6"/>
<path d="M77.4681 48.7452C77.0594 44.4245 77.5234 40.0658 78.8326 35.928C79.1362 25.8061 82.0729 16.638 94.4184 17.0228C98.2346 14.9469 102.429 13.6597 106.753 13.2379L112.854 12.6355C112.922 12.6286 112.991 12.622 113.059 12.6157C117.286 12.2223 121.549 12.6653 125.604 13.9193C129.66 15.1734 133.429 17.214 136.696 19.9245C139.962 22.6351 142.663 25.9626 144.644 29.717C146.625 33.4714 147.847 37.5793 148.241 41.806L148.298 42.4168L135.391 43.6786L129.836 31.7909L130.11 44.1974L123.443 44.8517L120.642 38.8541L120.779 45.1093C110.881 53.8267 95.8717 54.2836 77.5312 49.3566L77.4681 48.7452Z" fill="#2F2E41"/>
<path d="M118.757 77.6836C118.647 78.6884 118.821 79.7039 119.26 80.6145C119.481 81.0809 119.766 81.514 120.107 81.9012C120.399 82.231 120.729 82.5251 121.09 82.7774C122.16 83.5218 123.459 83.8609 124.756 83.7337C124.837 83.7254 124.917 83.7156 124.998 83.7042C125.078 83.6929 125.159 83.6796 125.239 83.6645C125.32 83.6501 125.4 83.6334 125.48 83.6145C125.56 83.5956 125.64 83.5752 125.72 83.5532L130.225 82.2909L135.273 68.214L136.431 80.5663L156.915 74.8632L152.004 22.4453L117.09 25.8856L118.047 26.8076C121.229 29.9042 123.494 33.8186 124.594 38.1199C125.686 42.4786 126.023 46.9921 125.591 51.4646C125.187 55.9871 124.35 60.4603 123.09 64.8226C121.994 68.6855 120.677 72.482 119.144 76.1932C118.946 76.6695 118.815 77.1712 118.757 77.6836Z" fill="#2F2E41"/>
<path d="M123.407 242.953C122.807 242.953 122.214 242.819 121.672 242.561L24.9504 245.029C24.2082 244.677 23.5901 244.109 23.1778 243.399C22.7654 242.688 22.5781 241.87 22.6407 241.051C22.7033 240.232 23.0128 239.451 23.5284 238.812C24.0439 238.173 24.7412 237.705 25.5282 237.47L88.8064 218.603C89.4617 218.407 90.1557 218.381 90.824 218.525L188.705 230.456C189.571 230.643 190.352 231.108 190.929 231.781C191.505 232.454 191.846 233.297 191.899 234.181C191.952 235.066 191.713 235.944 191.221 236.68C190.728 237.417 190.008 237.972 189.17 238.26L124.733 242.73C124.306 242.878 123.859 242.953 123.407 242.953Z" fill="#3F3D56"/>
<path d="M126.968 236.214C126.531 236.215 126.101 236.103 125.72 235.89L47.1679 239.56C46.7219 239.309 46.3615 238.931 46.1337 238.473C45.9059 238.015 45.8213 237.499 45.8909 236.992C45.9604 236.486 46.181 236.012 46.5238 235.632C46.8665 235.253 47.3157 234.985 47.8127 234.864L76.2503 227.962C76.6941 227.855 77.1586 227.868 77.5954 228.002L150.621 227.914C151.141 228.073 151.596 228.394 151.92 228.831C152.244 229.267 152.42 229.796 152.422 230.34C152.424 230.884 152.252 231.414 151.931 231.852C151.61 232.291 151.157 232.616 150.638 232.778L127.727 236.099C127.482 236.175 127.225 236.215 126.968 236.214Z" fill="#2F2E41"/>
<path d="M118.701 232.031C120.06 232.907 121.596 233.475 123.198 233.694C124.801 233.913 126.433 233.778 127.978 233.299C129.523 232.819 130.944 232.006 132.141 230.918C133.338 229.83 134.281 228.492 134.906 227L218.05 233.531L214.031 212.933L128.273 212.116C125.696 211.233 122.885 211.327 120.373 212.378C117.86 213.43 115.821 215.367 114.641 217.822C113.461 220.276 113.223 223.079 113.971 225.698C114.719 228.316 116.402 230.57 118.701 232.031Z" fill="#FFB6B6"/>
<path d="M167.811 97.881C167.811 97.881 180.371 87.833 195.443 105.919C205.607 118.117 225.215 191.852 226.841 222.407C226.943 224.34 226.646 226.274 225.966 228.087C225.287 229.9 224.24 231.553 222.892 232.943C221.543 234.332 219.923 235.429 218.131 236.163C216.339 236.896 214.415 237.252 212.48 237.208L168.163 236.437L163.207 208.579L198.196 208.993L167.811 97.881Z" fill="#5666ED"/>
<path d="M118.031 242.96C116.51 242.959 115.005 242.655 113.604 242.064L23.9551 244.11C21.5891 243.123 19.625 241.367 18.3805 239.126C17.136 236.885 16.6837 234.29 17.0968 231.76L13.7656 153.028C14.2074 150.216 15.6876 147.671 17.9139 145.897C20.1401 144.123 22.9507 143.248 25.7906 143.445L109.02 146.897C110.617 147.002 112.175 147.441 113.592 148.187C115.009 148.932 116.253 149.967 117.244 151.225C118.235 152.482 118.951 153.934 119.345 155.486C119.739 157.038 119.802 158.655 119.531 160.233L129.282 233.467C128.824 236.12 127.444 238.527 125.386 240.264C123.328 242 120.723 242.955 118.031 242.96Z" fill="#3F3D56"/>
<path d="M49.9557 8.55863L12.542 8.45313C11.5392 8.45194 10.5767 8.84843 9.8657 9.55569C9.15467 10.263 8.75307 11.2233 8.74893 12.2262L8.61329 61.7678C8.61117 62.7696 9.00683 63.7313 9.71335 64.4416C10.4199 65.1519 11.3795 65.5527 12.3813 65.5559L33.1354 65.6162L49.8 65.6614C50.8026 65.6632 51.7649 65.2668 52.4753 64.5592C53.1857 63.8517 53.5859 62.891 53.5881 61.8883L53.5981 58.9594L53.7288 12.3518C53.7308 11.3486 53.3346 10.3857 52.6271 9.67448C51.9197 8.96327 50.9589 8.56194 49.9557 8.55863Z" fill="#CACACA"/>
<path d="M47.3194 11.5201L15.1659 11.4297C14.2269 11.4285 13.3258 11.7996 12.66 12.4616C11.9942 13.1237 11.618 14.0226 11.6139 14.9616L11.5235 46.8137C11.5172 50.9967 13.1702 55.0114 16.1201 57.9773C19.0699 60.9431 23.0756 62.6179 27.2586 62.6342L33.3678 62.6493L47.1787 62.6895C48.1179 62.6916 49.0195 62.3207 49.6855 61.6585C50.3515 60.9963 50.7274 60.0968 50.7307 59.1576L50.7407 55.9523L50.8513 15.0721C50.8533 14.1329 50.4825 13.2313 49.8203 12.5653C49.1581 11.8993 48.2586 11.5234 47.3194 11.5201Z" fill="#FAFAFA"/>
<path d="M43.7072 33.2852H18.6375C18.4399 33.2852 18.2442 33.3241 18.0617 33.3997C17.8791 33.4753 17.7132 33.5861 17.5735 33.7259C17.4338 33.8656 17.323 34.0315 17.2473 34.214C17.1717 34.3966 17.1328 34.5922 17.1328 34.7898C17.1328 34.9874 17.1717 35.1831 17.2473 35.3657C17.323 35.5482 17.4338 35.7141 17.5735 35.8538C17.7132 35.9935 17.8791 36.1044 18.0617 36.18C18.2442 36.2556 18.4399 36.2945 18.6375 36.2945H43.7072C44.1063 36.2945 44.489 36.136 44.7712 35.8538C45.0534 35.5716 45.2119 35.1889 45.2119 34.7898C45.2119 34.3908 45.0534 34.0081 44.7712 33.7259C44.489 33.4437 44.1063 33.2852 43.7072 33.2852Z" fill="#5666ED"/>
<path d="M24.1488 25.0352H18.6375C18.2384 25.0352 17.8557 25.1937 17.5735 25.4759C17.2913 25.7581 17.1328 26.1408 17.1328 26.5398C17.1328 26.9389 17.2913 27.3216 17.5735 27.6038C17.8557 27.886 18.2384 28.0445 18.6375 28.0445H24.1488C24.5479 28.0445 24.9306 27.886 25.2128 27.6038C25.495 27.3216 25.6535 26.9389 25.6535 26.5398C25.6535 26.1408 25.495 25.7581 25.2128 25.4759C24.9306 25.1937 24.5479 25.0352 24.1488 25.0352Z" fill="#5666ED"/>
<path d="M43.7072 46.5117H18.6375C18.2384 46.5117 17.8557 46.6703 17.5735 46.9524C17.2913 47.2346 17.1328 47.6173 17.1328 48.0164C17.1328 48.4155 17.2913 48.7982 17.5735 49.0804C17.8557 49.3626 18.2384 49.5211 18.6375 49.5211H43.7072C44.1063 49.5211 44.489 49.3626 44.7712 49.0804C45.0534 48.7982 45.2119 48.4155 45.2119 48.0164C45.2119 47.6173 45.0534 47.2346 44.7712 46.9524C44.489 46.6703 44.1063 46.5117 43.7072 46.5117Z" fill="#5666ED"/>
<path d="M43.7047 39.9023H18.635C18.2366 39.9023 17.8545 40.0606 17.5728 40.3423C17.2911 40.624 17.1328 41.0061 17.1328 41.4045C17.1328 41.8029 17.2911 42.185 17.5728 42.4667C17.8545 42.7484 18.2366 42.9067 18.635 42.9067H43.7047C44.1031 42.9067 44.4852 42.7484 44.7669 42.4667C45.0486 42.185 45.2069 41.8029 45.2069 41.4045C45.2069 41.0061 45.0486 40.624 44.7669 40.3423C44.4852 40.0606 44.1031 39.9023 43.7047 39.9023Z" fill="#5666ED"/>
<path d="M38.8343 30.3561C37.0739 30.3561 35.3531 29.8341 33.8893 28.8561C32.4256 27.8781 31.2848 26.488 30.6111 24.8616C29.9375 23.2352 29.7612 21.4455 30.1046 19.719C30.4481 17.9924 31.2958 16.4064 32.5406 15.1617C33.7853 13.9169 35.3713 13.0692 37.0979 12.7257C38.8244 12.3823 40.6141 12.5585 42.2405 13.2322C43.8669 13.9059 45.257 15.0467 46.235 16.5104C47.213 17.9741 47.735 19.695 47.735 21.4554C47.7323 23.8152 46.7937 26.0776 45.1251 27.7462C43.4565 29.4148 41.1941 30.3534 38.8343 30.3561ZM38.8343 13.1732C37.1963 13.1732 35.595 13.659 34.233 14.569C32.871 15.4791 31.8094 16.7726 31.1826 18.2859C30.5557 19.7993 30.3917 21.4646 30.7112 23.0712C31.0308 24.6778 31.8196 26.1535 32.9779 27.3118C34.1362 28.4701 35.6119 29.2589 37.2185 29.5784C38.8251 29.898 40.4903 29.734 42.0037 29.1071C43.5171 28.4803 44.8106 27.4187 45.7207 26.0567C46.6307 24.6947 47.1165 23.0935 47.1165 21.4554C47.114 19.2596 46.2406 17.1545 44.6879 15.6018C43.1353 14.0491 41.0301 13.1757 38.8343 13.1732Z" fill="#E46E6A"/>
<path d="M42.5711 24.9011C41.9563 21.7269 40.6758 18.7191 38.8141 16.0759C38.7721 16.0073 38.7132 15.9507 38.643 15.9115C38.5729 15.8722 38.4939 15.8516 38.4135 15.8516C38.3331 15.8516 38.2541 15.8722 38.184 15.9115C38.1138 15.9507 38.0549 16.0073 38.0129 16.0759C36.3915 18.9119 35.3551 22.0442 34.9649 25.2877C34.8928 25.879 35.8213 25.8738 35.8927 25.2877C36.0231 24.2366 36.2263 23.1958 36.501 22.1728C36.5365 22.1658 36.5712 22.1552 36.6046 22.1411C37.8383 21.5217 39.2321 21.2947 40.5986 21.4907C40.6105 21.4925 40.622 21.4899 40.6338 21.491C41.0851 22.678 41.4339 23.9013 41.6764 25.1477C41.7896 25.7334 42.684 25.4854 42.5711 24.9011ZM36.8349 21.035C37.2608 19.7139 37.8029 18.4331 38.455 17.2077C39.1452 18.2622 39.7445 19.3734 40.2465 20.5294C39.0859 20.4422 37.9204 20.6149 36.8349 21.035Z" fill="#E46E6A"/>
</g>
<defs>
<clipPath id="clip0_271_49871">
<rect width="293.429" height="250" fill="white"/>
</clipPath>
</defs>
</svg>
