<svg width="300" height="197" viewBox="0 0 300 197" fill="none" xmlns="http://www.w3.org/2000/svg">
<g clip-path="url(#clip0_235_24514)">
<circle cx="140.5" cy="54" r="50" stroke="#2F2E41" stroke-width="2"/>
<path d="M166.945 93.5705C167.32 93.0441 167.813 92.6124 168.385 92.31C168.957 92.0075 169.591 91.8427 170.238 91.8286C170.885 91.8145 171.526 91.9515 172.111 92.2288C172.695 92.506 173.206 92.9158 173.604 93.4254L187.562 88.6895L185.627 96.0889L172.669 99.4519C171.858 100.001 170.879 100.247 169.904 100.147C168.929 100.047 168.021 99.6079 167.338 98.9062C166.655 98.2045 166.241 97.2853 166.169 96.3096C166.098 95.334 166.372 94.3642 166.945 93.5705Z" fill="#FFB6B6"/>
<path d="M276.577 196.408C277.605 185.349 280.446 174.534 284.986 164.395C286.251 161.573 287.644 158.813 289.164 156.116C289.555 155.422 288.486 154.798 288.095 155.492C282.568 165.317 278.695 175.982 276.633 187.061C276.059 190.154 275.628 193.27 275.339 196.408C275.266 197.199 276.504 197.194 276.577 196.408Z" fill="#E9E9E9"/>
<path d="M292.162 158.099C296.491 158.099 300.001 154.595 300.001 150.274C300.001 145.952 296.491 142.449 292.162 142.449C287.833 142.449 284.324 145.952 284.324 150.274C284.324 154.595 287.833 158.099 292.162 158.099Z" fill="#E9E9E9"/>
<path d="M277.379 196.615C278.046 189.441 279.889 182.425 282.835 175.847C283.656 174.016 284.559 172.226 285.545 170.476C285.595 170.385 285.606 170.278 285.578 170.177C285.55 170.077 285.484 169.992 285.394 169.94C285.304 169.887 285.198 169.872 285.096 169.896C284.995 169.921 284.907 169.984 284.852 170.072C281.266 176.446 278.754 183.364 277.415 190.552C277.043 192.559 276.764 194.58 276.576 196.615C276.529 197.129 277.332 197.126 277.379 196.615Z" fill="#E9E9E9"/>
<path d="M287.489 171.762C290.298 171.762 292.574 169.489 292.574 166.686C292.574 163.882 290.298 161.609 287.489 161.609C284.681 161.609 282.404 163.882 282.404 166.686C282.404 169.489 284.681 171.762 287.489 171.762Z" fill="#E9E9E9"/>
<path d="M276.364 196.138C272.47 190.071 269.601 183.408 267.87 176.413C267.39 174.465 266.999 172.499 266.698 170.514C266.681 170.411 266.624 170.319 266.54 170.258C266.456 170.196 266.352 170.169 266.249 170.183C266.145 170.197 266.052 170.25 265.987 170.332C265.922 170.414 265.892 170.517 265.902 170.62C267.002 177.848 269.284 184.846 272.657 191.334C273.6 193.146 274.625 194.911 275.731 196.631C276.01 197.065 276.641 196.569 276.364 196.138Z" fill="#E9E9E9"/>
<path d="M265.897 171.406C268.706 171.406 270.982 169.134 270.982 166.33C270.982 163.527 268.706 161.254 265.897 161.254C263.089 161.254 260.812 163.527 260.812 166.33C260.812 169.134 263.089 171.406 265.897 171.406Z" fill="#E9E9E9"/>
<path d="M235.685 122.939C236.019 122.434 236.238 121.862 236.326 121.263C236.414 120.664 236.37 120.053 236.196 119.473C236.023 118.893 235.724 118.358 235.32 117.905C234.917 117.453 234.419 117.095 233.862 116.855L234.931 102.178L228.247 105.914L228.257 119.279C227.916 120.24 227.94 121.292 228.324 122.237C228.709 123.181 229.427 123.952 230.342 124.403C231.258 124.854 232.308 124.954 233.292 124.685C234.277 124.415 235.128 123.794 235.685 122.939Z" fill="#FFB6B6"/>
<path d="M234.023 65.8837L235.851 112.592L228.426 112.18L226.775 63.1731L228.341 62.4375C228.937 62.1576 229.593 62.0293 230.251 62.0642C230.908 62.0991 231.547 62.2959 232.11 62.6372C232.672 62.9785 233.142 63.4536 233.476 64.0201C233.81 64.5866 233.998 65.2269 234.023 65.8837Z" fill="#5666ED"/>
<path d="M211.057 192.006L206 192.006L203.594 172.531L211.058 172.532L211.057 192.006Z" fill="#FFB6B6"/>
<path d="M202.387 190.564H212.141V196.695H196.246C196.246 195.89 196.405 195.093 196.714 194.349C197.022 193.605 197.475 192.929 198.045 192.36C198.615 191.791 199.292 191.339 200.037 191.031C200.782 190.723 201.581 190.564 202.387 190.564Z" fill="#2F2E41"/>
<path d="M253.137 185.973L248.547 188.094L238.168 171.431L244.942 168.301L253.137 185.973Z" fill="#FFB6B6"/>
<path d="M244.663 188.299L253.514 184.209L256.094 189.772L241.67 196.439C240.986 194.963 240.917 193.277 241.478 191.75C242.039 190.224 243.185 188.983 244.663 188.299Z" fill="#2F2E41"/>
<path d="M199.049 128.45L204.265 187.872L211.278 187.048L216.461 132.77L245.106 184.577L252.532 182.518C252.532 182.518 228.631 111.149 226.774 105.178C224.739 98.6317 208.623 96.1177 208.623 96.1177L208.004 95.5C201.079 104.806 198.305 116.881 199.049 128.45Z" fill="#2F2E41"/>
<path d="M226.837 57.2824C232.433 57.2824 236.97 52.7538 236.97 47.1676C236.97 41.5813 232.433 37.0527 226.837 37.0527C221.241 37.0527 216.705 41.5813 216.705 47.1676C216.705 52.7538 221.241 57.2824 226.837 57.2824Z" fill="#FFB6B6"/>
<path d="M233.198 66.6831L226.156 103.323C226.156 103.323 215.455 101.19 211.643 98.6201C210.133 97.5988 208.763 96.5445 207.608 95.5891C207.381 95.4037 207.167 95.2184 206.956 95.0413C205.05 93.4146 203.879 92.2039 203.879 92.2039C203.879 92.2039 204.489 89.2181 205.236 85.6847C206.069 81.7271 207.08 77.0776 207.596 75.1791C208.73 71.0155 212.625 66.1642 215.661 62.8614C216.76 61.6637 218.165 60.7871 219.726 60.3257C221.286 59.8643 222.943 59.8354 224.518 60.2422L230.013 61.6589C231.084 61.9348 232.01 62.608 232.602 63.5414C233.194 64.4749 233.407 65.5984 233.198 66.6831Z" fill="#5666ED"/>
<path opacity="0.2" d="M216.168 82.6877C216.168 82.6877 212.381 90.5453 206.956 95.0424C205.05 93.4157 203.879 92.205 203.879 92.205C203.879 92.205 204.489 89.2192 205.236 85.6858C209.782 83.289 214.469 81.7776 216.168 82.6877Z" fill="#161616"/>
<path d="M222.884 68.3043C222.51 68.1139 222.119 67.9589 221.716 67.8412C220.893 67.6161 220.028 67.5984 219.196 67.7896C218.365 67.9808 217.594 68.3749 216.953 68.9367L194.694 85.2132L176.99 91.1579L180.189 98.711L206.581 92.2767L224.085 76.7478C224.687 76.1711 225.144 75.4596 225.416 74.6721C225.689 73.8846 225.77 73.0436 225.652 72.2187C225.535 71.3938 225.223 70.6086 224.741 69.928C224.26 69.2473 223.623 68.6908 222.884 68.3043Z" fill="#5666ED"/>
<path d="M227.436 57.1876C228.878 55.0329 230.016 52.045 228.428 49.9948C226.861 47.971 223.77 48.2691 221.369 47.3736C218.026 46.1264 216.087 42.2055 216.692 38.6942C217.297 35.1828 220.12 32.272 223.484 31.081C226.848 29.89 230.641 30.2774 233.935 31.6489C237.99 33.3372 241.468 36.6032 242.927 40.7404C244.385 44.8776 243.605 49.845 240.58 53.025C237.335 56.4342 232.244 57.3427 227.534 57.2876" fill="#2F2E41"/>
<path d="M243.347 45.2616C243.76 47.5641 246.29 48.8718 248.615 49.1592C250.941 49.4467 253.346 49.0781 255.61 49.6818C259.601 50.7462 262.233 54.5777 263.682 58.4395C265.131 62.3013 265.773 66.4693 267.656 70.14C269.538 73.8108 273.188 77.0469 277.304 76.7035C276.498 78.7304 275.085 80.4595 273.258 81.6549C271.43 82.8503 269.278 83.4539 267.095 83.3832C264.911 83.3125 262.803 82.571 261.057 81.2599C259.311 79.9488 258.013 78.132 257.34 76.0573C255.828 71.3967 257.564 65.8387 254.919 61.712C253.456 59.4284 250.929 58.0852 248.492 56.8883C246.055 55.6915 243.498 54.463 241.864 52.2975C240.231 50.132 239.904 46.712 241.918 44.8926" fill="#2F2E41"/>
<path d="M292.688 196.91H160.556C160.425 196.91 160.3 196.859 160.208 196.767C160.116 196.675 160.064 196.55 160.064 196.42C160.064 196.29 160.116 196.165 160.208 196.073C160.3 195.981 160.425 195.93 160.556 195.93H292.688C292.819 195.93 292.944 195.981 293.036 196.073C293.128 196.165 293.18 196.29 293.18 196.42C293.18 196.55 293.128 196.675 293.036 196.767C292.944 196.859 292.819 196.91 292.688 196.91Z" fill="#3F3D56"/>
<path d="M132.624 196.91H0.491202C0.360928 196.91 0.235985 196.859 0.143868 196.767C0.0517501 196.675 0 196.55 0 196.42C0 196.29 0.0517501 196.165 0.143868 196.073C0.235985 195.981 0.360928 195.93 0.491202 195.93H132.624C132.754 195.93 132.879 195.981 132.971 196.073C133.063 196.165 133.115 196.29 133.115 196.42C133.115 196.55 133.063 196.675 132.971 196.767C132.879 196.859 132.754 196.91 132.624 196.91Z" fill="#3F3D56"/>
<path d="M84.9008 191.554L89.7362 190.072L86.3138 170.75L79.1777 172.936L84.9008 191.554Z" fill="#A0616A"/>
<path d="M100.438 191.697L85.2417 196.353L83.4399 190.492L92.7646 187.635C94.3217 187.158 96.0049 187.318 97.4438 188.08C98.8828 188.842 99.9596 190.143 100.438 191.697Z" fill="#2F2E41"/>
<path d="M41.9969 191.664H47.0546L49.4605 172.189L41.9961 172.19L41.9969 191.664Z" fill="#A0616A"/>
<path d="M56.8086 196.352L40.9133 196.352L40.913 190.222L50.6669 190.221C52.2957 190.221 53.8579 190.867 55.0096 192.017C56.1614 193.166 56.8085 194.726 56.8086 196.352Z" fill="#2F2E41"/>
<path d="M43.2842 126.976C42.8687 126.612 42.5381 126.162 42.3157 125.657C42.0933 125.152 41.9846 124.605 41.9971 124.053C42.0096 123.502 42.143 122.96 42.3881 122.465C42.6331 121.971 42.9838 121.536 43.4154 121.192L47.3367 71.8984L55.3114 73.8874L48.9263 121.971C49.458 122.733 49.6911 123.664 49.5816 124.586C49.472 125.508 49.0274 126.358 48.3319 126.975C47.6364 127.592 46.7385 127.933 45.8082 127.933C44.8778 127.933 43.9798 127.593 43.2842 126.976Z" fill="#A0616A"/>
<path d="M62.1421 53.1925C67.738 53.1925 72.2744 48.664 72.2744 43.0777C72.2744 37.4914 67.738 32.9629 62.1421 32.9629C56.5462 32.9629 52.0098 37.4914 52.0098 43.0777C52.0098 48.664 56.5462 53.1925 62.1421 53.1925Z" fill="#A0616A"/>
<path d="M48.3022 72.8775C45.8943 69.5776 45.8202 65.0326 48.4139 61.8762C50.1066 59.8163 52.938 58.168 57.6652 58.168C70.2652 58.168 75.0445 68.1439 75.0445 68.1439C75.0445 68.1439 80.2583 77.686 77.2169 86.3607C74.1755 95.0354 74.1755 95.9028 74.1755 95.9028L54.1893 94.1679C54.1893 94.1679 57.561 85.5663 48.3022 72.8775Z" fill="#CACACA"/>
<path d="M42.1406 81.5113L46.4462 67.4493C46.7346 66.5077 47.2266 65.6408 47.8875 64.9099C48.5483 64.179 49.362 63.6019 50.2708 63.2195C51.1797 62.837 52.1616 62.6584 53.1472 62.6964C54.1327 62.7344 55.0979 62.988 55.9745 63.4394C57.4954 64.2257 58.6598 65.5599 59.2316 67.1716C59.8035 68.7832 59.74 70.5516 59.0541 72.1183L53.5803 84.5627L42.1406 81.5113Z" fill="#CACACA"/>
<path d="M73.742 93.7324L90.6869 181.347L81.5628 183.949L59.4041 126.262L49.4109 185.25L39.8523 186.552C39.8523 186.552 35.6594 108.503 54.1903 94.1662L73.742 93.7324Z" fill="#2F2E41"/>
<path d="M96.5154 84.6388C96.3686 84.8133 96.2358 84.9991 96.1183 85.1945L75.6833 86.1835L71.7484 74.1914L64.916 77.4331L71.3465 95.2944L96.6193 90.3605C97.2132 91.0077 97.9904 91.4591 98.8475 91.6547C99.7046 91.8502 100.601 91.7807 101.418 91.4552C102.234 91.1298 102.932 90.5639 103.419 89.8328C103.905 89.1017 104.157 88.2401 104.141 87.3625C104.125 86.485 103.842 85.633 103.33 84.92C102.817 84.2071 102.099 83.6668 101.271 83.3711C100.443 83.0754 99.5446 83.0384 98.6951 83.2648C97.8456 83.4913 97.0854 83.9705 96.5154 84.6388Z" fill="#A0616A"/>
<path d="M61.8391 69.4035C61.7238 68.4257 61.8251 67.4344 62.1358 66.4999C62.4465 65.5654 62.9591 64.7104 63.6372 63.9954C64.3153 63.2804 65.1425 62.7228 66.0602 62.3621C66.9779 62.0013 67.9639 61.8462 68.9483 61.9076C70.6575 62.0172 72.261 62.7715 73.4337 64.0176C74.6064 65.2638 75.2605 66.9085 75.2634 68.6182V82.2093L63.5601 84.0069L61.8391 69.4035Z" fill="#CACACA"/>
<path d="M64.3706 53.2833C62.8498 53.2767 61.6767 51.6783 61.7448 50.1617C61.813 48.6451 62.8334 47.3107 64.0627 46.417C65.2921 45.5233 66.7338 44.979 68.1047 44.3219C69.4757 43.6648 70.8347 42.8453 71.6811 41.584C72.1925 40.7585 72.4977 39.8225 72.5712 38.8547C72.6446 37.8868 72.4842 36.9156 72.1033 36.0226C71.3156 34.2365 69.9631 32.7575 68.253 31.812C65.7085 30.3395 62.7058 29.8656 59.8304 30.4826C56.9886 31.105 52.7535 32.828 51.0886 35.2097L49.3526 39.9283C47.5837 42.0518 48.9533 45.2052 50.0406 47.7446C51.128 50.2841 53.4433 52.1947 56.0559 53.103C58.7066 53.9534 61.5441 54.0383 64.241 53.348" fill="#2F2E41"/>
<path d="M55.1108 37.5693C54.3646 36.3753 53.0711 35.6159 51.7339 35.1702C50.1847 34.6539 48.5371 34.5015 46.9193 34.7249C45.3015 34.9483 43.7571 35.5414 42.4065 36.4581C41.0559 37.3748 39.9355 38.5903 39.1325 40.0101C38.3294 41.4298 37.8655 43.0153 37.7768 44.6433C37.635 47.2437 38.4507 49.7866 38.93 52.3466C39.4093 54.9065 39.5046 57.7339 38.0907 59.9225C37.0138 61.5894 35.2179 62.639 33.4452 63.5352C31.9678 64.2821 30.3697 64.9831 28.7204 64.8343C27.071 64.6854 25.4133 63.3813 25.4571 61.7287C24.9049 62.9136 24.5321 64.1739 24.3508 65.4682C24.2348 66.7678 24.5557 68.1702 25.496 69.0765C26.8628 70.3938 29.0284 70.2974 30.9067 70.0132C34.9731 69.3978 39.0907 68.2442 42.3032 65.6807C45.5158 63.1171 47.6475 58.8959 46.8015 54.878C46.4481 53.1996 45.6175 51.6674 44.9464 50.0886C44.2753 48.5098 43.7513 46.7829 44.0596 45.0957C44.2421 44.2264 44.6135 43.4078 45.1476 42.6975C45.6817 41.9872 46.3654 41.4026 47.1506 40.9849C48.7384 40.1607 50.5553 39.8857 52.3166 40.2029C53.4713 40.3921 54.9131 40.6858 55.598 39.7386C55.7795 39.4385 55.8722 39.0933 55.8654 38.7429C55.8585 38.3924 55.7524 38.0511 55.5593 37.7583C55.1642 37.1792 54.661 36.6815 54.0773 36.2924" fill="#2F2E41"/>
<path d="M140.35 30.1586C141.505 29.5562 142.915 30.9536 142.301 32.1077C141.945 33.0484 140.593 33.2986 139.903 32.5815C139.172 31.8933 139.41 30.533 140.35 30.1586ZM127.925 31.4979C128.627 31.209 129.515 31.8519 129.444 32.6167C129.518 33.447 128.503 34.0581 127.788 33.6635C126.84 33.2965 126.948 31.7581 127.925 31.4979ZM153.372 33.6868C152.276 33.5543 152.102 31.8302 153.158 31.4831C153.977 31.0837 154.728 31.8326 154.848 32.6088C154.676 33.2715 154.121 33.8784 153.372 33.6868ZM130.752 36.786C131.925 36.044 133.599 37.149 133.419 38.5117C133.358 39.8875 131.531 40.6847 130.499 39.7545C129.502 39.0239 129.654 37.3478 130.752 36.786ZM148.661 37.5733C149.185 36.2244 151.305 36.1836 151.901 37.4967C152.49 38.5185 151.766 39.7839 150.717 40.1313C149.327 40.3908 148.007 38.8885 148.661 37.5733ZM138.854 40.0547C138.842 38.8954 139.898 38.0315 141 37.9525C141.731 38.099 142.528 38.4104 142.841 39.1479C143.425 40.1653 142.906 41.566 141.851 42.033C141.368 42.3035 140.797 42.202 140.271 42.1705C139.468 41.7759 138.791 41.0021 138.854 40.0547ZM120.376 41.7441C121.448 41.0853 122.894 42.2876 122.488 43.4518C122.265 44.4588 120.911 44.8685 120.137 44.2256C119.311 43.6232 119.442 42.175 120.376 41.7441ZM160.054 41.742C160.963 41.036 162.463 41.8459 162.355 42.9939C162.416 44.0406 161.119 44.8301 160.216 44.291C159.222 43.8443 159.12 42.3149 160.054 41.742ZM144.05 43.8262C145.55 43.2872 147.332 43.9322 148.187 45.27C149.315 46.9053 148.715 49.3957 146.965 50.3341C145.151 51.4439 142.502 50.5032 141.832 48.4775C141.072 46.6641 142.18 44.3947 144.05 43.8262ZM135.246 44.0046C136.909 43.2196 139.147 43.8782 139.95 45.5792C140.896 47.2349 140.165 49.5404 138.475 50.3953C136.783 51.3562 134.396 50.6277 133.577 48.8501C132.659 47.131 133.474 44.7961 135.246 44.0046ZM126.432 47.0182C126.558 45.9468 127.569 45.2495 128.589 45.1775C129.687 45.31 130.565 46.1633 130.684 47.2752C130.612 48.376 129.762 49.4519 128.595 49.4453C127.312 49.5558 126.187 48.279 126.432 47.0182ZM152.467 45.4104C153.785 44.6435 155.615 45.7599 155.556 47.2736C155.646 48.8774 153.621 50.0076 152.309 49.0669C150.947 48.2835 151.053 46.0774 152.467 45.4104ZM131.664 51.0629C133.205 50.6389 134.967 51.3652 135.723 52.7816C136.55 54.2073 136.212 56.188 134.926 57.2336C133.277 58.7675 130.236 58.1516 129.358 56.0584C128.349 54.1395 129.575 51.5679 131.664 51.0629ZM148.361 51.0549C149.859 50.6264 151.619 51.2038 152.424 52.5686C153.489 54.1294 152.981 56.4575 151.396 57.4637C149.735 58.632 147.163 58.0186 146.249 56.1917C145.142 54.3019 146.256 51.6313 148.361 51.0549ZM121.753 52.8357C123.084 52.3322 124.559 53.8011 124.02 55.1208C123.691 56.3231 121.996 56.7675 121.121 55.8811C120.097 55.0487 120.476 53.1966 121.753 52.8357ZM157.832 54.7509C157.794 53.6479 158.601 52.6711 159.732 52.6102C160.643 52.7546 161.53 53.49 161.458 54.4824C161.541 55.7931 159.962 56.684 158.845 56.0682C158.322 55.8021 158.053 55.2652 157.832 54.7509ZM115.208 53.4831C116.008 53.1336 116.999 53.8276 116.816 54.7169C116.773 55.7239 115.287 56.1111 114.74 55.2697C114.258 54.6854 114.547 53.7844 115.208 53.4831ZM165.701 53.463C166.265 53.0615 167.17 53.3501 167.394 54.0089C167.772 54.7283 167.078 55.7141 166.268 55.5925C165.131 55.6961 164.763 53.9635 165.701 53.463ZM136.014 58.2968C138.121 57.7488 140.386 59.506 140.399 61.6758C140.537 63.8684 138.306 65.8128 136.149 65.3063C134.481 65.0379 133.173 63.4317 133.227 61.7469C133.223 60.1354 134.439 58.6376 136.014 58.2968ZM144.359 58.2923C146.498 57.6945 148.831 59.4832 148.797 61.7031C148.91 63.8552 146.748 65.734 144.636 65.3071C142.649 65.0501 141.182 62.8665 141.737 60.9378C142.017 59.6526 143.091 58.6074 144.359 58.2923ZM128.268 59.6279C129.748 59.3754 131.136 61.0266 130.536 62.4319C130.098 63.9294 127.919 64.3356 126.955 63.1124C125.825 61.9377 126.669 59.7901 128.268 59.6279ZM152.742 59.6939C154.062 59.1411 155.682 60.2827 155.581 61.7151C155.634 63.2918 153.634 64.3791 152.343 63.4588C150.881 62.6325 151.147 60.2008 152.742 59.6939ZM159.583 66.5553C159.066 65.592 160.005 64.3152 161.075 64.4936C161.607 64.4846 161.979 64.9041 162.32 65.256C162.39 65.8268 162.507 66.5078 162.034 66.9477C161.39 67.7621 159.933 67.5297 159.583 66.5553ZM120.372 64.7618C121.372 64.0963 122.81 65.0888 122.585 66.2574C122.466 67.2909 121.164 67.8816 120.306 67.2952C119.386 66.7628 119.42 65.247 120.372 64.7618ZM140.12 66.9252C141.428 66.3478 143.095 67.487 142.971 68.9284C143.068 70.521 141.006 71.6239 139.727 70.6675C138.306 69.8463 138.543 67.4303 140.12 66.9252ZM130.973 69.059C132.088 68.4726 133.583 69.4854 133.482 70.7327C133.516 71.757 132.516 72.6299 131.506 72.4786C130.668 72.4605 130.123 71.7101 129.854 70.9964C129.868 70.2186 130.188 69.3524 130.973 69.059ZM149.5 69.077C150.647 68.3687 152.276 69.386 152.167 70.72C152.197 72.1142 150.356 73.0072 149.288 72.0914C148.255 71.3735 148.381 69.6478 149.5 69.077ZM152.722 77.0421C152.212 76.2707 152.813 75.3414 153.641 75.1654C154.306 75.3008 155.01 75.8014 154.87 76.5731C154.773 77.6174 153.246 77.9378 152.722 77.0421ZM127.147 76.3722C127.35 75.7608 127.842 75.1532 128.561 75.3122C129.611 75.3867 129.922 76.9679 129.004 77.4553C128.178 78.012 127.22 77.2496 127.147 76.3722ZM139.486 77.0737C139.686 76.1692 140.857 75.7293 141.629 76.2098C142.139 76.4286 142.288 76.9992 142.419 77.4841C142.349 77.7367 142.286 77.9895 142.225 78.242C141.909 78.6165 141.503 78.9909 140.977 78.9774C140 79.0919 139.119 77.9874 139.486 77.0737Z" fill="#5666ED"/>
</g>
<defs>
<clipPath id="clip0_235_24514">
<rect width="300" height="197" fill="white"/>
</clipPath>
</defs>
</svg>
