<svg width="347" height="197" viewBox="0 0 347 197" fill="none" xmlns="http://www.w3.org/2000/svg">
<g clip-path="url(#clip0_235_23835)">
<path d="M286.666 6.29362e-10H54.8344C53.9514 0.000801151 53.1047 0.371166 52.4803 1.02981C51.8558 1.68846 51.5047 2.58155 51.5039 3.51302V169.222C51.5047 170.153 51.8558 171.047 52.4803 171.705C53.1047 172.364 53.9514 172.734 54.8344 172.735H286.666C287.147 172.735 287.623 172.625 288.06 172.412C288.498 172.199 288.886 171.889 289.198 171.502C289.225 171.472 289.249 171.44 289.271 171.406C289.469 171.149 289.63 170.863 289.748 170.555C289.916 170.133 290.001 169.68 290 169.222V63.5H289.049V169.222C289.049 169.712 288.913 170.191 288.656 170.6C288.427 170.959 288.117 171.253 287.754 171.454C287.418 171.637 287.045 171.733 286.666 171.732H54.8344C54.2036 171.731 53.5988 171.466 53.1527 170.996C52.7066 170.525 52.4556 169.887 52.4548 169.222V3.51304C52.4556 2.84759 52.7065 2.20963 53.1526 1.7391C53.5987 1.26858 54.2036 1.00391 54.8344 1.00315H286.666C287.297 1.0031 287.903 1.26739 288.35 1.73798C288.797 2.20858 289.048 2.847 289.049 3.51304V28.5H290V3.51304C289.999 2.58096 289.647 1.68741 289.022 1.02869C288.397 0.369977 287.55 -1.76202e-05 286.666 6.29362e-10Z" fill="#BBC2FA"/>
<path d="M289.522 14.082H51.9785V15.0863H289.522V14.082Z" fill="#BBC2FA"/>
<path d="M60.0711 10.5452C61.6485 10.5452 62.9273 9.19633 62.9273 7.53238C62.9273 5.86843 61.6485 4.51953 60.0711 4.51953C58.4936 4.51953 57.2148 5.86843 57.2148 7.53238C57.2148 9.19633 58.4936 10.5452 60.0711 10.5452Z" fill="#E9E9E9"/>
<path d="M68.284 10.5452C69.8614 10.5452 71.1402 9.19633 71.1402 7.53238C71.1402 5.86843 69.8614 4.51953 68.284 4.51953C66.7065 4.51953 65.4277 5.86843 65.4277 7.53238C65.4277 9.19633 66.7065 10.5452 68.284 10.5452Z" fill="#E9E9E9"/>
<path d="M76.4949 10.5452C78.0724 10.5452 79.3512 9.19633 79.3512 7.53238C79.3512 5.86843 78.0724 4.51953 76.4949 4.51953C74.9175 4.51953 73.6387 5.86843 73.6387 7.53238C73.6387 9.19633 74.9175 10.5452 76.4949 10.5452Z" fill="#E9E9E9"/>
<path d="M133.02 140C132.041 139.996 131.078 139.771 130.219 139.345C129.36 138.919 128.632 138.306 128.1 137.562C127.569 136.817 127.251 135.965 127.176 135.081C127.1 134.197 127.27 133.31 127.668 132.501L134.447 118.815C129.108 114.542 124.836 109.29 121.914 103.407C118.992 97.5245 117.487 91.1465 117.5 84.697C117.5 59.4999 140.154 39 168 39C195.846 39 218.5 59.4999 218.5 84.697C218.5 109.894 195.846 130.394 168 130.394C163.129 130.39 158.284 129.744 153.619 128.477L136.318 139.075C135.346 139.676 134.197 139.998 133.02 140ZM168 45.3763C158.988 45.3716 150.197 47.904 142.847 52.6225C135.497 57.3409 129.951 64.0118 126.978 71.7102C124.005 79.4086 123.752 87.7533 126.255 95.5875C128.758 103.422 133.892 110.357 140.945 115.433L143.081 116.974L135.787 131.701L152.525 121.447L154.178 121.949C160.148 123.764 166.483 124.383 172.744 123.762C179.005 123.141 185.041 121.296 190.436 118.354C195.83 115.412 200.453 111.444 203.984 106.725C207.515 102.006 209.87 96.6479 210.885 91.0232C211.901 85.3984 211.552 79.6412 209.864 74.1505C208.176 68.6597 205.189 63.5668 201.109 59.2246C197.03 54.8825 191.956 51.3949 186.239 49.0037C180.522 46.6125 174.298 45.3747 168 45.3763Z" fill="#BBC2FA"/>
<path d="M168.978 92.686C172.884 92.686 176.051 89.3456 176.051 85.2249C176.051 81.1042 172.884 77.7637 168.978 77.7637C165.071 77.7637 161.904 81.1042 161.904 85.2249C161.904 89.3456 165.071 92.686 168.978 92.686Z" fill="#BBC2FA"/>
<path d="M148.937 92.686C152.843 92.686 156.01 89.3456 156.01 85.2249C156.01 81.1042 152.843 77.7637 148.937 77.7637C145.03 77.7637 141.863 81.1042 141.863 85.2249C141.863 89.3456 145.03 92.686 148.937 92.686Z" fill="#BBC2FA"/>
<path d="M189.021 92.686C192.927 92.686 196.094 89.3456 196.094 85.2249C196.094 81.1042 192.927 77.7637 189.021 77.7637C185.114 77.7637 181.947 81.1042 181.947 85.2249C181.947 89.3456 185.114 92.686 189.021 92.686Z" fill="#BBC2FA"/>
<path d="M60.485 106.022C60.1503 105.487 59.7085 105.036 59.1908 104.702C58.6731 104.367 58.092 104.155 57.4886 104.083C56.8852 104.011 56.274 104.078 55.6982 104.282C55.1223 104.486 54.5958 104.82 54.1558 105.262L41.0371 98.1191L41.8526 106.166L54.1853 111.715C54.9374 112.445 55.9175 112.86 56.9399 112.879C57.9622 112.898 58.9558 112.521 59.7324 111.82C60.5089 111.118 61.0144 110.14 61.1531 109.072C61.2918 108.003 61.0541 106.918 60.485 106.022Z" fill="#A0616A"/>
<path d="M48.8271 109.262C48.5897 109.377 48.3321 109.438 48.0709 109.441C47.8098 109.443 47.5509 109.388 47.3113 109.279L34.8505 103.577C30.5898 101.628 27.1453 98.1133 25.1577 93.686L18.6067 79.1C18.1232 78.4448 17.7669 77.6955 17.5582 76.895C17.3495 76.0945 17.2924 75.2584 17.3902 74.4346C17.488 73.6108 17.7388 72.8154 18.1282 72.0939C18.5177 71.3724 19.0381 70.7389 19.6598 70.2298C20.2815 69.7206 20.9923 69.3457 21.7515 69.1265C22.5106 68.9073 23.3033 68.8481 24.0842 68.9523C24.8651 69.0565 25.6188 69.322 26.3023 69.7337C26.9858 70.1454 27.5857 70.6951 28.0676 71.3515L39.5826 93.8873L50.2152 102.36C50.5196 102.603 50.7456 102.939 50.8629 103.323C50.9801 103.707 50.9828 104.119 50.8707 104.504L49.8271 108.06C49.715 108.441 49.4954 108.777 49.1976 109.023C49.0834 109.118 48.9591 109.198 48.8271 109.262Z" fill="#E9E9E9"/>
<path d="M18.3187 61.9455C23.9227 61.9455 28.4656 57.1535 28.4656 51.2423C28.4656 45.3311 23.9227 40.5391 18.3187 40.5391C12.7148 40.5391 8.17188 45.3311 8.17188 51.2423C8.17188 57.1535 12.7148 61.9455 18.3187 61.9455Z" fill="#A0616A"/>
<path d="M22.429 191.649L27.4935 191.648L29.9033 171.041L22.4277 171.041L22.429 191.649Z" fill="#A0616A"/>
<path d="M37.2617 196.609L21.3436 196.61L21.3433 190.123L31.1112 190.122C32.7424 190.122 34.3067 190.806 35.4602 192.022C36.6136 193.239 37.2616 194.889 37.2617 196.609Z" fill="#161616"/>
<path d="M5.90358 191.649L10.9681 191.648L13.3779 171.041L5.90234 171.041L5.90358 191.649Z" fill="#A0616A"/>
<path d="M20.7363 196.609L4.8182 196.61L4.81792 190.123L14.5859 190.122C16.217 190.122 17.7813 190.806 18.9348 192.022C20.0882 193.239 20.7362 194.889 20.7363 196.609Z" fill="#161616"/>
<path d="M4.13425 185.75C3.95974 185.54 3.82983 185.293 3.75323 185.025C3.67664 184.758 3.65512 184.476 3.69014 184.199L12.5578 114.045L34.5893 117.992L36.9406 116.503L30.8604 183.066C30.8098 183.516 30.6138 183.933 30.3056 184.247C29.9973 184.562 29.5956 184.755 29.1681 184.794L22.4971 185.38C22.2318 185.403 21.9649 185.366 21.7144 185.272C21.4639 185.177 21.2357 185.026 21.045 184.83C20.8544 184.634 20.7059 184.398 20.6096 184.136C20.5132 183.874 20.4713 183.594 20.4866 183.314L22.2137 151.614C22.2168 151.56 22.2008 151.507 22.1688 151.465C22.1369 151.423 22.0913 151.395 22.0408 151.386C21.9903 151.377 21.9386 151.389 21.8956 151.418C21.8526 151.447 21.8214 151.492 21.8081 151.544L13.2633 184.969C13.1565 185.385 12.9229 185.752 12.5985 186.014C12.2741 186.276 11.877 186.419 11.4684 186.419H5.533C5.26809 186.419 5.00624 186.36 4.76499 186.244C4.52375 186.129 4.3087 185.96 4.13425 185.75Z" fill="#161616"/>
<path d="M19.3927 118.956C19.1399 118.714 18.8148 118.574 18.4739 118.559C18.1331 118.544 17.7981 118.655 17.527 118.874L13.1223 122.488C12.8826 122.685 12.6007 122.817 12.3012 122.872C12.0018 122.928 11.6941 122.905 11.405 122.806C11.116 122.707 10.8544 122.534 10.6433 122.303C10.4322 122.072 10.278 121.791 10.1943 121.482C8.03372 113.501 3.13872 93.4103 4.34462 79.2701C5.02816 71.2549 11.5897 65.1634 18.9714 65.6745C24.018 66.0294 27.3381 69.1003 28.8394 74.8016C32.5256 88.7997 36.5766 114.477 37.3512 119.482C37.4123 119.871 37.3608 120.269 37.2033 120.626C37.0457 120.983 36.7896 121.281 36.4685 121.482C34.3845 122.802 32.0034 123.509 29.5727 123.529C26.6315 123.529 23.105 122.449 19.3927 118.956Z" fill="#E9E9E9"/>
<path d="M21.054 123.935C21.1034 123.296 21.0194 122.654 20.808 122.053C20.5965 121.453 20.2629 120.908 19.8304 120.459C19.398 120.009 18.8773 119.664 18.3051 119.45C17.7329 119.235 17.123 119.156 16.5184 119.217L10.3744 105.057L6.30859 111.919L12.7663 124.313C12.9307 125.378 13.4595 126.342 14.2527 127.023C15.0458 127.703 16.0481 128.054 17.0697 128.007C18.0912 127.96 19.0611 127.52 19.7954 126.769C20.5298 126.019 20.9776 125.01 21.054 123.935Z" fill="#A0616A"/>
<path d="M9.9857 118.896C9.73172 118.831 9.49338 118.712 9.28617 118.544C9.07897 118.376 8.90753 118.164 8.78303 117.922L2.31378 105.324C0.101387 101.017 -0.552565 96.0092 0.473562 91.2316L3.85232 75.49C3.85538 74.6599 4.01352 73.8385 4.31769 73.0729C4.62186 72.3073 5.0661 71.6124 5.62501 71.028C6.18392 70.4436 6.84655 69.9811 7.57501 69.667C8.30346 69.3529 9.08347 69.1933 9.87044 69.1973C10.6574 69.2014 11.4359 69.369 12.1614 69.6906C12.8869 70.0122 13.5452 70.4815 14.0987 71.0717C14.6522 71.6618 15.09 72.3612 15.387 73.1299C15.6841 73.8986 15.8346 74.7216 15.83 75.5517L11.7064 100.78L15.1162 114.368C15.2131 114.758 15.1943 115.17 15.0621 115.548C14.93 115.926 14.6909 116.252 14.3773 116.482L11.4759 118.601C11.1646 118.828 10.7952 118.949 10.4168 118.949C10.2716 118.949 10.1269 118.931 9.9857 118.896Z" fill="#E9E9E9"/>
<path opacity="0.2" d="M15.0072 86.1895L11.2891 102.749L16.6597 116.694L12.9416 103.185L15.0072 86.1895Z" fill="#161616"/>
<path d="M12.528 60.0436C11.6254 60.0613 10.7284 59.8901 9.88891 59.54C9.51952 59.3898 9.13609 59.2664 8.76739 59.1161C5.51124 57.7891 3.36629 54.1312 3.28947 50.45C3.21265 46.7688 5.01992 43.1958 7.70359 40.8411C10.3873 38.4865 13.8633 37.2776 17.3439 36.998C21.0932 36.6969 25.3149 37.6998 27.4099 40.9933C27.9676 41.87 28.3576 42.9337 28.0272 43.9922C27.9282 44.3116 27.7514 44.598 27.5146 44.8228C26.5789 45.7008 25.6462 45.0406 24.6924 44.9823C23.3814 44.9021 22.204 46.0214 21.7808 47.3327C21.3576 48.6439 21.5439 50.0875 21.8856 51.4249C22.1459 52.2297 22.31 53.0656 22.3741 53.9133C22.4017 54.3383 22.3259 54.7637 22.1539 55.1492C21.982 55.5347 21.7195 55.8675 21.3914 56.116C20.5723 56.6383 19.4965 56.336 18.6768 55.8146C17.8571 55.2931 17.1489 54.568 16.2635 54.1843C15.3781 53.8005 14.1886 53.8857 13.6732 54.7365C13.5095 55.0461 13.3986 55.3837 13.3458 55.7339C12.8838 57.9541 12.99 57.8234 12.528 60.0436Z" fill="#161616"/>
<path d="M329.094 54.0722H272.452C271.769 54.0722 271.114 53.7861 270.631 53.2768C270.148 52.7675 269.877 52.0767 269.877 51.3564C269.877 50.6362 270.148 49.9454 270.631 49.4361C271.114 48.9268 271.769 48.6406 272.452 48.6406H329.094C329.777 48.6406 330.431 48.9268 330.914 49.4361C331.397 49.9454 331.668 50.6362 331.668 51.3564C331.668 52.0767 331.397 52.7675 330.914 53.2768C330.431 53.7861 329.777 54.0722 329.094 54.0722Z" fill="#E9E9E9"/>
<path d="M292.083 42.5293H272.452C271.769 42.5293 271.114 42.2431 270.631 41.7338C270.148 41.2245 269.877 40.5337 269.877 39.8135C269.877 39.0932 270.148 38.4024 270.631 37.8931C271.114 37.3838 271.769 37.0977 272.452 37.0977H292.083C292.766 37.0977 293.421 37.3838 293.904 37.8931C294.387 38.4024 294.658 39.0932 294.658 39.8135C294.658 40.5337 294.387 41.2245 293.904 41.7338C293.421 42.2431 292.766 42.5293 292.083 42.5293Z" fill="#E9E9E9"/>
<path d="M246.796 57.3812C252.839 57.3812 257.738 52.2136 257.738 45.8391C257.738 39.4645 252.839 34.2969 246.796 34.2969C240.753 34.2969 235.854 39.4645 235.854 45.8391C235.854 52.2136 240.753 57.3812 246.796 57.3812Z" fill="#5666ED"/>
<path d="M334.77 28.1855H232.75C231.3 28.1877 229.91 28.7964 228.884 29.8782C227.858 30.9601 227.281 32.4267 227.279 33.9566V57.7199C227.281 59.2499 227.858 60.7165 228.884 61.7983C229.91 62.8802 231.3 63.4889 232.75 63.491H334.77C336.221 63.4889 337.611 62.8802 338.637 61.7983C339.662 60.7165 340.24 59.2499 340.242 57.7199V33.9566C340.24 32.4267 339.662 30.9601 338.637 29.8782C337.611 28.7964 336.221 28.1877 334.77 28.1855ZM339.598 57.7199C339.596 59.07 339.087 60.3642 338.182 61.3188C337.277 62.2734 336.05 62.8104 334.77 62.8121H232.75C231.471 62.8104 230.244 62.2734 229.339 61.3188C228.434 60.3642 227.925 59.07 227.923 57.7199V33.9566C227.925 32.6066 228.434 31.3124 229.339 30.3578C230.244 29.4031 231.471 28.8661 232.75 28.8645H334.77C336.05 28.8661 337.277 29.4031 338.182 30.3578C339.087 31.3124 339.596 32.6066 339.598 33.9566V57.7199Z" fill="#BBC2FA"/>
<path d="M339.597 37.6921C343.685 37.6921 346.999 34.1963 346.999 29.8841C346.999 25.5719 343.685 22.0762 339.597 22.0762C335.509 22.0762 332.195 25.5719 332.195 29.8841C332.195 34.1963 335.509 37.6921 339.597 37.6921Z" fill="#5666ED"/>
<path d="M339.372 34.2739C339.342 34.2424 339.318 34.205 339.302 34.1638C339.286 34.1226 339.277 34.0784 339.277 34.0338V25.3922C339.277 25.3021 339.311 25.2158 339.372 25.1521C339.432 25.0885 339.514 25.0527 339.599 25.0527C339.684 25.0527 339.766 25.0885 339.827 25.1521C339.887 25.2158 339.921 25.3021 339.921 25.3922V34.0338C339.921 34.1009 339.902 34.1666 339.867 34.2224C339.831 34.2782 339.781 34.3217 339.722 34.3474C339.663 34.3731 339.599 34.3798 339.536 34.3667C339.474 34.3536 339.417 34.3213 339.372 34.2739Z" fill="#FAFAFA"/>
<path d="M335.274 29.9545C335.229 29.907 335.198 29.8465 335.186 29.7807C335.173 29.7148 335.18 29.6466 335.204 29.5846C335.229 29.5225 335.27 29.4695 335.323 29.4322C335.376 29.3949 335.438 29.375 335.501 29.375H343.694C343.779 29.375 343.861 29.4108 343.922 29.4744C343.982 29.5381 344.016 29.6244 344.016 29.7144C344.016 29.8045 343.982 29.8908 343.922 29.9545C343.861 30.0181 343.779 30.0539 343.694 30.0539H335.501C335.459 30.054 335.417 30.0452 335.378 30.0282C335.339 30.0111 335.304 29.9861 335.274 29.9545Z" fill="#FAFAFA"/>
<path d="M322.836 148.303H303.002C303.002 148.904 282.56 149.392 282.56 149.392C282.239 149.647 281.947 149.939 281.688 150.264C280.912 151.241 280.488 152.475 280.49 153.75V154.622C280.491 156.066 281.035 157.451 282.003 158.473C282.972 159.494 284.285 160.068 285.654 160.069H322.836C324.205 160.068 325.518 159.493 326.486 158.472C327.454 157.451 327.999 156.066 328 154.622V153.75C327.998 152.306 327.453 150.922 326.485 149.9C325.517 148.879 324.205 148.305 322.836 148.303Z" fill="#BBC2FA"/>
<path d="M307.134 159.854H301.764V196.459H307.134V159.854Z" fill="#BBC2FA"/>
<path d="M322.422 196.259C322.422 196.871 314.283 196.496 304.244 196.496C294.205 196.496 286.066 196.871 286.066 196.259C286.066 195.647 294.205 190.793 304.244 190.793C314.283 190.793 322.422 195.647 322.422 196.259Z" fill="#BBC2FA"/>
<path d="M306.173 99.2494C312.562 99.2494 317.741 93.7864 317.741 87.0475C317.741 80.3087 312.562 74.8457 306.173 74.8457C299.784 74.8457 294.605 80.3087 294.605 87.0475C294.605 93.7864 299.784 99.2494 306.173 99.2494Z" fill="#2F2E41"/>
<path d="M277.387 191.445L272.322 191.445L269.912 170.838L277.388 170.838L277.387 191.445Z" fill="#FFB6B6"/>
<path d="M268.703 189.918H278.471V196.405H262.553C262.553 194.685 263.201 193.035 264.354 191.818C265.507 190.601 267.072 189.918 268.703 189.918Z" fill="#161616"/>
<path d="M269.479 188.464L264.646 186.864L268.196 166.441L275.328 168.802L269.479 188.464Z" fill="#FFB6B6"/>
<path d="M261.628 184.265L270.948 187.35L269.106 193.54L253.918 188.512C254.407 186.87 255.493 185.501 256.939 184.704C258.385 183.908 260.072 183.75 261.628 184.265Z" fill="#161616"/>
<path d="M309.271 144.732C309.154 143.694 308.944 142.669 308.643 141.673L307.697 140.418L305.235 137.158L305.127 137.163C304.945 137.171 304.189 137.215 303.02 137.311H303.008C302.285 137.372 301.401 137.45 300.397 137.55C300.133 137.581 299.856 137.607 299.571 137.638V142.187H304.735C304.986 142.187 305.228 142.284 305.417 142.459C305.605 142.634 305.727 142.875 305.759 143.137C305.763 143.185 305.768 143.229 305.768 143.277C305.768 143.565 305.659 143.843 305.465 144.047C305.271 144.251 305.009 144.366 304.735 144.366H274.742C274.36 144.634 273.993 144.925 273.643 145.238C272.586 146.1 271.825 147.303 271.474 148.663C269.722 156.786 266.529 171.933 265.587 176.383C265.518 176.718 265.534 177.066 265.632 177.393C265.73 177.72 265.906 178.015 266.145 178.248C266.32 178.421 266.527 178.556 266.752 178.644L270.478 180.117C270.631 180.177 270.791 180.217 270.953 180.235C270.974 180.235 270.991 180.239 271.011 180.239C271.05 180.243 271.088 180.244 271.127 180.244C271.504 180.242 271.871 180.121 272.182 179.895C272.492 179.67 272.73 179.351 272.866 178.98L275.808 170.84L280.34 158.289L282.133 153.326C284.211 153.84 301.645 157.91 307.482 151.352C308.058 150.705 308.512 149.95 308.821 149.125C309.312 147.722 309.467 146.213 309.271 144.732Z" fill="#161616"/>
<path d="M314.329 145.916C314.238 145.528 314.135 145.127 314.015 144.722L310.606 140.207L310.499 140.211C310.284 140.224 309.264 140.281 307.698 140.416C305.922 140.573 303.439 140.826 300.65 141.222C300.568 141.231 300.481 141.244 300.398 141.257C300.125 141.296 299.849 141.336 299.572 141.379V142.185H304.736C304.987 142.186 305.229 142.282 305.418 142.457C305.606 142.632 305.728 142.873 305.761 143.135C305.765 143.183 305.769 143.227 305.769 143.275C305.769 143.564 305.66 143.841 305.466 144.045C305.273 144.249 305.01 144.364 304.736 144.364H286.484C285.687 144.639 284.918 144.927 284.183 145.236C280.324 146.848 277.436 148.962 276.846 151.712C276.647 152.635 276.428 153.651 276.197 154.732C275.338 158.749 274.293 163.669 273.347 168.141V168.145C273.152 169.069 272.958 169.966 272.772 170.838C271.983 174.586 271.314 177.763 270.959 179.432C270.95 179.48 270.942 179.523 270.934 179.571V179.58C270.893 179.917 270.932 180.26 271.05 180.578L271.054 180.582V180.586C271.167 180.89 271.352 181.159 271.591 181.366C271.75 181.505 271.93 181.616 272.124 181.693L275.85 183.166C276.058 183.248 276.277 183.291 276.499 183.293C276.809 183.293 277.115 183.211 277.387 183.053C277.777 182.83 278.079 182.466 278.238 182.029L286.261 159.821L287.504 156.374C289.582 156.889 307.016 160.954 312.854 154.4C314.007 153.084 314.665 151.368 314.705 149.576C314.745 148.343 314.619 147.111 314.329 145.916Z" fill="#161616"/>
<path d="M313.869 107.472C313.803 107.39 313.732 107.307 313.658 107.228C312.558 106.008 311.199 105.08 309.693 104.52C308.187 103.961 306.577 103.785 304.995 104.008C303.614 104.199 302.247 104.483 300.901 104.858C299.162 105.329 297.57 106.271 296.282 107.59C295.279 108.616 294.488 109.851 293.961 111.216C293.434 112.582 293.182 114.048 293.221 115.521C293.237 116.118 293.241 116.728 293.233 117.347C293.233 117.635 293.229 117.927 293.225 118.219H297.298C297.475 118.218 297.651 118.24 297.823 118.284C298.32 118.409 298.763 118.707 299.08 119.13C299.397 119.553 299.57 120.076 299.57 120.615V140.888C299.847 140.971 300.124 141.054 300.397 141.141C300.483 141.171 300.566 141.197 300.649 141.223C300.744 141.254 300.839 141.284 300.93 141.315C301.768 141.59 302.588 141.88 303.388 142.187H304.735C304.986 142.187 305.228 142.283 305.416 142.458C305.605 142.633 305.727 142.874 305.759 143.137C306.04 143.254 306.313 143.372 306.581 143.49C307.535 143.908 308.44 144.326 309.271 144.731C310.39 145.272 311.386 145.786 312.22 146.235C312.483 146.376 312.773 146.451 313.067 146.453C313.454 146.451 313.83 146.32 314.142 146.078C314.206 146.028 314.268 145.974 314.327 145.917C314.548 145.698 314.716 145.426 314.814 145.124C314.913 144.821 314.94 144.498 314.893 144.182C314.467 140.759 314.342 137.302 314.522 133.854C314.637 130.956 314.885 127.984 315.207 125.113C315.381 123.557 315.575 122.032 315.777 120.563C315.972 119.16 316.178 117.813 316.381 116.541C316.646 114.927 316.558 113.271 316.123 111.699C315.687 110.127 314.916 108.681 313.869 107.472Z" fill="#5666ED"/>
<path d="M296.936 107.83C296.724 107.734 296.506 107.654 296.283 107.59C295.182 107.278 294.012 107.393 292.985 107.915C291.958 108.438 291.143 109.332 290.69 110.436L287.851 117.347L287.496 118.219H297.3C297.476 118.218 297.653 118.24 297.824 118.284L298.155 117.478L299.411 114.419C299.909 113.199 299.929 111.82 299.465 110.585C299.001 109.349 298.092 108.359 296.936 107.83Z" fill="#5666ED"/>
<path d="M305.75 100.604C311.354 100.604 315.897 95.8117 315.897 89.9005C315.897 83.9893 311.354 79.1973 305.75 79.1973C300.146 79.1973 295.604 83.9893 295.604 89.9005C295.604 95.8117 300.146 100.604 305.75 100.604Z" fill="#FFB6B6"/>
<path d="M258 119L259.775 118H298.5L300 119.5V141.5L305 142L306 142.5L305.5 144.5H300H260L258 143V119Z" fill="#3F3D56"/>
<path d="M295.42 84.6415C300.226 87.7363 305.645 89.6195 311.254 90.1447L309.585 88.0352C310.8 88.5092 312.079 88.777 313.373 88.8288C314.666 88.8076 316.021 88.2824 316.755 87.159C317.083 86.6006 317.277 85.967 317.322 85.3122C317.367 84.6573 317.261 84.0007 317.014 83.3984C316.505 82.1969 315.713 81.1528 314.714 80.3653C312.943 78.8872 310.852 77.8944 308.629 77.4753C306.405 77.0561 304.118 77.2237 301.971 77.9631C300.499 78.4273 299.18 79.3198 298.165 80.5383C297.203 81.79 295.352 82.9052 295.844 84.4305L295.42 84.6415Z" fill="#161616"/>
<path d="M307.455 76.0048C304.255 72.5815 300.382 69.9398 296.11 68.2657C293.367 67.1939 290.382 66.5317 287.514 67.1404C284.647 67.749 281.936 69.8414 281.136 72.8089C280.481 75.2355 281.157 77.8482 282.172 80.1324C283.187 82.4167 284.542 84.5349 285.363 86.9044C286.201 89.3221 286.453 91.9222 286.096 94.4686C285.739 97.0151 284.785 99.4273 283.321 101.486C281.856 103.545 279.927 105.186 277.709 106.259C275.491 107.332 273.054 107.803 270.619 107.631C273.436 108.03 276.033 109.426 278.787 110.169C281.541 110.913 284.791 110.862 286.837 108.781C289.002 106.58 289.046 103 288.941 99.8294C288.786 95.1164 288.63 90.4035 288.474 85.6905C288.395 83.287 288.327 80.8064 289.149 78.5631C289.971 76.3197 291.924 74.3553 294.203 74.3757C295.931 74.3912 297.461 75.4954 298.846 76.5843C300.232 77.6732 301.699 78.835 303.42 78.9969C305.141 79.1589 307.106 77.8153 306.978 75.9977L307.455 76.0048Z" fill="#161616"/>
<path d="M315.777 120.563L309.985 120.729L309.564 125.021L309.469 126.015L300.397 130.311L299.57 130.704V138.343L300.397 138.094L303.007 137.31H303.02L314.521 133.854L314.654 133.815C315.583 133.532 316.401 132.94 316.986 132.128C317.571 131.315 317.892 130.325 317.901 129.305L317.93 124.237L317.955 120.502L315.777 120.563Z" fill="#FFB6B6"/>
<path d="M317.662 112.074C317.585 110.747 317.011 109.507 316.067 108.627C315.123 107.746 313.886 107.297 312.628 107.379C311.37 107.46 310.195 108.065 309.36 109.061C308.525 110.057 308.1 111.362 308.177 112.689L308.809 123.566C308.826 123.852 308.903 124.131 309.033 124.382C309.164 124.634 309.345 124.852 309.565 125.021C309.914 125.296 310.345 125.43 310.779 125.4L315.208 125.113L316.551 125.025C316.796 125.013 317.035 124.948 317.255 124.835C317.475 124.722 317.671 124.563 317.832 124.367C317.867 124.326 317.9 124.282 317.931 124.237C318.193 123.866 318.322 123.409 318.294 122.947L317.662 112.074Z" fill="#5666ED"/>
<mask id="path-48-inside-1_235_23835" fill="white">
<path d="M300.93 141.316H300.397V141.259C300.124 141.298 299.847 141.337 299.571 141.381V142.187H303.388C302.586 141.882 301.767 141.592 300.93 141.316ZM300.93 141.316H300.397V141.259C300.124 141.298 299.847 141.337 299.571 141.381V142.187H303.388C302.586 141.882 301.767 141.592 300.93 141.316ZM304.735 141.316H300.397V120.616C300.395 119.907 300.176 119.218 299.771 118.653C299.367 118.087 298.799 117.675 298.154 117.478C297.876 117.39 297.588 117.346 297.298 117.348H260.53C259.709 117.349 258.921 117.693 258.34 118.306C257.759 118.919 257.433 119.75 257.432 120.616V141.969C257.432 142.836 257.758 143.667 258.339 144.28C258.921 144.893 259.708 145.237 260.53 145.238H304.735C305.192 145.237 305.634 145.058 305.974 144.736C306.315 144.413 306.531 143.97 306.581 143.49C306.59 143.419 306.594 143.348 306.594 143.277C306.593 142.757 306.397 142.258 306.049 141.891C305.7 141.523 305.228 141.316 304.735 141.316ZM305.768 143.277C305.768 143.565 305.659 143.843 305.465 144.047C305.271 144.251 305.009 144.366 304.735 144.366H260.53C259.928 144.366 259.35 144.113 258.924 143.664C258.498 143.214 258.258 142.605 258.258 141.969V120.616C258.258 119.98 258.498 119.371 258.924 118.922C259.35 118.472 259.928 118.22 260.53 118.219H297.298C297.475 118.219 297.651 118.241 297.823 118.285C298.32 118.41 298.763 118.708 299.08 119.131C299.397 119.554 299.57 120.077 299.571 120.616V142.187H304.735C304.986 142.187 305.228 142.284 305.417 142.459C305.605 142.634 305.727 142.875 305.759 143.137C305.763 143.185 305.768 143.229 305.768 143.277ZM300.93 141.316H300.397V141.259C300.124 141.298 299.847 141.337 299.571 141.381V142.187H303.388C302.586 141.882 301.767 141.592 300.93 141.316Z"/>
</mask>
<path d="M300.93 141.316H300.397V141.259C300.124 141.298 299.847 141.337 299.571 141.381V142.187H303.388C302.586 141.882 301.767 141.592 300.93 141.316ZM300.93 141.316H300.397V141.259C300.124 141.298 299.847 141.337 299.571 141.381V142.187H303.388C302.586 141.882 301.767 141.592 300.93 141.316ZM304.735 141.316H300.397V120.616C300.395 119.907 300.176 119.218 299.771 118.653C299.367 118.087 298.799 117.675 298.154 117.478C297.876 117.39 297.588 117.346 297.298 117.348H260.53C259.709 117.349 258.921 117.693 258.34 118.306C257.759 118.919 257.433 119.75 257.432 120.616V141.969C257.432 142.836 257.758 143.667 258.339 144.28C258.921 144.893 259.708 145.237 260.53 145.238H304.735C305.192 145.237 305.634 145.058 305.974 144.736C306.315 144.413 306.531 143.97 306.581 143.49C306.59 143.419 306.594 143.348 306.594 143.277C306.593 142.757 306.397 142.258 306.049 141.891C305.7 141.523 305.228 141.316 304.735 141.316ZM305.768 143.277C305.768 143.565 305.659 143.843 305.465 144.047C305.271 144.251 305.009 144.366 304.735 144.366H260.53C259.928 144.366 259.35 144.113 258.924 143.664C258.498 143.214 258.258 142.605 258.258 141.969V120.616C258.258 119.98 258.498 119.371 258.924 118.922C259.35 118.472 259.928 118.22 260.53 118.219H297.298C297.475 118.219 297.651 118.241 297.823 118.285C298.32 118.41 298.763 118.708 299.08 119.131C299.397 119.554 299.57 120.077 299.571 120.616V142.187H304.735C304.986 142.187 305.228 142.284 305.417 142.459C305.605 142.634 305.727 142.875 305.759 143.137C305.763 143.185 305.768 143.229 305.768 143.277ZM300.93 141.316H300.397V141.259C300.124 141.298 299.847 141.337 299.571 141.381V142.187H303.388C302.586 141.882 301.767 141.592 300.93 141.316Z" fill="#3F3D56"/>
<path d="M300.93 141.316L301.086 140.841L301.01 140.816H300.93V141.316ZM300.397 141.316H299.897V141.816H300.397V141.316ZM300.397 141.259H300.897V140.682L300.326 140.764L300.397 141.259ZM299.571 141.381L299.493 140.887L299.071 140.954V141.381H299.571ZM299.571 142.187H299.071V142.687H299.571V142.187ZM303.388 142.187V142.687L303.566 141.72L303.388 142.187ZM300.93 140.816H300.397V141.816H300.93V140.816ZM300.897 141.316V141.259H299.897V141.316H300.897ZM300.326 140.764C300.055 140.803 299.774 140.843 299.493 140.887L299.648 141.875C299.921 141.832 300.194 141.793 300.468 141.754L300.326 140.764ZM299.071 141.381V142.187H300.071V141.381H299.071ZM299.571 142.687H303.388V141.687H299.571V142.687ZM303.566 141.72C302.757 141.412 301.931 141.119 301.086 140.841L300.773 141.79C301.604 142.064 302.416 142.352 303.21 142.654L303.566 141.72ZM300.397 141.316H299.397V142.316H300.397V141.316ZM299.571 142.187H298.571V143.187H299.571V142.187ZM304.735 141.316L304.736 140.316H304.735V141.316ZM300.397 120.616H301.397L301.397 120.614L300.397 120.616ZM298.154 117.478L297.851 118.431L297.863 118.435L298.154 117.478ZM297.298 117.348V118.348L297.304 118.348L297.298 117.348ZM260.53 117.348V116.348L260.529 116.348L260.53 117.348ZM257.432 120.616L256.432 120.615V120.616H257.432ZM257.432 141.969H256.432L256.432 141.97L257.432 141.969ZM260.53 145.238L260.53 146.238H260.53V145.238ZM304.735 145.238V146.238L304.737 146.238L304.735 145.238ZM306.581 143.49L305.588 143.372L305.587 143.386L306.581 143.49ZM306.594 143.277L307.594 143.275V143.275L306.594 143.277ZM305.768 143.277L306.768 143.277V143.277H305.768ZM304.735 144.366V145.366H304.735L304.735 144.366ZM260.53 144.366L260.529 145.366H260.53V144.366ZM258.258 141.969H257.258L257.258 141.97L258.258 141.969ZM258.258 120.616L257.258 120.615V120.616H258.258ZM260.53 118.219V117.219L260.529 117.219L260.53 118.219ZM297.298 118.219V119.219L297.302 119.219L297.298 118.219ZM297.823 118.285L297.575 119.253L297.579 119.254L297.823 118.285ZM299.571 120.616H300.571V120.614L299.571 120.616ZM304.735 142.187L304.736 141.187H304.735V142.187ZM305.759 143.137L306.756 143.054L306.754 143.034L306.752 143.014L305.759 143.137ZM304.735 140.316H300.397V142.316H304.735V140.316ZM301.397 141.316V120.616H299.397V141.316H301.397ZM301.397 120.614C301.395 119.702 301.113 118.809 300.585 118.071L298.958 119.234C299.239 119.627 299.396 120.113 299.397 120.618L301.397 120.614ZM300.585 118.071C300.056 117.332 299.308 116.784 298.445 116.522L297.863 118.435C298.291 118.565 298.677 118.842 298.958 119.234L300.585 118.071ZM298.457 116.525C298.08 116.406 297.688 116.346 297.293 116.348L297.304 118.348C297.488 118.347 297.672 118.375 297.851 118.431L298.457 116.525ZM297.298 116.348H260.53V118.348H297.298V116.348ZM260.529 116.348C259.425 116.349 258.378 116.813 257.615 117.618L259.066 118.994C259.464 118.574 259.992 118.348 260.531 118.348L260.529 116.348ZM257.615 117.618C256.853 118.422 256.433 119.5 256.432 120.615L258.432 120.617C258.432 119.999 258.666 119.416 259.066 118.994L257.615 117.618ZM256.432 120.616V141.969H258.432V120.616H256.432ZM256.432 141.97C256.432 143.085 256.852 144.164 257.614 144.968L259.065 143.592C258.665 143.17 258.432 142.587 258.432 141.969L256.432 141.97ZM257.614 144.968C258.378 145.774 259.425 146.237 260.53 146.238L260.53 144.238C259.992 144.237 259.463 144.012 259.065 143.592L257.614 144.968ZM260.53 146.238H304.735V144.238H260.53V146.238ZM304.737 146.238C305.456 146.236 306.141 145.955 306.662 145.462L305.287 144.009C305.127 144.161 304.929 144.237 304.733 144.238L304.737 146.238ZM306.662 145.462C307.181 144.971 307.502 144.304 307.576 143.594L305.587 143.386C305.561 143.636 305.449 143.856 305.287 144.009L306.662 145.462ZM307.574 143.608C307.588 143.498 307.594 143.387 307.594 143.275L305.594 143.278C305.594 143.309 305.592 143.341 305.588 143.372L307.574 143.608ZM307.594 143.275C307.593 142.507 307.304 141.761 306.774 141.203L305.323 142.579C305.49 142.756 305.593 143.006 305.594 143.278L307.594 143.275ZM306.774 141.203C306.243 140.643 305.512 140.317 304.736 140.316L304.733 142.316C304.944 142.316 305.157 142.404 305.323 142.579L306.774 141.203ZM304.768 143.276C304.768 143.317 304.752 143.346 304.739 143.359L306.191 144.735C306.565 144.34 306.767 143.814 306.768 143.277L304.768 143.276ZM304.739 143.359C304.734 143.365 304.73 143.367 304.729 143.367C304.729 143.367 304.731 143.366 304.734 143.366L304.735 145.366C305.292 145.366 305.814 145.132 306.191 144.735L304.739 143.359ZM304.735 143.366H260.53V145.366H304.735V143.366ZM260.531 143.366C260.211 143.366 259.893 143.232 259.65 142.976L258.198 144.352C258.807 144.994 259.644 145.365 260.529 145.366L260.531 143.366ZM259.65 142.976C259.405 142.717 259.258 142.356 259.258 141.969L257.258 141.97C257.258 142.854 257.591 143.711 258.198 144.352L259.65 142.976ZM259.258 141.969V120.616H257.258V141.969H259.258ZM259.258 120.617C259.258 120.229 259.405 119.868 259.65 119.61L258.198 118.234C257.591 118.874 257.258 119.732 257.258 120.615L259.258 120.617ZM259.65 119.61C259.893 119.353 260.211 119.219 260.531 119.219L260.529 117.219C259.644 117.22 258.807 117.591 258.198 118.234L259.65 119.61ZM260.53 119.219H297.298V117.219H260.53V119.219ZM297.302 119.219C297.393 119.219 297.485 119.23 297.575 119.253L298.071 117.316C297.818 117.251 297.557 117.218 297.295 117.219L297.302 119.219ZM297.579 119.254C297.846 119.322 298.096 119.485 298.28 119.731L299.88 118.531C299.43 117.931 298.794 117.498 298.068 117.315L297.579 119.254ZM298.28 119.731C298.465 119.977 298.57 120.29 298.571 120.618L300.571 120.614C300.569 119.864 300.329 119.13 299.88 118.531L298.28 119.731ZM298.571 120.616V142.187H300.571V120.616H298.571ZM299.571 143.187H304.735V141.187H299.571V143.187ZM304.733 143.187C304.732 143.187 304.731 143.187 304.73 143.187C304.729 143.187 304.729 143.186 304.729 143.187C304.729 143.187 304.732 143.188 304.737 143.192L306.096 141.726C305.728 141.384 305.246 141.188 304.736 141.187L304.733 143.187ZM304.737 143.192C304.747 143.202 304.762 143.224 304.767 143.26L306.752 143.014C306.691 142.525 306.463 142.066 306.096 141.726L304.737 143.192ZM304.763 143.22C304.763 143.227 304.764 143.234 304.764 143.24C304.765 143.246 304.765 143.251 304.766 143.255C304.767 143.265 304.767 143.271 304.767 143.275C304.768 143.284 304.768 143.283 304.768 143.277H306.768C306.768 143.177 306.758 143.082 306.756 143.054L304.763 143.22Z" fill="#BBC2FA" mask="url(#path-48-inside-1_235_23835)"/>
<path d="M278.914 133.907C280.283 133.907 281.393 132.736 281.393 131.292C281.393 129.848 280.283 128.678 278.914 128.678C277.545 128.678 276.436 129.848 276.436 131.292C276.436 132.736 277.545 133.907 278.914 133.907Z" fill="#5666ED"/>
</g>
<defs>
<clipPath id="clip0_235_23835">
<rect width="347" height="196.61" fill="white"/>
</clipPath>
</defs>
</svg>
