<svg width="213" height="248" viewBox="0 0 213 248" fill="none" xmlns="http://www.w3.org/2000/svg">
<g clip-path="url(#clip0_2_53726)">
<path d="M205.859 222.082L206.859 222.062C206.473 210.86 205.286 199.699 203.31 188.668C198.986 165.051 191.796 149.54 181.94 142.566L181.366 143.391C204.39 159.68 205.848 221.46 205.859 222.082Z" fill="#E0E3FF"/>
<path d="M38.2579 221.838L39.2578 221.818C39.2363 220.702 38.6114 194.405 28.3375 187.137L27.7633 187.961C37.6227 194.936 38.253 221.569 38.2579 221.838Z" fill="#E0E3FF"/>
<path d="M175.678 143.482C172.917 143.482 170.679 141.226 170.679 138.444C170.679 135.662 172.917 133.406 175.678 133.406C178.439 133.406 180.678 135.662 180.678 138.444C180.678 141.226 178.439 143.482 175.678 143.482Z" fill="#FFC245"/>
<path d="M23.0513 186.806C20.2901 186.806 18.0518 184.551 18.0518 181.768C18.0518 178.986 20.2901 176.73 23.0513 176.73C25.8124 176.73 28.0508 178.986 28.0508 181.768C28.0508 184.551 25.8124 186.806 23.0513 186.806Z" fill="#FFC245"/>
<path d="M195.69 146.502C194.751 152.549 197.2 157.958 197.2 157.958C197.2 157.958 201.172 153.562 202.111 147.515C203.051 141.467 200.602 136.059 200.602 136.059C200.602 136.059 196.63 140.454 195.69 146.502Z" fill="#E0E3FF"/>
<path d="M179.348 161.189C185.094 163.175 190.807 161.688 190.807 161.688C190.807 161.688 187.203 156.98 181.457 154.994C175.711 153.008 169.999 154.496 169.999 154.496C169.999 154.496 173.602 159.203 179.348 161.189Z" fill="#E0E3FF"/>
<path d="M24.0605 199.557C26.661 200.38 29.4305 200.5 32.0918 199.906C30.402 197.738 28.1262 196.109 25.5385 195.215C22.9509 194.32 20.1617 194.199 17.5072 194.865C19.2463 196.98 21.5061 198.598 24.0605 199.557Z" fill="#E0E3FF"/>
<path d="M161.957 221.058L157.867 231.785L114.859 220.992L120.896 205.16L161.957 221.058Z" fill="#FEF6EB"/>
<path d="M171.163 218.926L157.187 244.351L156.727 244.228C152.973 243.219 149.945 241.21 148.31 238.641C146.675 236.072 146.566 233.154 148.009 230.53L148.009 230.529L156.545 215L171.163 218.926Z" fill="#2F2E41"/>
<path d="M96.6057 90.1992L77.8634 91.9675L76.9336 148.16C77.182 150.914 78.4908 153.461 80.5797 155.254C82.6685 157.047 85.3713 157.945 88.1091 157.755L99.992 156.93L96.6057 90.1992Z" fill="#5666ED"/>
<path d="M171.55 31.4841C180.178 31.4841 187.173 24.4362 187.173 15.7421C187.173 7.04797 180.178 0 171.55 0C162.922 0 155.928 7.04797 155.928 15.7421C155.928 24.4362 162.922 31.4841 171.55 31.4841Z" fill="#FFC245"/>
<path d="M142.637 34.3046C148.689 34.3046 153.596 29.3605 153.596 23.2617C153.596 17.1628 148.689 12.2188 142.637 12.2188C136.584 12.2188 131.678 17.1628 131.678 23.2617C131.678 29.3605 136.584 34.3046 142.637 34.3046Z" fill="#FFB6B6"/>
<path d="M162.679 87.4319L149.855 87.2656L149.096 154.034C151.93 154.13 154.752 153.636 157.388 152.583C160.024 151.53 162.417 149.941 164.416 147.916C166.416 145.89 167.98 143.471 169.011 140.809C170.041 138.147 170.517 135.3 170.407 132.445L162.679 87.4319Z" fill="#5666ED"/>
<path d="M88.268 177.755C87.9643 179.692 87.5234 181.604 86.9488 183.477C86.3017 185.311 85.3026 187.006 84.7109 188.859C82.8249 194.764 85.4395 201.348 89.6154 205.906C93.2367 209.842 97.9111 212.639 103.075 213.959C106.842 214.914 110.759 215.051 114.641 215.184C125.392 215.551 136.418 215.88 146.605 212.399C149.823 211.272 152.932 209.848 155.891 208.147C156.826 207.699 157.649 207.046 158.301 206.236C159.078 205.121 159.177 203.676 159.171 202.313C159.148 197.721 158.224 193.152 158.443 188.565C158.565 186.025 159.036 183.486 158.804 180.953C158.483 178.076 157.287 175.37 155.38 173.205C153.474 171.039 150.949 169.521 148.153 168.856C145.264 168.231 142.266 168.572 139.324 168.857C131.688 169.596 124.019 169.942 116.347 169.892C108.508 169.842 100.718 168.636 92.9188 168.51C90.6122 168.473 90.6588 169.189 89.9245 171.439C89.2482 173.509 88.695 175.618 88.268 177.755Z" fill="#2F2E41"/>
<path d="M57.6166 174.025C55.5088 173.491 53.337 173.259 51.1649 173.334C48.8827 173.461 46.6536 174.077 44.6256 175.139C42.5977 176.201 40.8174 177.687 39.4033 179.496C37.9891 181.306 36.9734 183.398 36.4237 185.633C35.8741 187.869 35.803 190.197 36.2153 192.462C36.7416 194.916 37.6019 197.285 38.7718 199.501C40.4828 203 42.5349 206.491 45.7025 208.733C47.5554 210.045 49.6999 210.863 51.819 211.667L68.5017 218C70.9559 218.932 73.4105 219.863 75.889 220.727C88.3408 225.064 101.323 227.665 114.474 228.457C118.48 228.697 122.546 228.764 126.454 227.845C127.381 227.627 128.371 227.302 128.908 226.509C129.226 225.951 129.413 225.327 129.456 224.685L130.482 217.443C130.627 216.423 130.766 215.35 130.395 214.39C129.925 213.173 128.746 212.408 127.622 211.757C116.654 205.41 103.848 201.908 94.6166 193.196C92.4433 191.145 90.6246 187.894 87.9841 186.501C84.9897 184.921 81.4634 184.019 78.3683 182.564C71.6022 179.381 64.9498 175.724 57.6166 174.025Z" fill="#2F2E41"/>
<path opacity="0.1" d="M74.2711 183.785C80.1677 185.647 105.063 198.546 109.331 203.05C108.759 203.257 89.352 192.298 88.7697 192.122C83.4764 190.521 78.1537 188.91 73.127 186.567C72.1157 186.096 66.5573 183.881 66.8091 182.595C67.0931 181.145 73.2243 183.455 74.2711 183.785Z" fill="#161616"/>
<path d="M109.858 71.3104L93.9819 83.4574C93.9819 83.4574 77.2292 83.9855 77.7953 94.7765C78.3614 105.568 85.0662 156.66 85.0662 156.66L86.5209 174.239L114.115 182.162C129.024 186.443 144.776 186.783 159.853 183.15L156.574 165.513C156.574 165.513 169.852 85.4164 161.853 81.8899C153.854 78.3634 148.854 79.371 148.854 79.371L138.828 70.5547L109.858 71.3104Z" fill="#5666ED"/>
<path d="M156.854 51.693C156.854 67.4619 142.384 65.0768 124.535 65.0768C106.685 65.0768 92.2148 67.4619 92.2148 51.693C92.2148 35.9241 99.2831 7.97266 124.535 7.97266C150.656 7.97266 156.854 35.9241 156.854 51.693Z" fill="#2F2E41"/>
<path d="M141.336 57.035C149.829 48.4768 149.829 34.6013 141.336 26.0431C132.843 17.4849 119.073 17.4849 110.579 26.0431C102.086 34.6013 102.086 48.4768 110.579 57.035C119.073 65.5932 132.843 65.5932 141.336 57.035Z" fill="#FEF6EB"/>
<path d="M99.2988 40.9837H107.901L111.695 30.2767L112.454 40.9837H116.566L118.779 34.7379L119.222 40.9837H149.771C149.771 34.8311 147.345 28.9304 143.028 24.5799C138.71 20.2293 132.854 17.7852 126.748 17.7852H122.321C116.215 17.7852 110.359 20.2293 106.042 24.5799C101.724 28.9304 99.2988 34.8311 99.2988 40.9837Z" fill="#2F2E41"/>
<path d="M146.355 73.832H102.859V126.729H146.355V73.832Z" fill="#3F3D56"/>
<path d="M105.258 224.007L109.348 234.734L152.356 223.942L146.319 208.109L105.258 224.007Z" fill="#FEF6EB"/>
<path d="M106.574 218L114.5 233.529L114.5 233.53C115.839 236.154 115.739 239.072 114.221 241.641C112.702 244.21 109.891 246.219 106.404 247.228L105.977 247.351L93 221.926L106.574 218Z" fill="#2F2E41"/>
<path d="M191.225 169.916C194.68 169.043 198.261 168.797 201.802 169.188C204.63 169.502 207.543 170.295 209.608 172.267C212.121 174.668 212.928 178.38 212.996 181.869C213.106 188.817 210.819 195.588 206.525 201.026C205.477 202.401 204.23 203.611 202.826 204.614C201.312 205.569 199.698 206.353 198.013 206.951L160.653 221.8C150.824 225.707 140.961 229.624 130.709 232.2C130.152 232.471 129.51 232.508 128.926 232.302C128.342 232.097 127.862 231.666 127.593 231.104C127.585 231.087 127.577 231.07 127.569 231.052C124.296 226.341 121.549 221.279 119.381 215.959C119.278 215.833 119.207 215.683 119.174 215.523C119.141 215.363 119.146 215.198 119.19 215.04C119.234 214.883 119.314 214.739 119.425 214.619C119.536 214.5 119.674 214.41 119.827 214.355L146.252 199.056C148.145 197.96 150.059 196.848 151.63 195.322C152.772 194.207 153.708 192.895 154.392 191.448C154.939 190.295 154.991 187.575 155.69 186.723C156.375 185.888 158.719 185.822 159.801 185.493C161.327 185.022 162.822 184.453 164.276 183.789C170.187 181.124 175.451 177.253 181.118 174.132C184.296 172.301 187.692 170.885 191.225 169.916Z" fill="#2F2E41"/>
<path opacity="0.1" d="M176.243 181.342C171.703 184.778 165.825 187.936 161.325 191.462C159.79 192.666 134.19 207.169 133.828 209.095C138.026 209.807 164.767 190.957 168.592 189.076C172.418 187.195 175.81 184.543 179.171 181.91C180.027 181.239 183.657 179.221 181.198 178.472C179.813 178.049 177.266 180.655 176.243 181.342Z" fill="#161616"/>
<path d="M45.4395 44.3651C50.2925 44.3651 54.2267 40.4009 54.2267 35.5107C54.2267 30.6205 50.2925 26.6562 45.4395 26.6562C40.5865 26.6562 36.6523 30.6205 36.6523 35.5107C36.6523 40.4009 40.5865 44.3651 45.4395 44.3651Z" fill="#FFB6B6"/>
<path d="M59.9063 50.3211C63.3107 50.3211 66.0704 47.5402 66.0704 44.1098C66.0704 40.6793 63.3107 37.8984 59.9063 37.8984C56.502 37.8984 53.7422 40.6793 53.7422 44.1098C53.7422 47.5402 56.502 50.3211 59.9063 50.3211Z" fill="#FFC245"/>
<path d="M196.928 75.3415C200.638 75.3415 203.645 72.3112 203.645 68.5731C203.645 64.835 200.638 61.8047 196.928 61.8047C193.218 61.8047 190.211 64.835 190.211 68.5731C190.211 72.3112 193.218 75.3415 196.928 75.3415Z" fill="#FFB6B6"/>
<path opacity="0.17" d="M87.8613 107.584L88.4617 102.914C88.4617 102.914 110.859 104.562 107.359 110.103C103.86 115.645 95.3606 116.148 95.3606 116.148L87.8613 107.584Z" fill="#2F2E41"/>
<path d="M104.767 87.2796C106.05 87.422 107.286 87.8487 108.386 88.5292C109.486 89.2098 110.423 90.1273 111.129 91.2158C111.773 92.2091 112.211 93.3232 112.416 94.4913C112.622 95.6594 112.591 96.8573 112.326 98.013C112.06 99.1688 111.566 100.259 110.872 101.217C110.178 102.175 109.299 102.983 108.288 103.59C107.917 103.811 107.53 104.002 107.13 104.163L93.3636 146.596C92.9647 147.433 92.4055 148.182 91.7182 148.801C91.0308 149.42 90.2289 149.896 89.3584 150.201C88.488 150.507 87.5663 150.636 86.6462 150.581C85.7261 150.526 84.8258 150.289 83.9971 149.882C83.1684 149.476 82.4276 148.908 81.8173 148.212C81.207 147.516 80.7393 146.705 80.4409 145.827C80.1426 144.948 80.0196 144.018 80.079 143.092C80.1384 142.165 80.3789 141.259 80.7869 140.426L95.4275 98.4649C95.0287 97.0766 94.9756 95.6106 95.2731 94.1967C95.5705 92.7827 96.2092 91.4645 97.1327 90.3586C98.0562 89.2526 99.2359 88.3931 100.568 87.8561C101.899 87.3191 103.342 87.1211 104.767 87.2796Z" fill="#FEF6EB"/>
<path d="M88.0677 103.312C88.0677 103.312 95.956 116.893 107.36 110.104L96.3081 152.723H86.9962L77.3633 150.91L80.0605 133.301L88.0677 103.312Z" fill="#5666ED"/>
<path d="M144.39 112.594L137.855 103.554C137.855 103.554 140.996 94.1767 153.174 97.6057C153.174 97.6057 160.924 115.085 144.39 112.594Z" fill="#E0E3FF"/>
<path opacity="0.17" d="M144.39 112.594L137.855 103.554C137.855 103.554 140.996 94.1767 153.174 97.6057C153.174 97.6057 160.924 115.085 144.39 112.594Z" fill="#2F2E41"/>
<path d="M146.12 81.0112C148.006 81.8943 149.514 83.43 150.37 85.3389C151.227 87.2477 151.375 89.403 150.787 91.4125L165.428 133.374C165.836 134.206 166.076 135.112 166.136 136.039C166.195 136.966 166.072 137.896 165.774 138.774C165.476 139.653 165.008 140.464 164.398 141.16C163.787 141.856 163.046 142.424 162.218 142.83C161.389 143.237 160.489 143.474 159.568 143.529C158.648 143.584 157.727 143.455 156.856 143.149C155.986 142.844 155.184 142.368 154.496 141.749C153.809 141.13 153.25 140.381 152.851 139.543L139.084 97.1111C138.684 96.95 138.297 96.7583 137.927 96.5377C136.915 95.9302 136.036 95.123 135.343 94.1646C134.649 93.2062 134.154 92.1164 133.889 90.9606C133.624 89.8049 133.593 88.607 133.798 87.4389C134.004 86.2708 134.442 85.1567 135.085 84.1634C135.792 83.0748 136.729 82.1574 137.828 81.4768C138.928 80.7963 140.164 80.3696 141.447 80.2272C143.047 80.0445 144.666 80.3161 146.12 81.0112Z" fill="#FEF6EB"/>
<path d="M137.855 103.553C137.855 103.553 148.637 110.146 153.175 97.6055L168.367 137.915L163.853 145.871L163.2 145.926C160.507 146.152 157.799 145.716 155.31 144.656C152.821 143.595 150.625 141.941 148.91 139.837C145.411 135.544 143.03 130.441 141.98 124.988L137.855 103.553Z" fill="#5666ED"/>
</g>
<defs>
<clipPath id="clip0_2_53726">
<rect width="213" height="247.351" fill="white"/>
</clipPath>
</defs>
</svg>
