<svg width="40" height="40" viewBox="0 0 40 40" fill="none" xmlns="http://www.w3.org/2000/svg">
<path d="M30.7702 14.8438C30.3003 15.3107 29.6649 15.5727 29.0026 15.5727C28.3403 15.5727 27.7048 15.3107 27.235 14.8438L25.1592 12.7681C24.692 12.2983 24.4297 11.6627 24.4297 11.0001C24.4297 10.3375 24.692 9.70189 25.1592 9.23213L29.8577 4.53135C29.867 4.5224 29.8739 4.5113 29.8779 4.49902C29.8818 4.48674 29.8827 4.47368 29.8803 4.46099C29.878 4.4483 29.8726 4.43639 29.8646 4.42631C29.8565 4.41623 29.8461 4.4083 29.8342 4.40322C26.8014 3.10322 22.8694 3.76572 20.3725 6.24463C17.9834 8.61572 17.8475 12.1821 18.7225 15.2946C18.8468 15.737 18.8465 16.2052 18.7216 16.6475C18.5967 17.0897 18.3521 17.4889 18.0147 17.8009L4.99907 29.6876C4.61506 30.0281 4.30475 30.4435 4.08721 30.9083C3.86968 31.3732 3.74952 31.8776 3.73412 32.3905C3.71872 32.9035 3.80841 33.4142 3.99767 33.8913C4.18693 34.3683 4.47176 34.8016 4.83466 35.1645C5.19756 35.5274 5.63085 35.8122 6.10789 36.0015C6.58493 36.1908 7.09564 36.2805 7.60862 36.2651C8.12161 36.2497 8.62602 36.1295 9.09085 35.912C9.55568 35.6944 9.9711 35.3841 10.3116 35.0001L22.3319 21.9532C22.6399 21.6215 23.0324 21.3799 23.4673 21.2542C23.9022 21.1286 24.3631 21.1236 24.8006 21.2399C27.8897 22.0673 31.4053 21.9118 33.7631 19.5845C36.3014 17.0845 36.8491 12.6657 35.6186 10.1368C35.6131 10.1258 35.605 10.1162 35.595 10.1089C35.5851 10.1015 35.5735 10.0967 35.5613 10.0947C35.5491 10.0927 35.5366 10.0937 35.5248 10.0975C35.5131 10.1012 35.5024 10.1078 35.4936 10.1165L30.7702 14.8438Z" stroke="#161616" stroke-width="2" stroke-miterlimit="10" stroke-linecap="round"/>
<path d="M7.5 33.75C8.19036 33.75 8.75 33.1904 8.75 32.5C8.75 31.8096 8.19036 31.25 7.5 31.25C6.80964 31.25 6.25 31.8096 6.25 32.5C6.25 33.1904 6.80964 33.75 7.5 33.75Z" fill="#161616"/>
</svg>
