<svg width="40" height="40" viewBox="0 0 40 40" fill="none" xmlns="http://www.w3.org/2000/svg">
<path d="M20.0005 26.0004C22.4143 26.0005 24.7434 26.6584 26.5561 27.8217L26.562 27.8246C26.954 28.0724 27.7337 28.7569 28.4819 29.4526C28.8405 29.786 29.1697 30.1014 29.4096 30.3334C29.5295 30.4493 29.6268 30.5441 29.6938 30.6098C29.7273 30.6426 29.7535 30.6678 29.771 30.685L29.7964 30.7104L30.3139 31.2231C27.5486 33.7668 23.8449 35.3058 19.7876 35.2504C15.798 35.195 12.1674 33.5886 9.47311 31.0112L9.47604 31.0121C9.61102 31.0146 9.71679 30.989 9.77194 30.9731C9.83268 30.9556 9.8809 30.9353 9.91159 30.9213C9.94172 30.9076 9.96693 30.8917 9.98874 30.8793C10.0033 30.8714 10.0203 30.8649 10.0366 30.8549C10.0654 30.8372 10.1092 30.8079 10.1577 30.767C10.1928 30.7374 10.2499 30.6839 10.3091 30.6059C10.376 30.5404 10.4725 30.4474 10.5903 30.3334C10.8302 30.1014 11.1595 29.786 11.518 29.4526C12.1727 28.8437 12.8519 28.2442 13.2739 27.9379L13.438 27.8256L13.4438 27.8217C15.2566 26.6583 17.5864 26.0004 20.0005 26.0004Z" stroke="#161616" stroke-width="2"/>
<path d="M19.9999 12.25C21.2718 12.25 22.3932 12.7297 23.1864 13.5713C23.9388 14.3704 24.3429 15.4371 24.3114 16.6211L24.2987 16.8594C24.0978 19.5212 22.06 21.5 19.9999 21.5C18.0032 21.4999 16.0249 19.642 15.7245 17.1074L15.7011 16.8604C15.6082 15.5604 16.0215 14.3916 16.8036 13.5625C17.5905 12.7284 18.7136 12.25 19.9999 12.25Z" stroke="#161616" stroke-width="2"/>
</svg>
