<?xml version="1.0" encoding="UTF-8"?><svg xmlns="http://www.w3.org/2000/svg" xmlns:xlink="http://www.w3.org/1999/xlink" version="1.1" viewBox="0 0 132 99"><!--Generator: Sketch 61.2 (89653) - https://sketch.com--><title>accept</title><desc>Created with Sketch.</desc><g id="Page-1" fill="none" stroke="none" fillRule="evenodd" strokeWidth="1"><g id="Group-5" fill="#000000" transform="translate(-170.000000, -36.000000)"><g id="accept" transform="translate(167.000000, 0.000000)"><g id="Group" transform="translate(69.000000, 69.000000) rotate(45.000000) translate(-69.000000, -69.000000) translate(38.104478, 3.089552)"><path id="Rectangle" d="M54.3296561,0 L54.7449708,0 C58.5869517,-7.05760436e-16 61.7014925,3.11454087 61.7014925,6.95652174 L61.7014925,124.819598 C61.7014925,128.661579 58.5869517,131.77612 54.7449708,131.77612 L54.3296561,131.77612 C50.4876752,131.77612 47.3731343,128.661579 47.3731343,124.819598 L47.3731343,6.95652174 C47.3731343,3.11454087 50.4876752,7.81118779e-15 54.3296561,0 Z"/><path id="Rectangle" d="M30.6865672,93.7164179 L31.1044776,93.7164179 C34.9704709,93.7164179 38.1044776,96.8504247 38.1044776,100.716418 L38.1044776,148.507463 C38.1044776,152.373456 34.9704709,155.507463 31.1044776,155.507463 L30.6865672,155.507463 C26.8205739,155.507463 23.6865672,152.373456 23.6865672,148.507463 L23.6865672,100.716418 C23.6865672,96.8504247 26.8205739,93.7164179 30.6865672,93.7164179 Z" transform="translate(30.895522, 124.611940) rotate(90.000000) translate(-30.895522, -124.611940) "/></g></g></g></g></svg>