<?xml version="1.0" encoding="UTF-8"?><svg xmlns="http://www.w3.org/2000/svg" xmlns:xlink="http://www.w3.org/1999/xlink" version="1.1" viewBox="0 0 64 114"><!--Generator: Sketch 61.2 (89653) - https://sketch.com--><title>arrow</title><desc>Created with Sketch.</desc><g id="Page-1" fill="none" stroke="none" fillRule="evenodd" strokeWidth="1"><g id="Group-5" fill="#000000" transform="translate(-388.000000, -25.000000)"><g id="arrow" transform="translate(420.000000, 82.238095) rotate(90.000000) translate(-420.000000, -82.238095) translate(360.000000, 47.000000)"><path id="Rectangle" d="M35.2380952,-6.66666667 C38.9199936,-6.66666667 41.9047619,-3.68189833 41.9047619,2.7204905e-12 L41.9047619,70.4761905 C41.9047619,74.1580888 38.9199936,77.1428571 35.2380952,77.1428571 C31.5561969,77.1428571 28.5714286,74.1580888 28.5714286,70.4761905 L28.5714286,2.7204905e-12 C28.5714286,-3.68189833 31.5561969,-6.66666667 35.2380952,-6.66666667 Z" transform="translate(35.238095, 35.238095) rotate(45.000000) translate(-35.238095, -35.238095) "/><path id="Rectangle" d="M84.7619048,-6.66666667 C88.4438031,-6.66666667 91.4285714,-3.68189833 91.4285714,9.62785407e-13 L91.4285714,70.4761905 C91.4285714,74.1580888 88.4438031,77.1428571 84.7619048,77.1428571 C81.0800064,77.1428571 78.0952381,74.1580888 78.0952381,70.4761905 L78.0952381,9.62785407e-13 C78.0952381,-3.68189833 81.0800064,-6.66666667 84.7619048,-6.66666667 Z" transform="translate(84.761905, 35.238095) scale(-1, 1) rotate(45.000000) translate(-84.761905, -35.238095) "/></g></g></g></svg>