<svg width="40" height="40" viewBox="0 0 40 40" fill="none" xmlns="http://www.w3.org/2000/svg">
<path d="M19.5092 1.6289C20.381 1.1743 21.4452 2.2289 20.982 3.0999C20.713 3.8099 19.693 3.9987 19.172 3.4575C18.62 2.9381 18.8 1.9115 19.5092 1.6289ZM10.1322 2.6397C10.6618 2.4217 11.3322 2.9069 11.2782 3.4841C11.3344 4.1107 10.5682 4.5719 10.0284 4.2741C9.31324 3.9971 9.39504 2.8361 10.1322 2.6397ZM29.3374 4.2917C28.5098 4.1917 28.3788 2.8905 29.1756 2.6285C29.7936 2.3271 30.3606 2.8923 30.451 3.4781C30.3214 3.9783 29.9026 4.4363 29.3374 4.2917ZM12.2658 6.6307C13.1512 6.0707 14.4146 6.9047 14.2784 7.9331C14.2324 8.9715 12.8532 9.5731 12.075 8.8711C11.3226 8.3197 11.4366 7.0547 12.2658 6.6307ZM25.782 7.2249C26.177 6.2069 27.7776 6.1761 28.2272 7.1671C28.6716 7.9383 28.125 8.8933 27.3332 9.1555C26.2844 9.3513 25.2882 8.2175 25.782 7.2249ZM18.38 9.0977C18.3714 8.2227 19.1684 7.5707 20 7.5111C20.5516 7.6217 21.1528 7.8567 21.3894 8.4133C21.8304 9.1811 21.4388 10.2383 20.642 10.5907C20.2776 10.7949 19.8468 10.7183 19.45 10.6945C18.8434 10.3967 18.3326 9.8127 18.38 9.0977ZM4.43504 10.3727C5.24384 9.8755 6.33504 10.7829 6.02884 11.6615C5.86024 12.4215 4.83864 12.7307 4.25464 12.2455C3.63124 11.7909 3.73004 10.6979 4.43504 10.3727ZM34.38 10.3711C35.0662 9.8383 36.1986 10.4495 36.1168 11.3159C36.1628 12.1059 35.1838 12.7017 34.5026 12.2949C33.7524 11.9577 33.6758 10.8035 34.38 10.3711ZM22.3016 11.9441C23.434 11.5373 24.779 12.0241 25.4244 13.0337C26.2758 14.2679 25.8228 16.1475 24.5016 16.8557C23.1326 17.6933 21.1336 16.9833 20.628 15.4545C20.054 14.0859 20.8902 12.3731 22.3016 11.9441ZM15.6576 12.0787C16.9126 11.4863 18.6016 11.9833 19.2078 13.2671C19.9212 14.5167 19.3696 16.2567 18.0942 16.9019C16.8172 17.6271 15.0156 17.0773 14.3976 15.7357C13.7046 14.4383 14.32 12.6761 15.6576 12.0787ZM9.00504 14.3531C9.10044 13.5445 9.86324 13.0183 10.6328 12.9639C11.462 13.0639 12.1244 13.7079 12.2146 14.5471C12.1602 15.3779 11.5182 16.1899 10.6378 16.1849C9.66924 16.2683 8.82004 15.3047 9.00504 14.3531ZM28.6546 13.1397C29.649 12.5609 31.0298 13.4035 30.9856 14.5459C31.0538 15.7563 29.5256 16.6093 28.5354 15.8993C27.5068 15.3081 27.587 13.6431 28.6546 13.1397ZM12.9538 17.4057C14.1168 17.0857 15.4466 17.6339 16.017 18.7029C16.6418 19.7789 16.3864 21.2737 15.416 22.0629C14.1714 23.2205 11.876 22.7557 11.2136 21.1759C10.4524 19.7277 11.377 17.7869 12.9538 17.4057ZM25.5556 17.3997C26.6862 17.0763 28.0144 17.5121 28.6222 18.5421C29.4258 19.7201 29.0422 21.4771 27.8458 22.2365C26.5926 23.1183 24.6514 22.6553 23.9618 21.2765C23.1258 19.8503 23.967 17.8347 25.5556 17.3997ZM5.47364 18.7437C6.47824 18.3637 7.59184 19.4723 7.18484 20.4683C6.93624 21.3757 5.65744 21.7111 4.99684 21.0421C4.22384 20.4139 4.51004 19.0161 5.47364 18.7437ZM32.7036 20.1891C32.6746 19.3567 33.2836 18.6195 34.1372 18.5735C34.8252 18.6825 35.4942 19.2375 35.4398 19.9865C35.5028 20.9757 34.3108 21.6481 33.468 21.1833C33.073 20.9825 32.8704 20.5773 32.7036 20.1891ZM0.534039 19.2323C1.13844 18.9685 1.88604 19.4923 1.74804 20.1635C1.71564 20.9235 0.593639 21.2157 0.181439 20.5807C-0.182761 20.1397 0.0352388 19.4597 0.534039 19.2323ZM38.6426 19.2171C39.0682 18.9141 39.751 19.1319 39.9196 19.6291C40.2056 20.1721 39.6812 20.9161 39.07 20.8243C38.212 20.9025 37.9344 19.5949 38.6426 19.2171ZM16.2366 22.8653C17.827 22.4517 19.5366 23.7779 19.5466 25.4155C19.6504 27.0703 17.9666 28.5377 16.3386 28.1555C15.0802 27.9529 14.0928 26.7407 14.1336 25.4691C14.1302 24.2529 15.048 23.1225 16.2366 22.8653ZM22.535 22.8619C24.1492 22.4107 25.9098 23.7607 25.8842 25.4361C25.9694 27.0603 24.3382 28.4783 22.7442 28.1561C21.2442 27.9621 20.1374 26.3141 20.5562 24.8585C20.7676 23.8885 21.578 23.0997 22.535 22.8619ZM10.3912 23.8699C11.5082 23.6793 12.5554 24.9255 12.1024 25.9861C11.772 27.1163 10.1272 27.4229 9.40004 26.4997C8.54704 25.6131 9.18384 23.9923 10.3912 23.8699ZM28.8622 23.9197C29.8582 23.5025 31.0808 24.3641 31.0042 25.4451C31.0442 26.6351 29.5348 27.4557 28.5608 26.7611C27.4576 26.1375 27.6584 24.3023 28.8622 23.9197ZM34.025 29.0981C33.635 28.3711 34.3434 27.4075 35.1506 27.5421C35.5524 27.5353 35.8334 27.8519 36.0906 28.1175C36.1434 28.5483 36.232 29.0623 35.8744 29.3943C35.3888 30.0089 34.2888 29.8335 34.025 29.0981ZM4.43164 27.7445C5.18604 27.2423 6.27164 27.9913 6.10204 28.8733C6.01184 29.6533 5.02924 30.0991 4.38204 29.6565C3.68744 29.2547 3.71304 28.1107 4.43164 27.7445ZM19.3356 29.3773C20.3232 28.9415 21.5814 29.8013 21.4878 30.8891C21.561 32.0911 20.0048 32.9235 19.0392 32.2017C17.9666 31.5819 18.1454 29.7585 19.3356 29.3773ZM12.4326 30.9877C13.2738 30.5451 14.4026 31.3095 14.326 32.2509C14.3516 33.0239 13.5972 33.6827 12.8344 33.5685C12.2026 33.5549 11.7906 32.9885 11.588 32.4499C11.5984 31.8629 11.84 31.2091 12.4326 30.9877ZM26.4154 31.0013C27.2804 30.4667 28.5098 31.2345 28.428 32.2413C28.4502 33.2935 27.0608 33.9675 26.2554 33.2763C25.4756 32.7345 25.5708 31.4321 26.4154 31.0013ZM28.847 37.0127C28.4622 36.4305 28.9152 35.7291 29.54 35.5963C30.0424 35.6985 30.5736 36.0763 30.468 36.6587C30.3948 37.4469 29.242 37.6887 28.847 37.0127ZM9.54484 36.5071C9.69804 36.0457 10.0692 35.5871 10.6124 35.7071C11.4042 35.7633 11.6392 36.9567 10.9462 37.3245C10.323 37.7447 9.60004 37.1693 9.54484 36.5071ZM18.857 37.0365C19.0086 36.3539 19.8922 36.0219 20.4746 36.3845C20.8594 36.5497 20.9718 36.9803 21.0706 37.3463C21.0178 37.5369 20.9706 37.7277 20.9242 37.9183C20.6858 38.2009 20.3794 38.4835 19.9826 38.4733C19.2452 38.5597 18.58 37.7261 18.857 37.0365Z" fill="#161616"/>
</svg>
