<svg width="38" height="28" viewBox="0 0 38 28" fill="none" xmlns="http://www.w3.org/2000/svg">
<path d="M7 20C9.42751 21.467 13.0928 23 19 23C24.9072 23 28.5725 21.467 31 20" stroke="#161616" stroke-width="2"/>
<path d="M30 7C27.0369 5.4507 24.1081 4 19 4C13.8919 4 10.9769 5.46479 8 7" stroke="#161616" stroke-width="2"/>
<path d="M16 4.53066L14.6449 2C11.781 2.32645 9.05748 3.3603 6.74638 4.99828C6.74638 4.99828 2.72464 10.5616 2 21.5026C6.07971 25.9656 12.2754 26 12.2754 26L14.6812 22.9398" stroke="#161616" stroke-width="2"/>
<path d="M23.1941 22.9578L25.4338 26C25.4338 26 31.2019 25.9862 35 21.5194C34.3254 10.5759 30.5812 5.00086 30.5812 5.00086C30.5812 5.00086 27.2081 2.30284 23.2278 2L22 4.53972" stroke="#161616" stroke-width="2"/>
<path d="M13.5 18C14.8807 18 16 16.8807 16 15.5C16 14.1193 14.8807 13 13.5 13C12.1193 13 11 14.1193 11 15.5C11 16.8807 12.1193 18 13.5 18Z" stroke="#161616" stroke-width="2"/>
<path d="M23.5 18C24.8807 18 26 16.8807 26 15.5C26 14.1193 24.8807 13 23.5 13C22.1193 13 21 14.1193 21 15.5C21 16.8807 22.1193 18 23.5 18Z" stroke="#161616" stroke-width="2"/>
</svg>
