<svg width="28" height="28" viewBox="0 0 28 28" fill="none" xmlns="http://www.w3.org/2000/svg">
<path d="M19.4165 3.16647C20.8518 3.17076 22.2272 3.74286 23.2422 4.75783C24.2571 5.77279 24.8292 7.14815 24.8335 8.58353V19.4165C24.8292 20.8518 24.2571 22.2272 23.2422 23.2422C22.2272 24.2571 20.8518 24.8292 19.4165 24.8335H8.58353C7.14815 24.8292 5.77279 24.2571 4.75783 23.2422C3.74286 22.2272 3.17076 20.8518 3.16647 19.4165V8.58353C3.17076 7.14815 3.74286 5.77279 4.75783 4.75783C5.77279 3.74286 7.14815 3.17076 8.58353 3.16647H19.4165ZM19.4165 1H8.58353C4.4125 1 1 4.4125 1 8.58353V19.4165C1 23.5875 4.4125 27 8.58353 27H19.4165C23.5875 27 27 23.5875 27 19.4165V8.58353C27 4.4125 23.5875 1 19.4165 1Z" fill="#161616"/>
<path d="M20.5 9.00004C20.2033 9.00004 19.9133 8.91206 19.6666 8.74724C19.4199 8.58242 19.2277 8.34814 19.1141 8.07405C19.0006 7.79996 18.9709 7.49836 19.0288 7.20738C19.0867 6.91641 19.2295 6.64913 19.4393 6.43935C19.6491 6.22956 19.9164 6.0867 20.2073 6.02882C20.4983 5.97094 20.7999 6.00065 21.074 6.11418C21.3481 6.22772 21.5824 6.41998 21.7472 6.66665C21.912 6.91333 22 7.20334 22 7.50002C22.0004 7.69712 21.9619 7.89237 21.8867 8.07455C21.8114 8.25673 21.701 8.42226 21.5616 8.56164C21.4222 8.70101 21.2567 8.81149 21.0745 8.88672C20.8923 8.96195 20.6971 9.00046 20.5 9.00004ZM14.0001 9.99969C14.7912 9.99969 15.5647 10.2343 16.2225 10.6739C16.8803 11.1134 17.393 11.7382 17.6958 12.4691C17.9986 13.2 18.0778 14.0044 17.9234 14.7803C17.7691 15.5563 17.3881 16.2691 16.8287 16.8285C16.2692 17.388 15.5565 17.7689 14.7805 17.9233C14.0045 18.0776 13.2002 17.9984 12.4693 17.6957C11.7383 17.3929 11.1136 16.8802 10.674 16.2223C10.2345 15.5645 9.99985 14.7911 9.99985 13.9999C10.001 12.9393 10.4228 11.9225 11.1727 11.1726C11.9227 10.4226 12.9395 10.0008 14.0001 9.99969ZM14.0001 7.99985C12.8134 7.99985 11.6533 8.35174 10.6666 9.01104C9.67991 9.67034 8.91086 10.6074 8.45673 11.7038C8.0026 12.8002 7.88378 14.0066 8.11529 15.1705C8.34681 16.3344 8.91826 17.4035 9.75738 18.2426C10.5965 19.0817 11.6656 19.6532 12.8295 19.8847C13.9934 20.1162 15.1998 19.9974 16.2962 19.5433C17.3926 19.0891 18.3297 18.3201 18.989 17.3334C19.6483 16.3467 20.0002 15.1866 20.0002 13.9999C20.0002 12.4086 19.368 10.8825 18.2428 9.75723C17.1175 8.632 15.5914 7.99985 14.0001 7.99985Z" fill="#161616"/>
</svg>
