<svg xmlns="http://www.w3.org/2000/svg" viewBox="0 0 51 52"><path d="M40.9488 11.5483C38.1225 10.2049 35.0625 9.22994 31.875 8.6666C31.8471 8.66569 31.8193 8.67104 31.7936 8.68227C31.7679 8.6935 31.7449 8.71034 31.7263 8.7316C31.3438 9.4466 30.8975 10.3783 30.6 11.0933C27.2191 10.5733 23.7809 10.5733 20.4 11.0933C20.1025 10.3566 19.6563 9.4466 19.2525 8.7316C19.2313 8.68827 19.1675 8.6666 19.1038 8.6666C15.9163 9.22994 12.8775 10.2049 10.03 11.5483C10.0088 11.5483 9.98751 11.5699 9.96626 11.5916C4.18626 20.4099 2.5925 28.9899 3.37875 37.4833C3.37875 37.5266 3.4 37.5699 3.4425 37.5916C7.2675 40.4516 10.9438 42.1849 14.5775 43.3333C14.6413 43.3549 14.705 43.3333 14.7263 43.2899C15.5763 42.0983 16.3413 40.8416 17 39.5199C17.0425 39.4333 17 39.3466 16.915 39.3249C15.7038 38.8483 14.5563 38.2849 13.43 37.6349C13.345 37.5916 13.345 37.4616 13.4088 37.3966C13.6425 37.2233 13.8763 37.0283 14.11 36.8549C14.1525 36.8116 14.2163 36.8116 14.2588 36.8333C21.5688 40.2349 29.4525 40.2349 36.6775 36.8333C36.72 36.8116 36.7838 36.8116 36.8263 36.8549C37.06 37.0499 37.2938 37.2233 37.5275 37.4183C37.6125 37.4833 37.6125 37.6133 37.5063 37.6566C36.4013 38.3283 35.2325 38.8699 34.0213 39.3466C33.9363 39.3683 33.915 39.4766 33.9363 39.5416C34.6163 40.8633 35.3813 42.1199 36.21 43.3116C36.2738 43.3333 36.3375 43.3549 36.4013 43.3333C40.0563 42.1849 43.7325 40.4516 47.5575 37.5916C47.6 37.5699 47.6213 37.5266 47.6213 37.4833C48.5563 27.6683 46.07 19.1533 41.0338 11.5916C41.0125 11.5699 40.9913 11.5483 40.9488 11.5483ZM18.105 32.3049C15.9163 32.3049 14.0888 30.2466 14.0888 27.7116C14.0888 25.1766 15.8738 23.1183 18.105 23.1183C20.3575 23.1183 22.1425 25.1983 22.1213 27.7116C22.1213 30.2466 20.3363 32.3049 18.105 32.3049ZM32.9163 32.3049C30.7275 32.3049 28.9 30.2466 28.9 27.7116C28.9 25.1766 30.685 23.1183 32.9163 23.1183C35.1688 23.1183 36.9538 25.1983 36.9325 27.7116C36.9325 30.2466 35.1688 32.3049 32.9163 32.3049Z"/></svg>