<svg xmlns="http://www.w3.org/2000/svg" viewBox="0 0 45 37"><path d="M44.455 4.33333C42.8187 5.09167 41.055 5.59 39.2275 5.82833C41.0975 4.68 42.5425 2.86 43.2225 0.671667C41.4588 1.755 39.5037 2.51333 37.4425 2.94667C35.7637 1.08333 33.405 0 30.7275 0C25.7337 0 21.6537 4.16 21.6537 9.295C21.6537 10.0317 21.7388 10.7467 21.8875 11.4183C14.3225 11.0283 7.58625 7.32333 3.1025 1.71167C2.31625 3.07667 1.87 4.68 1.87 6.37C1.87 9.59833 3.46375 12.4583 5.92875 14.0833C4.42 14.0833 3.0175 13.65 1.785 13V13.065C1.785 17.5717 4.93 21.3417 9.095 22.1867C7.75779 22.5598 6.35395 22.6117 4.99375 22.3383C5.57091 24.1854 6.70127 25.8015 8.22591 26.9597C9.75055 28.1178 11.5928 28.7597 13.4937 28.795C10.2715 31.3959 6.27724 32.8018 2.1675 32.7817C1.445 32.7817 0.7225 32.7383 0 32.6517C4.0375 35.295 8.84 36.8333 13.9825 36.8333C30.7275 36.8333 39.9288 22.6633 39.9288 10.3783C39.9288 9.96667 39.9287 9.57666 39.9075 9.165C41.6925 7.865 43.2225 6.21833 44.455 4.33333Z"/></svg>