<svg width="33" height="28" viewBox="0 0 33 28" fill="none" xmlns="http://www.w3.org/2000/svg">
<g clip-path="url(#clip0_2562_7523)">
<path d="M28.8497 7.58836V8.4469C28.8497 17.0924 22.4486 27 10.7357 27C7.27787 27.0076 3.8935 25.978 1 24.038C1.50252 24.1079 2.00941 24.1395 2.51649 24.1324C5.38274 24.1405 8.16839 23.1608 10.4257 21.3508C9.09408 21.3307 7.80254 20.881 6.73463 20.0656C5.66672 19.2503 4.87676 18.1108 4.47703 16.8091C4.87367 16.8952 5.27806 16.9384 5.68351 16.9379C6.24969 16.938 6.81331 16.86 7.35919 16.7061C5.91692 16.4114 4.61939 15.6124 3.68862 14.4456C2.75785 13.2789 2.25169 11.8169 2.25676 10.3099V10.2241C3.13917 10.7292 4.12846 11.0062 5.13892 11.0311C3.79385 10.1241 2.83753 8.72505 2.46535 7.11978C2.09318 5.5145 2.33324 3.82418 3.13649 2.39419C4.73697 4.41133 6.73382 6.06073 8.9972 7.23518C11.2606 8.40963 13.7398 9.08282 16.2738 9.211C16.1483 8.72372 16.0891 8.22102 16.0978 7.71714C16.0507 6.38547 16.4052 5.07125 17.1131 3.95344C17.821 2.83563 18.8479 1.96854 20.0539 1.47025C21.26 0.971955 22.5867 0.866669 23.8532 1.16873C25.1198 1.47078 26.2647 2.1655 27.1322 3.1583C28.558 2.86344 29.9257 2.32662 31.1789 1.57C30.7037 3.10795 29.6926 4.41288 28.3386 5.23596C29.6035 5.05737 30.8366 4.69305 32 4.1542C31.1568 5.4812 30.0901 6.64401 28.8497 7.58836Z" stroke="#161616" stroke-width="2" stroke-linecap="round" stroke-linejoin="round"/>
</g>
<defs>
<clipPath id="clip0_2562_7523">
<rect width="33" height="28" fill="white"/>
</clipPath>
</defs>
</svg>
