<svg width="40" height="40" viewBox="0 0 40 40" fill="none" xmlns="http://www.w3.org/2000/svg">
<path d="M20.4906 15.0242C19.4647 14.9229 18.4326 15.1411 17.5355 15.6491C16.6385 16.157 15.9204 16.9298 15.4795 17.8616C15.0386 18.7935 14.8965 19.8388 15.0727 20.8545C15.2489 21.8702 15.7347 22.8066 16.4636 23.5355C17.1925 24.2645 18.129 24.7503 19.1447 24.9265C20.1604 25.1026 21.2057 24.9605 22.1375 24.5197C23.0694 24.0788 23.8421 23.3607 24.3501 22.4636C24.858 21.5666 25.0763 20.5345 24.9749 19.5086C24.8594 18.3586 24.3499 17.2839 23.5326 16.4666C22.7153 15.6493 21.6406 15.1397 20.4906 15.0242ZM32.5296 20C32.5264 20.5435 32.4865 21.0861 32.4101 21.6242L35.9421 24.3945C36.0959 24.522 36.1996 24.6999 36.2346 24.8966C36.2696 25.0933 36.2338 25.296 36.1335 25.4688L32.7921 31.25C32.6907 31.4211 32.532 31.5509 32.3442 31.6165C32.1564 31.6821 31.9515 31.6793 31.7656 31.6086L28.2577 30.1961C28.0643 30.1191 27.8548 30.0912 27.6479 30.1151C27.4411 30.139 27.2434 30.2138 27.0726 30.3328C26.5372 30.7015 25.9747 31.029 25.3898 31.3125C25.2059 31.4019 25.0468 31.5352 24.9267 31.7006C24.8065 31.866 24.7289 32.0584 24.7007 32.2609L24.1749 36.0023C24.1404 36.1999 24.0383 36.3794 23.8861 36.5101C23.7339 36.6407 23.5411 36.7145 23.3406 36.7188H16.6578C16.4605 36.7153 16.2703 36.6448 16.1185 36.5189C15.9667 36.3929 15.8623 36.219 15.8226 36.0258L15.2976 32.2898C15.2681 32.0851 15.1885 31.8908 15.0658 31.7243C14.9432 31.5577 14.7812 31.424 14.5945 31.3352C14.0103 31.0532 13.4496 30.7248 12.9179 30.3531C12.7477 30.2347 12.5506 30.1604 12.3446 30.1371C12.1385 30.1138 11.9298 30.1421 11.7374 30.2195L8.23041 31.6313C8.04456 31.702 7.83969 31.7049 7.6519 31.6395C7.46411 31.574 7.30544 31.4444 7.20384 31.2734L3.86244 25.4922C3.76198 25.3195 3.72608 25.1167 3.76113 24.92C3.79618 24.7233 3.89991 24.5454 4.05385 24.418L7.039 22.0742C7.20254 21.9444 7.33108 21.7758 7.41294 21.5837C7.49479 21.3916 7.52739 21.1821 7.50775 20.9742C7.47963 20.6484 7.46244 20.3234 7.46244 19.9977C7.46244 19.6719 7.47884 19.3516 7.50775 19.0328C7.52524 18.8262 7.49105 18.6185 7.40827 18.4284C7.32548 18.2382 7.19671 18.0717 7.03353 17.9437L4.04994 15.6C3.8985 15.4719 3.79696 15.2947 3.76311 15.0993C3.72925 14.9039 3.76525 14.7028 3.86478 14.5312L7.20619 8.75C7.30766 8.5789 7.46628 8.44911 7.65408 8.38351C7.84188 8.3179 8.04681 8.3207 8.23275 8.39141L11.7406 9.80391C11.934 9.88093 12.1435 9.90875 12.3504 9.88489C12.5572 9.86103 12.7549 9.78623 12.9257 9.66719C13.4611 9.29853 14.0236 8.97103 14.6085 8.6875C14.7924 8.59812 14.9515 8.46485 15.0716 8.29944C15.1918 8.13403 15.2694 7.94157 15.2976 7.73906L15.8234 3.99766C15.8579 3.80006 15.96 3.6206 16.1122 3.48993C16.2644 3.35926 16.4572 3.2855 16.6578 3.28125H23.3406C23.5378 3.28466 23.728 3.35516 23.8798 3.48112C24.0316 3.60708 24.136 3.781 24.1757 3.97422L24.7007 7.71016C24.7302 7.9149 24.8098 8.10918 24.9325 8.27573C25.0551 8.44229 25.2171 8.57595 25.4038 8.66484C25.9881 8.94684 26.5487 9.27524 27.0804 9.64688C27.2506 9.76532 27.4477 9.83955 27.6538 9.86287C27.8598 9.8862 28.0685 9.85788 28.2609 9.78047L31.7679 8.36875C31.9538 8.29798 32.1586 8.29506 32.3464 8.36052C32.5342 8.42597 32.6929 8.5556 32.7945 8.72656L36.1359 14.5078C36.2363 14.6805 36.2722 14.8833 36.2372 15.08C36.2021 15.2767 36.0984 15.4546 35.9445 15.582L32.9593 17.9258C32.7951 18.0552 32.6658 18.2236 32.5832 18.4157C32.5007 18.6078 32.4675 18.8176 32.4867 19.0258C32.5124 19.3492 32.5296 19.6742 32.5296 20Z" stroke="#161616" stroke-width="2" stroke-linecap="round" stroke-linejoin="round"/>
</svg>
